G04*
G04 #@! TF.GenerationSoftware,Altium Limited,Altium Designer,18.1.7 (191)*
G04*
G04 Layer_Color=2752767*
%FSLAX24Y24*%
%MOIN*%
G70*
G01*
G75*
%ADD279C,0.0020*%
%ADD280C,0.0027*%
%ADD281C,0.0013*%
D279*
X14920Y10420D02*
X14920Y10580D01*
X15080Y10580D01*
X15080Y10420D01*
X14920Y10420D01*
X15862Y3170D02*
X15782Y3330D01*
X15942Y3330D01*
X15862Y3170D01*
X15075Y3170D02*
X14995Y3330D01*
X15155Y3330D01*
X15075Y3170D01*
X14287Y3170D02*
X14207Y3330D01*
X14367Y3330D01*
X14287Y3170D01*
X13500Y3170D02*
X13420Y3330D01*
X13580Y3330D01*
X13500Y3170D01*
X20112Y3170D02*
X20032Y3330D01*
X20192Y3330D01*
X20112Y3170D01*
X19325Y3170D02*
X19245Y3330D01*
X19405Y3330D01*
X19325Y3170D01*
X18537Y3170D02*
X18457Y3330D01*
X18617Y3330D01*
X18537Y3170D01*
X17750Y3170D02*
X17670Y3330D01*
X17830Y3330D01*
X17750Y3170D01*
X-19580Y27634D02*
X-19580Y27794D01*
X-19420Y27794D01*
X-19420Y27634D01*
X-19580Y27634D01*
X-13357Y11339D02*
X-13357Y11499D01*
X-13197Y11499D01*
X-13197Y11339D01*
X-13357Y11339D01*
X-12776Y11920D02*
X-12776Y12080D01*
X-12616Y12080D01*
X-12616Y11920D01*
X-12776Y11920D01*
X-13357Y11920D02*
X-13357Y12080D01*
X-13197Y12080D01*
X-13197Y11920D01*
X-13357Y11920D01*
X-13937Y11920D02*
X-13937Y12080D01*
X-13777Y12080D01*
X-13777Y11920D01*
X-13937Y11920D01*
X-13357Y12501D02*
X-13357Y12661D01*
X-13197Y12661D01*
X-13197Y12501D01*
X-13357Y12501D01*
X20275Y34172D02*
X20315Y34212D01*
X20355Y34212D01*
X20315Y34252D01*
X20355Y34292D01*
X20315Y34292D01*
X20275Y34332D01*
X20235Y34292D01*
X20195Y34292D01*
X20235Y34252D01*
X20195Y34212D01*
X20235Y34212D01*
X20275Y34172D01*
X19095Y34172D02*
X19135Y34212D01*
X19175Y34212D01*
X19135Y34252D01*
X19175Y34292D01*
X19135Y34292D01*
X19095Y34332D01*
X19055Y34292D01*
X19015Y34292D01*
X19055Y34252D01*
X19015Y34212D01*
X19055Y34212D01*
X19095Y34172D01*
X31420Y1920D02*
X31460Y2000D01*
X31420Y2080D01*
X31500Y2040D01*
X31580Y2080D01*
X31540Y2000D01*
X31580Y1920D01*
X31500Y1960D01*
X31420Y1920D01*
X24769Y24806D02*
X24769Y24766D01*
X24849Y24766D01*
X24849Y24806D01*
X24889Y24806D01*
X24889Y24886D01*
X24849Y24886D01*
X24849Y24926D01*
X24769Y24926D01*
X24769Y24886D01*
X24729Y24886D01*
X24729Y24806D01*
X24769Y24806D01*
X32243Y25403D02*
X32243Y25363D01*
X32323Y25363D01*
X32323Y25403D01*
X32363Y25403D01*
X32363Y25483D01*
X32323Y25483D01*
X32323Y25523D01*
X32243Y25523D01*
X32243Y25483D01*
X32203Y25483D01*
X32203Y25403D01*
X32243Y25403D01*
X-26830Y5176D02*
X-26790Y5176D01*
X-26750Y5216D01*
X-26710Y5176D01*
X-26670Y5176D01*
X-26670Y5216D01*
X-26710Y5256D01*
X-26670Y5296D01*
X-26670Y5336D01*
X-26710Y5336D01*
X-26750Y5296D01*
X-26790Y5336D01*
X-26830Y5336D01*
X-26830Y5296D01*
X-26790Y5256D01*
X-26830Y5216D01*
X-26830Y5176D01*
X-26830Y2420D02*
X-26790Y2420D01*
X-26750Y2460D01*
X-26710Y2420D01*
X-26670Y2420D01*
X-26670Y2460D01*
X-26710Y2500D01*
X-26670Y2540D01*
X-26670Y2580D01*
X-26710Y2580D01*
X-26750Y2540D01*
X-26790Y2580D01*
X-26830Y2580D01*
X-26830Y2540D01*
X-26790Y2500D01*
X-26830Y2460D01*
X-26830Y2420D01*
X-1486Y3532D02*
X-1406Y3612D01*
X-1326Y3532D01*
X-1406Y3452D01*
X-1486Y3532D01*
X1348Y3452D02*
X1348Y3612D01*
X1508Y3612D01*
X1508Y3452D01*
X1348Y3452D01*
X1388Y3492D02*
X1388Y3572D01*
X1468Y3572D01*
X1468Y3492D01*
X1388Y3492D01*
X-1800Y2901D02*
X-1880Y3061D01*
X-1720Y3061D01*
X-1800Y2901D01*
X-1800Y2941D02*
X-1840Y3021D01*
X-1760Y3021D01*
X-1800Y2941D01*
X-1800Y1720D02*
X-1880Y1880D01*
X-1720Y1880D01*
X-1800Y1720D01*
X-1800Y1760D02*
X-1840Y1840D01*
X-1760Y1840D01*
X-1800Y1760D01*
X1822Y2901D02*
X1742Y3061D01*
X1902Y3061D01*
X1822Y2901D01*
X1822Y2941D02*
X1782Y3021D01*
X1862Y3021D01*
X1822Y2941D01*
X1822Y1720D02*
X1742Y1880D01*
X1902Y1880D01*
X1822Y1720D01*
X1822Y1760D02*
X1782Y1840D01*
X1862Y1840D01*
X1822Y1760D01*
X20920Y13670D02*
X20920Y13830D01*
X21080Y13830D01*
X21080Y13670D01*
X20920Y13670D01*
X20420Y13670D02*
X20420Y13830D01*
X20580Y13830D01*
X20580Y13670D01*
X20420Y13670D01*
X20920Y8670D02*
X20920Y8830D01*
X21080Y8830D01*
X21080Y8670D01*
X20920Y8670D01*
X20420Y8670D02*
X20420Y8830D01*
X20580Y8830D01*
X20580Y8670D01*
X20420Y8670D01*
X18420Y12170D02*
X18420Y12330D01*
X18580Y12330D01*
X18580Y12170D01*
X18420Y12170D01*
X20420Y12170D02*
X20420Y12330D01*
X20580Y12330D01*
X20580Y12170D01*
X20420Y12170D01*
X20420Y9670D02*
X20420Y9830D01*
X20580Y9830D01*
X20580Y9670D01*
X20420Y9670D01*
X18420Y9670D02*
X18420Y9830D01*
X18580Y9830D01*
X18580Y9670D01*
X18420Y9670D01*
X19420Y11170D02*
X19420Y11330D01*
X19580Y11330D01*
X19580Y11170D01*
X19420Y11170D01*
X16920Y10170D02*
X16920Y10330D01*
X17080Y10330D01*
X17080Y10170D01*
X16920Y10170D01*
X16920Y13170D02*
X16920Y13330D01*
X17080Y13330D01*
X17080Y13170D01*
X16920Y13170D01*
X17920Y13670D02*
X17920Y13830D01*
X18080Y13830D01*
X18080Y13670D01*
X17920Y13670D01*
X21420Y13670D02*
X21420Y13830D01*
X21580Y13830D01*
X21580Y13670D01*
X21420Y13670D01*
X20920Y10170D02*
X20920Y10330D01*
X21080Y10330D01*
X21080Y10170D01*
X20920Y10170D01*
X-31923Y24806D02*
X-31923Y24766D01*
X-31843Y24766D01*
X-31843Y24806D01*
X-31803Y24806D01*
X-31803Y24886D01*
X-31843Y24886D01*
X-31843Y24926D01*
X-31923Y24926D01*
X-31923Y24886D01*
X-31963Y24886D01*
X-31963Y24806D01*
X-31923Y24806D01*
X-24449Y25403D02*
X-24449Y25363D01*
X-24369Y25363D01*
X-24369Y25403D01*
X-24329Y25403D01*
X-24329Y25483D01*
X-24369Y25483D01*
X-24369Y25523D01*
X-24449Y25523D01*
X-24449Y25483D01*
X-24489Y25483D01*
X-24489Y25403D01*
X-24449Y25403D01*
X30150Y4039D02*
X30070Y4199D01*
X30230Y4199D01*
X30150Y4039D01*
X30150Y4826D02*
X30070Y4986D01*
X30230Y4986D01*
X30150Y4826D01*
X30150Y5614D02*
X30070Y5774D01*
X30230Y5774D01*
X30150Y5614D01*
X30150Y6401D02*
X30070Y6561D01*
X30230Y6561D01*
X30150Y6401D01*
X17750Y31570D02*
X17670Y31730D01*
X17830Y31730D01*
X17750Y31570D01*
X16963Y31570D02*
X16883Y31730D01*
X17043Y31730D01*
X16963Y31570D01*
X16175Y31570D02*
X16095Y31730D01*
X16255Y31730D01*
X16175Y31570D01*
X15388Y31570D02*
X15308Y31730D01*
X15468Y31730D01*
X15388Y31570D01*
X13600Y31570D02*
X13520Y31730D01*
X13680Y31730D01*
X13600Y31570D01*
X12813Y31570D02*
X12733Y31730D01*
X12893Y31730D01*
X12813Y31570D01*
X12025Y31570D02*
X11945Y31730D01*
X12105Y31730D01*
X12025Y31570D01*
X11238Y31570D02*
X11158Y31730D01*
X11318Y31730D01*
X11238Y31570D01*
X21900Y31570D02*
X21820Y31730D01*
X21980Y31730D01*
X21900Y31570D01*
X21113Y31570D02*
X21033Y31730D01*
X21193Y31730D01*
X21113Y31570D01*
X20325Y31570D02*
X20245Y31730D01*
X20405Y31730D01*
X20325Y31570D01*
X19538Y31570D02*
X19458Y31730D01*
X19618Y31730D01*
X19538Y31570D01*
X-19330Y27384D02*
X-19330Y27544D01*
X-19170Y27544D01*
X-19170Y27384D01*
X-19330Y27384D01*
X31420Y32920D02*
X31460Y33000D01*
X31420Y33080D01*
X31500Y33040D01*
X31580Y33080D01*
X31540Y33000D01*
X31580Y32920D01*
X31500Y32960D01*
X31420Y32920D01*
X-31580Y1920D02*
X-31540Y2000D01*
X-31580Y2080D01*
X-31500Y2040D01*
X-31420Y2080D01*
X-31460Y2000D01*
X-31420Y1920D01*
X-31500Y1960D01*
X-31580Y1920D01*
X-31580Y32920D02*
X-31540Y33000D01*
X-31580Y33080D01*
X-31500Y33040D01*
X-31420Y33080D01*
X-31460Y33000D01*
X-31420Y32920D01*
X-31500Y32960D01*
X-31580Y32920D01*
X-30487Y6087D02*
X-30487Y6247D01*
X-30327Y6247D01*
X-30327Y6087D01*
X-30487Y6087D01*
X-24080Y4420D02*
X-24080Y4580D01*
X-23920Y4580D01*
X-23920Y4420D01*
X-24080Y4420D01*
X-880Y28770D02*
X-880Y28930D01*
X-720Y28930D01*
X-720Y28770D01*
X-880Y28770D01*
X-2430Y28670D02*
X-2430Y28830D01*
X-2270Y28830D01*
X-2270Y28670D01*
X-2430Y28670D01*
X6670Y32169D02*
X6670Y32329D01*
X6830Y32329D01*
X6830Y32169D01*
X6670Y32169D01*
X6420Y32420D02*
X6420Y32580D01*
X6580Y32580D01*
X6580Y32420D01*
X6420Y32420D01*
X7170Y31670D02*
X7170Y31830D01*
X7330Y31830D01*
X7330Y31670D01*
X7170Y31670D01*
X1986Y31070D02*
X1986Y31230D01*
X2146Y31230D01*
X2146Y31070D01*
X1986Y31070D01*
X32570Y16670D02*
X32570Y16830D01*
X32730Y16830D01*
X32730Y16670D01*
X32570Y16670D01*
X27927Y19670D02*
X27927Y19830D01*
X28087Y19830D01*
X28087Y19670D01*
X27927Y19670D01*
X29920Y23170D02*
X29920Y23330D01*
X30080Y23330D01*
X30080Y23170D01*
X29920Y23170D01*
X30170Y22922D02*
X30170Y23082D01*
X30330Y23082D01*
X30330Y22922D01*
X30170Y22922D01*
X29670Y23370D02*
X29670Y23530D01*
X29830Y23530D01*
X29830Y23370D01*
X29670Y23370D01*
X14670Y5420D02*
X14670Y5580D01*
X14830Y5580D01*
X14830Y5420D01*
X14670Y5420D01*
X14670Y6420D02*
X14670Y6580D01*
X14830Y6580D01*
X14830Y6420D01*
X14670Y6420D01*
X-4780Y7570D02*
X-4780Y7730D01*
X-4620Y7730D01*
X-4620Y7570D01*
X-4780Y7570D01*
X-5080Y7570D02*
X-5080Y7730D01*
X-4920Y7730D01*
X-4920Y7570D01*
X-5080Y7570D01*
X-4780Y7295D02*
X-4780Y7455D01*
X-4620Y7455D01*
X-4620Y7295D01*
X-4780Y7295D01*
X-12580Y7669D02*
X-12580Y7829D01*
X-12420Y7829D01*
X-12420Y7669D01*
X-12580Y7669D01*
X-11930Y7670D02*
X-11930Y7830D01*
X-11770Y7830D01*
X-11770Y7670D01*
X-11930Y7670D01*
X-20107Y9670D02*
X-20107Y9830D01*
X-19947Y9830D01*
X-19947Y9670D01*
X-20107Y9670D01*
X-20557Y9670D02*
X-20557Y9830D01*
X-20397Y9830D01*
X-20397Y9670D01*
X-20557Y9670D01*
X-20557Y10170D02*
X-20557Y10330D01*
X-20397Y10330D01*
X-20397Y10170D01*
X-20557Y10170D01*
X-20107Y10170D02*
X-20107Y10330D01*
X-19947Y10330D01*
X-19947Y10170D01*
X-20107Y10170D01*
X-10380Y19070D02*
X-10380Y19230D01*
X-10220Y19230D01*
X-10220Y19070D01*
X-10380Y19070D01*
X-10380Y18620D02*
X-10380Y18780D01*
X-10220Y18780D01*
X-10220Y18620D01*
X-10380Y18620D01*
X-10380Y18170D02*
X-10380Y18330D01*
X-10220Y18330D01*
X-10220Y18170D01*
X-10380Y18170D01*
X-10380Y17720D02*
X-10380Y17880D01*
X-10220Y17880D01*
X-10220Y17720D01*
X-10380Y17720D01*
X-10830Y17720D02*
X-10830Y17880D01*
X-10670Y17880D01*
X-10670Y17720D01*
X-10830Y17720D01*
X-10830Y18170D02*
X-10830Y18330D01*
X-10670Y18330D01*
X-10670Y18170D01*
X-10830Y18170D01*
X-10830Y18620D02*
X-10830Y18780D01*
X-10670Y18780D01*
X-10670Y18620D01*
X-10830Y18620D01*
X-10830Y19070D02*
X-10830Y19230D01*
X-10670Y19230D01*
X-10670Y19070D01*
X-10830Y19070D01*
X-11180Y7671D02*
X-11180Y7831D01*
X-11020Y7831D01*
X-11020Y7671D01*
X-11180Y7671D01*
X-11180Y9049D02*
X-11180Y9209D01*
X-11020Y9209D01*
X-11020Y9049D01*
X-11180Y9049D01*
X-10201Y10802D02*
X-10201Y10962D01*
X-10041Y10962D01*
X-10041Y10802D01*
X-10201Y10802D01*
X-8980Y4405D02*
X-8980Y4565D01*
X-8820Y4565D01*
X-8820Y4405D01*
X-8980Y4405D01*
X-8363Y4405D02*
X-8363Y4565D01*
X-8203Y4565D01*
X-8203Y4405D01*
X-8363Y4405D01*
X-7747Y4405D02*
X-7747Y4565D01*
X-7587Y4565D01*
X-7587Y4405D01*
X-7747Y4405D01*
X-7130Y4409D02*
X-7130Y4569D01*
X-6970Y4569D01*
X-6970Y4409D01*
X-7130Y4409D01*
X-4630Y19170D02*
X-4630Y19330D01*
X-4470Y19330D01*
X-4470Y19170D01*
X-4630Y19170D01*
X-13580Y20420D02*
X-13580Y20580D01*
X-13420Y20580D01*
X-13420Y20420D01*
X-13580Y20420D01*
X1670Y14920D02*
X1670Y15080D01*
X1830Y15080D01*
X1830Y14920D01*
X1670Y14920D01*
X2420Y15170D02*
X2420Y15330D01*
X2580Y15330D01*
X2580Y15170D01*
X2420Y15170D01*
X-14583Y13170D02*
X-14583Y13330D01*
X-14423Y13330D01*
X-14423Y13170D01*
X-14583Y13170D01*
X-15315Y15355D02*
X-15315Y15515D01*
X-15155Y15515D01*
X-15155Y15355D01*
X-15315Y15355D01*
X-12230Y13170D02*
X-12230Y13330D01*
X-12070Y13330D01*
X-12070Y13170D01*
X-12230Y13170D01*
X-18530Y11034D02*
X-18530Y11194D01*
X-18370Y11194D01*
X-18370Y11034D01*
X-18530Y11034D01*
X-16511Y13607D02*
X-16511Y13767D01*
X-16351Y13767D01*
X-16351Y13607D01*
X-16511Y13607D01*
X2167Y16920D02*
X2167Y17080D01*
X2327Y17080D01*
X2327Y16920D01*
X2167Y16920D01*
X-18144Y11526D02*
X-18144Y11686D01*
X-17984Y11686D01*
X-17984Y11526D01*
X-18144Y11526D01*
X1620Y30970D02*
X1620Y31130D01*
X1780Y31130D01*
X1780Y30970D01*
X1620Y30970D01*
X1420Y32420D02*
X1420Y32580D01*
X1580Y32580D01*
X1580Y32420D01*
X1420Y32420D01*
X-880Y28172D02*
X-880Y28332D01*
X-720Y28332D01*
X-720Y28172D01*
X-880Y28172D01*
X-7580Y29770D02*
X-7580Y29930D01*
X-7420Y29930D01*
X-7420Y29770D01*
X-7580Y29770D01*
X5459Y8942D02*
X5459Y9102D01*
X5619Y9102D01*
X5619Y8942D01*
X5459Y8942D01*
X5912Y8942D02*
X5912Y9102D01*
X6072Y9102D01*
X6072Y8942D01*
X5912Y8942D01*
X6296Y8942D02*
X6296Y9102D01*
X6456Y9102D01*
X6456Y8942D01*
X6296Y8942D01*
X5912Y9779D02*
X5912Y9939D01*
X6072Y9939D01*
X6072Y9779D01*
X5912Y9779D01*
X5459Y9779D02*
X5459Y9939D01*
X5619Y9939D01*
X5619Y9779D01*
X5459Y9779D01*
X5912Y9395D02*
X5912Y9555D01*
X6072Y9555D01*
X6072Y9395D01*
X5912Y9395D01*
X5459Y9395D02*
X5459Y9555D01*
X5619Y9555D01*
X5619Y9395D01*
X5459Y9395D01*
X6296Y9395D02*
X6296Y9555D01*
X6456Y9555D01*
X6456Y9395D01*
X6296Y9395D01*
X6296Y8037D02*
X6296Y8197D01*
X6456Y8197D01*
X6456Y8037D01*
X6296Y8037D01*
X5459Y8037D02*
X5459Y8197D01*
X5619Y8197D01*
X5619Y8037D01*
X5459Y8037D01*
X5912Y8037D02*
X5912Y8197D01*
X6072Y8197D01*
X6072Y8037D01*
X5912Y8037D01*
X5459Y7653D02*
X5459Y7813D01*
X5619Y7813D01*
X5619Y7653D01*
X5459Y7653D01*
X5912Y7653D02*
X5912Y7813D01*
X6072Y7813D01*
X6072Y7653D01*
X5912Y7653D01*
X6296Y8490D02*
X6296Y8650D01*
X6456Y8650D01*
X6456Y8490D01*
X6296Y8490D01*
X5912Y8490D02*
X5912Y8650D01*
X6072Y8650D01*
X6072Y8490D01*
X5912Y8490D01*
X5459Y8490D02*
X5459Y8650D01*
X5619Y8650D01*
X5619Y8490D01*
X5459Y8490D01*
X5006Y8490D02*
X5006Y8650D01*
X5166Y8650D01*
X5166Y8490D01*
X5006Y8490D01*
X4553Y8490D02*
X4553Y8650D01*
X4713Y8650D01*
X4713Y8490D01*
X4553Y8490D01*
X4170Y8490D02*
X4170Y8650D01*
X4330Y8650D01*
X4330Y8490D01*
X4170Y8490D01*
X4553Y7653D02*
X4553Y7813D01*
X4713Y7813D01*
X4713Y7653D01*
X4553Y7653D01*
X5006Y7653D02*
X5006Y7813D01*
X5166Y7813D01*
X5166Y7653D01*
X5006Y7653D01*
X4553Y8037D02*
X4553Y8197D01*
X4713Y8197D01*
X4713Y8037D01*
X4553Y8037D01*
X5006Y8037D02*
X5006Y8197D01*
X5166Y8197D01*
X5166Y8037D01*
X5006Y8037D01*
X4170Y8037D02*
X4170Y8197D01*
X4330Y8197D01*
X4330Y8037D01*
X4170Y8037D01*
X4170Y9395D02*
X4170Y9555D01*
X4330Y9555D01*
X4330Y9395D01*
X4170Y9395D01*
X5006Y9395D02*
X5006Y9555D01*
X5166Y9555D01*
X5166Y9395D01*
X5006Y9395D01*
X4553Y9395D02*
X4553Y9555D01*
X4713Y9555D01*
X4713Y9395D01*
X4553Y9395D01*
X5006Y9779D02*
X5006Y9939D01*
X5166Y9939D01*
X5166Y9779D01*
X5006Y9779D01*
X4553Y9779D02*
X4553Y9939D01*
X4713Y9939D01*
X4713Y9779D01*
X4553Y9779D01*
X4170Y8942D02*
X4170Y9102D01*
X4330Y9102D01*
X4330Y8942D01*
X4170Y8942D01*
X4553Y8942D02*
X4553Y9102D01*
X4713Y9102D01*
X4713Y8942D01*
X4553Y8942D01*
X5006Y8942D02*
X5006Y9102D01*
X5166Y9102D01*
X5166Y8942D01*
X5006Y8942D01*
X6309Y4970D02*
X6309Y5130D01*
X6469Y5130D01*
X6469Y4970D01*
X6309Y4970D01*
X5837Y4970D02*
X5837Y5130D01*
X5997Y5130D01*
X5997Y4970D01*
X5837Y4970D01*
X6073Y4970D02*
X6073Y5130D01*
X6233Y5130D01*
X6233Y4970D01*
X6073Y4970D01*
X6073Y5206D02*
X6073Y5366D01*
X6233Y5366D01*
X6233Y5206D01*
X6073Y5206D01*
X6073Y4734D02*
X6073Y4894D01*
X6233Y4894D01*
X6233Y4734D01*
X6073Y4734D01*
X11112Y1916D02*
X11152Y1956D01*
X11192Y1956D01*
X11152Y1996D01*
X11192Y2036D01*
X11152Y2036D01*
X11112Y2076D01*
X11072Y2036D01*
X11032Y2036D01*
X11072Y1996D01*
X11032Y1956D01*
X11072Y1956D01*
X11112Y1916D01*
X11112Y1956D02*
X11132Y1976D01*
X11152Y1976D01*
X11132Y1996D01*
X11152Y2016D01*
X11132Y2016D01*
X11112Y2036D01*
X11092Y2016D01*
X11072Y2016D01*
X11092Y1996D01*
X11072Y1976D01*
X11092Y1976D01*
X11112Y1956D01*
X10750Y1920D02*
X10790Y1960D01*
X10830Y1960D01*
X10790Y2000D01*
X10830Y2040D01*
X10790Y2040D01*
X10750Y2080D01*
X10710Y2040D01*
X10670Y2040D01*
X10710Y2000D01*
X10670Y1960D01*
X10710Y1960D01*
X10750Y1920D01*
X10750Y1960D02*
X10770Y1980D01*
X10790Y1980D01*
X10770Y2000D01*
X10790Y2020D01*
X10770Y2020D01*
X10750Y2040D01*
X10730Y2020D01*
X10710Y2020D01*
X10730Y2000D01*
X10710Y1980D01*
X10730Y1980D01*
X10750Y1960D01*
X-20115Y2205D02*
X-20115Y2365D01*
X-19955Y2365D01*
X-19955Y2205D01*
X-20115Y2205D01*
X-20548Y2205D02*
X-20548Y2365D01*
X-20388Y2365D01*
X-20388Y2205D01*
X-20548Y2205D01*
X-20115Y2638D02*
X-20115Y2798D01*
X-19955Y2798D01*
X-19955Y2638D01*
X-20115Y2638D01*
X-20548Y2638D02*
X-20548Y2798D01*
X-20388Y2798D01*
X-20388Y2638D01*
X-20548Y2638D01*
X-22047Y20637D02*
X-22047Y20797D01*
X-21887Y20797D01*
X-21887Y20637D01*
X-22047Y20637D01*
X-21613Y20637D02*
X-21613Y20797D01*
X-21453Y20797D01*
X-21453Y20637D01*
X-21613Y20637D01*
X-22047Y20203D02*
X-22047Y20363D01*
X-21887Y20363D01*
X-21887Y20203D01*
X-22047Y20203D01*
X-21613Y20203D02*
X-21613Y20363D01*
X-21453Y20363D01*
X-21453Y20203D01*
X-21613Y20203D01*
X-22330Y22917D02*
X-22330Y23077D01*
X-22170Y23077D01*
X-22170Y22917D01*
X-22330Y22917D01*
X21920Y21670D02*
X21920Y21830D01*
X22080Y21830D01*
X22080Y21670D01*
X21920Y21670D01*
X21417Y21670D02*
X21417Y21830D01*
X21577Y21830D01*
X21577Y21670D01*
X21417Y21670D01*
X6670Y15170D02*
X6670Y15330D01*
X6830Y15330D01*
X6830Y15170D01*
X6670Y15170D01*
X26670Y23416D02*
X26670Y23576D01*
X26830Y23576D01*
X26830Y23416D01*
X26670Y23416D01*
X10920Y24167D02*
X10920Y24327D01*
X11080Y24327D01*
X11080Y24167D01*
X10920Y24167D01*
X5920Y15174D02*
X5920Y15334D01*
X6080Y15334D01*
X6080Y15174D01*
X5920Y15174D01*
X5420Y15174D02*
X5420Y15334D01*
X5580Y15334D01*
X5580Y15174D01*
X5420Y15174D01*
X24520Y13417D02*
X24520Y13577D01*
X24680Y13577D01*
X24680Y13417D01*
X24520Y13417D01*
X20Y21070D02*
X20Y21230D01*
X180Y21230D01*
X180Y21070D01*
X20Y21070D01*
X-828Y21070D02*
X-828Y21230D01*
X-668Y21230D01*
X-668Y21070D01*
X-828Y21070D01*
X-6405Y22113D02*
X-6405Y22273D01*
X-6245Y22273D01*
X-6245Y22113D01*
X-6405Y22113D01*
X-6680Y21920D02*
X-6680Y22080D01*
X-6520Y22080D01*
X-6520Y21920D01*
X-6680Y21920D01*
X-6955Y22113D02*
X-6955Y22273D01*
X-6795Y22273D01*
X-6795Y22113D01*
X-6955Y22113D01*
X-9554Y22113D02*
X-9554Y22273D01*
X-9394Y22273D01*
X-9394Y22113D01*
X-9554Y22113D01*
X-9830Y21920D02*
X-9830Y22080D01*
X-9670Y22080D01*
X-9670Y21920D01*
X-9830Y21920D01*
X-10105Y22113D02*
X-10105Y22273D01*
X-9945Y22273D01*
X-9945Y22113D01*
X-10105Y22113D01*
X-3080Y21171D02*
X-3080Y21331D01*
X-2920Y21331D01*
X-2920Y21171D01*
X-3080Y21171D01*
X-1331Y21666D02*
X-1331Y21826D01*
X-1171Y21826D01*
X-1171Y21666D01*
X-1331Y21666D01*
X-1082Y21920D02*
X-1082Y22080D01*
X-922Y22080D01*
X-922Y21920D01*
X-1082Y21920D01*
X-6405Y21695D02*
X-6405Y21855D01*
X-6245Y21855D01*
X-6245Y21695D01*
X-6405Y21695D01*
X5952Y3655D02*
X5952Y3815D01*
X6112Y3815D01*
X6112Y3655D01*
X5952Y3655D01*
X5722Y3655D02*
X5722Y3815D01*
X5882Y3815D01*
X5882Y3655D01*
X5722Y3655D01*
X-19083Y25420D02*
X-19083Y25580D01*
X-18923Y25580D01*
X-18923Y25420D01*
X-19083Y25420D01*
X-17580Y31620D02*
X-17580Y31780D01*
X-17420Y31780D01*
X-17420Y31620D01*
X-17580Y31620D01*
X-17580Y31970D02*
X-17580Y32130D01*
X-17420Y32130D01*
X-17420Y31970D01*
X-17580Y31970D01*
X-18330Y31970D02*
X-18330Y32130D01*
X-18170Y32130D01*
X-18170Y31970D01*
X-18330Y31970D01*
X-17580Y31270D02*
X-17580Y31430D01*
X-17420Y31430D01*
X-17420Y31270D01*
X-17580Y31270D01*
X-17580Y30920D02*
X-17580Y31080D01*
X-17420Y31080D01*
X-17420Y30920D01*
X-17580Y30920D01*
X-18330Y31270D02*
X-18330Y31430D01*
X-18170Y31430D01*
X-18170Y31270D01*
X-18330Y31270D01*
X-18330Y30920D02*
X-18330Y31080D01*
X-18170Y31080D01*
X-18170Y30920D01*
X-18330Y30920D01*
X-17580Y32320D02*
X-17580Y32480D01*
X-17420Y32480D01*
X-17420Y32320D01*
X-17580Y32320D01*
X-17580Y32670D02*
X-17580Y32830D01*
X-17420Y32830D01*
X-17420Y32670D01*
X-17580Y32670D01*
X-17230Y32670D02*
X-17230Y32830D01*
X-17070Y32830D01*
X-17070Y32670D01*
X-17230Y32670D01*
X-17230Y32320D02*
X-17230Y32480D01*
X-17070Y32480D01*
X-17070Y32320D01*
X-17230Y32320D01*
X-17230Y31970D02*
X-17230Y32130D01*
X-17070Y32130D01*
X-17070Y31970D01*
X-17230Y31970D01*
X-17230Y31620D02*
X-17230Y31780D01*
X-17070Y31780D01*
X-17070Y31620D01*
X-17230Y31620D01*
X-17230Y31270D02*
X-17230Y31430D01*
X-17070Y31430D01*
X-17070Y31270D01*
X-17230Y31270D01*
X-17230Y30920D02*
X-17230Y31080D01*
X-17070Y31080D01*
X-17070Y30920D01*
X-17230Y30920D01*
X-18680Y31970D02*
X-18680Y32130D01*
X-18520Y32130D01*
X-18520Y31970D01*
X-18680Y31970D01*
X-17230Y33020D02*
X-17230Y33180D01*
X-17070Y33180D01*
X-17070Y33020D01*
X-17230Y33020D01*
X-18680Y33020D02*
X-18680Y33180D01*
X-18520Y33180D01*
X-18520Y33020D01*
X-18680Y33020D01*
X-17830Y33670D02*
X-17830Y33830D01*
X-17670Y33830D01*
X-17670Y33670D01*
X-17830Y33670D01*
X-18215Y33670D02*
X-18215Y33830D01*
X-18055Y33830D01*
X-18055Y33670D01*
X-18215Y33670D01*
X-17830Y34055D02*
X-17830Y34215D01*
X-17670Y34215D01*
X-17670Y34055D01*
X-17830Y34055D01*
X-18215Y34055D02*
X-18215Y34215D01*
X-18055Y34215D01*
X-18055Y34055D01*
X-18215Y34055D01*
X-13945Y34055D02*
X-13945Y34215D01*
X-13785Y34215D01*
X-13785Y34055D01*
X-13945Y34055D01*
X-14330Y34055D02*
X-14330Y34215D01*
X-14170Y34215D01*
X-14170Y34055D01*
X-14330Y34055D01*
X-13945Y33670D02*
X-13945Y33830D01*
X-13785Y33830D01*
X-13785Y33670D01*
X-13945Y33670D01*
X-14330Y33670D02*
X-14330Y33830D01*
X-14170Y33830D01*
X-14170Y33670D01*
X-14330Y33670D01*
X-13480Y33020D02*
X-13480Y33180D01*
X-13320Y33180D01*
X-13320Y33020D01*
X-13480Y33020D01*
X-14930Y33020D02*
X-14930Y33180D01*
X-14770Y33180D01*
X-14770Y33020D01*
X-14930Y33020D01*
X-13480Y31970D02*
X-13480Y32130D01*
X-13320Y32130D01*
X-13320Y31970D01*
X-13480Y31970D01*
X-14930Y30920D02*
X-14930Y31080D01*
X-14770Y31080D01*
X-14770Y30920D01*
X-14930Y30920D01*
X-14930Y31270D02*
X-14930Y31430D01*
X-14770Y31430D01*
X-14770Y31270D01*
X-14930Y31270D01*
X-14930Y31620D02*
X-14930Y31780D01*
X-14770Y31780D01*
X-14770Y31620D01*
X-14930Y31620D01*
X-14930Y31970D02*
X-14930Y32130D01*
X-14770Y32130D01*
X-14770Y31970D01*
X-14930Y31970D01*
X-14930Y32320D02*
X-14930Y32480D01*
X-14770Y32480D01*
X-14770Y32320D01*
X-14930Y32320D01*
X-14930Y32670D02*
X-14930Y32830D01*
X-14770Y32830D01*
X-14770Y32670D01*
X-14930Y32670D01*
X-14580Y32670D02*
X-14580Y32830D01*
X-14420Y32830D01*
X-14420Y32670D01*
X-14580Y32670D01*
X-14580Y32320D02*
X-14580Y32480D01*
X-14420Y32480D01*
X-14420Y32320D01*
X-14580Y32320D01*
X-13830Y30920D02*
X-13830Y31080D01*
X-13670Y31080D01*
X-13670Y30920D01*
X-13830Y30920D01*
X-13830Y31270D02*
X-13830Y31430D01*
X-13670Y31430D01*
X-13670Y31270D01*
X-13830Y31270D01*
X-14580Y30920D02*
X-14580Y31080D01*
X-14420Y31080D01*
X-14420Y30920D01*
X-14580Y30920D01*
X-14580Y31270D02*
X-14580Y31430D01*
X-14420Y31430D01*
X-14420Y31270D01*
X-14580Y31270D01*
X-13830Y31970D02*
X-13830Y32130D01*
X-13670Y32130D01*
X-13670Y31970D01*
X-13830Y31970D01*
X-14580Y31970D02*
X-14580Y32130D01*
X-14420Y32130D01*
X-14420Y31970D01*
X-14580Y31970D01*
X-14580Y31620D02*
X-14580Y31780D01*
X-14420Y31780D01*
X-14420Y31620D01*
X-14580Y31620D01*
X25919Y12667D02*
X25919Y12827D01*
X26079Y12827D01*
X26079Y12667D01*
X25919Y12667D01*
X24167Y12667D02*
X24167Y12827D01*
X24327Y12827D01*
X24327Y12667D01*
X24167Y12667D01*
X3613Y6027D02*
X3613Y6187D01*
X3773Y6187D01*
X3773Y6027D01*
X3613Y6027D01*
X18420Y7670D02*
X18420Y7830D01*
X18580Y7830D01*
X18580Y7670D01*
X18420Y7670D01*
X3775Y5864D02*
X3775Y6024D01*
X3935Y6024D01*
X3935Y5864D01*
X3775Y5864D01*
X18420Y7170D02*
X18420Y7330D01*
X18580Y7330D01*
X18580Y7170D01*
X18420Y7170D01*
X6906Y6984D02*
X6906Y7144D01*
X7066Y7144D01*
X7066Y6984D01*
X6906Y6984D01*
X46Y4920D02*
X46Y5080D01*
X206Y5080D01*
X206Y4920D01*
X46Y4920D01*
X-184Y4920D02*
X-184Y5080D01*
X-24Y5080D01*
X-24Y4920D01*
X-184Y4920D01*
X4758Y4849D02*
X4758Y5009D01*
X4918Y5009D01*
X4918Y4849D01*
X4758Y4849D01*
X4758Y4619D02*
X4758Y4779D01*
X4918Y4779D01*
X4918Y4619D01*
X4758Y4619D01*
X5090Y5091D02*
X5090Y5251D01*
X5250Y5251D01*
X5250Y5091D01*
X5090Y5091D01*
X5090Y5321D02*
X5090Y5481D01*
X5250Y5481D01*
X5250Y5321D01*
X5090Y5321D01*
X1014Y7772D02*
X1014Y7932D01*
X1174Y7932D01*
X1174Y7772D01*
X1014Y7772D01*
X1014Y7270D02*
X1014Y7430D01*
X1174Y7430D01*
X1174Y7270D01*
X1014Y7270D01*
X2920Y7370D02*
X2920Y7530D01*
X3080Y7530D01*
X3080Y7370D01*
X2920Y7370D01*
X2920Y7669D02*
X2920Y7829D01*
X3080Y7829D01*
X3080Y7669D01*
X2920Y7669D01*
X-1331Y28320D02*
X-1331Y28480D01*
X-1171Y28480D01*
X-1171Y28320D01*
X-1331Y28320D01*
X16420Y13167D02*
X16420Y13327D01*
X16580Y13327D01*
X16580Y13167D01*
X16420Y13167D01*
X-967Y26170D02*
X-967Y26330D01*
X-807Y26330D01*
X-807Y26170D01*
X-967Y26170D01*
X3167Y30120D02*
X3167Y30280D01*
X3327Y30280D01*
X3327Y30120D01*
X3167Y30120D01*
X214Y26170D02*
X214Y26330D01*
X374Y26330D01*
X374Y26170D01*
X214Y26170D01*
X13170Y8421D02*
X13170Y8581D01*
X13330Y8581D01*
X13330Y8421D01*
X13170Y8421D01*
X-29330Y4170D02*
X-29330Y4330D01*
X-29170Y4330D01*
X-29170Y4170D01*
X-29330Y4170D01*
X-25373Y3416D02*
X-25373Y3576D01*
X-25213Y3576D01*
X-25213Y3416D01*
X-25373Y3416D01*
X15918Y23416D02*
X15918Y23576D01*
X16078Y23576D01*
X16078Y23416D01*
X15918Y23416D01*
X15918Y24167D02*
X15918Y24327D01*
X16078Y24327D01*
X16078Y24167D01*
X15918Y24167D01*
X16170Y29170D02*
X16170Y29330D01*
X16330Y29330D01*
X16330Y29170D01*
X16170Y29170D01*
X15420Y29170D02*
X15420Y29330D01*
X15580Y29330D01*
X15580Y29170D01*
X15420Y29170D01*
X22920Y12170D02*
X22920Y12330D01*
X23080Y12330D01*
X23080Y12170D01*
X22920Y12170D01*
X22920Y13670D02*
X22920Y13830D01*
X23080Y13830D01*
X23080Y13670D01*
X22920Y13670D01*
X26420Y11570D02*
X26420Y11730D01*
X26580Y11730D01*
X26580Y11570D01*
X26420Y11570D01*
X25669Y10423D02*
X25669Y10583D01*
X25829Y10583D01*
X25829Y10423D01*
X25669Y10423D01*
X22420Y13670D02*
X22420Y13830D01*
X22580Y13830D01*
X22580Y13670D01*
X22420Y13670D01*
X24420Y10170D02*
X24420Y10330D01*
X24580Y10330D01*
X24580Y10170D01*
X24420Y10170D01*
X24919Y9920D02*
X24919Y10080D01*
X25079Y10080D01*
X25079Y9920D01*
X24919Y9920D01*
X27670Y33920D02*
X27670Y34080D01*
X27830Y34080D01*
X27830Y33920D01*
X27670Y33920D01*
X28920Y34420D02*
X28920Y34580D01*
X29080Y34580D01*
X29080Y34420D01*
X28920Y34420D01*
X-22827Y33420D02*
X-22827Y33580D01*
X-22667Y33580D01*
X-22667Y33420D01*
X-22827Y33420D01*
X-22330Y33420D02*
X-22330Y33580D01*
X-22170Y33580D01*
X-22170Y33420D01*
X-22330Y33420D01*
X-23330Y27420D02*
X-23330Y27580D01*
X-23170Y27580D01*
X-23170Y27420D01*
X-23330Y27420D01*
X-15330Y20671D02*
X-15330Y20831D01*
X-15170Y20831D01*
X-15170Y20671D01*
X-15330Y20671D01*
X-2581Y21421D02*
X-2581Y21581D01*
X-2421Y21581D01*
X-2421Y21421D01*
X-2581Y21421D01*
X15924Y12174D02*
X15924Y12334D01*
X16084Y12334D01*
X16084Y12174D01*
X15924Y12174D01*
X14670Y14420D02*
X14670Y14580D01*
X14830Y14580D01*
X14830Y14420D01*
X14670Y14420D01*
X-21880Y18920D02*
X-21880Y19080D01*
X-21720Y19080D01*
X-21720Y18920D01*
X-21880Y18920D01*
X-20579Y19171D02*
X-20579Y19331D01*
X-20419Y19331D01*
X-20419Y19171D01*
X-20579Y19171D01*
X-15827Y19670D02*
X-15827Y19830D01*
X-15667Y19830D01*
X-15667Y19670D01*
X-15827Y19670D01*
X10920Y12920D02*
X10920Y13080D01*
X11080Y13080D01*
X11080Y12920D01*
X10920Y12920D01*
X12670Y10420D02*
X12670Y10580D01*
X12830Y10580D01*
X12830Y10420D01*
X12670Y10420D01*
X11920Y11420D02*
X11920Y11580D01*
X12080Y11580D01*
X12080Y11420D01*
X11920Y11420D01*
X11170Y12673D02*
X11170Y12833D01*
X11330Y12833D01*
X11330Y12673D01*
X11170Y12673D01*
X14920Y8420D02*
X14920Y8580D01*
X15080Y8580D01*
X15080Y8420D01*
X14920Y8420D01*
X12916Y8170D02*
X12916Y8330D01*
X13076Y8330D01*
X13076Y8170D01*
X12916Y8170D01*
X-12228Y16463D02*
X-12228Y16623D01*
X-12068Y16623D01*
X-12068Y16463D01*
X-12228Y16463D01*
X-12228Y16063D02*
X-12228Y16223D01*
X-12068Y16223D01*
X-12068Y16063D01*
X-12228Y16063D01*
X24313Y4412D02*
X24313Y4572D01*
X24473Y4572D01*
X24473Y4412D01*
X24313Y4412D01*
X-11330Y14366D02*
X-11330Y14526D01*
X-11170Y14526D01*
X-11170Y14366D01*
X-11330Y14366D01*
X-16639Y2967D02*
X-16639Y3127D01*
X-16479Y3127D01*
X-16479Y2967D01*
X-16639Y2967D01*
X2870Y12153D02*
X2870Y12313D01*
X3030Y12313D01*
X3030Y12153D01*
X2870Y12153D01*
X-81Y10903D02*
X-81Y11063D01*
X79Y11063D01*
X79Y10903D01*
X-81Y10903D01*
X-10325Y4170D02*
X-10325Y4330D01*
X-10165Y4330D01*
X-10165Y4170D01*
X-10325Y4170D01*
X8920Y8755D02*
X8920Y8915D01*
X9080Y8915D01*
X9080Y8755D01*
X8920Y8755D01*
X10670Y6918D02*
X10670Y7078D01*
X10830Y7078D01*
X10830Y6918D01*
X10670Y6918D01*
X-3830Y4420D02*
X-3830Y4580D01*
X-3670Y4580D01*
X-3670Y4420D01*
X-3830Y4420D01*
X-6580Y4420D02*
X-6580Y4580D01*
X-6420Y4580D01*
X-6420Y4420D01*
X-6580Y4420D01*
X-4081Y4170D02*
X-4081Y4330D01*
X-3921Y4330D01*
X-3921Y4170D01*
X-4081Y4170D01*
X-8080Y4170D02*
X-8080Y4330D01*
X-7920Y4330D01*
X-7920Y4170D01*
X-8080Y4170D01*
X-8830Y3917D02*
X-8830Y4077D01*
X-8670Y4077D01*
X-8670Y3917D01*
X-8830Y3917D01*
X-3830Y3917D02*
X-3830Y4077D01*
X-3670Y4077D01*
X-3670Y3917D01*
X-3830Y3917D01*
X-4580Y1170D02*
X-4580Y1330D01*
X-4420Y1330D01*
X-4420Y1170D01*
X-4580Y1170D01*
X-13530Y31170D02*
X-13530Y31330D01*
X-13370Y31330D01*
X-13370Y31170D01*
X-13530Y31170D01*
X-9330Y29270D02*
X-9330Y29430D01*
X-9170Y29430D01*
X-9170Y29270D01*
X-9330Y29270D01*
X-7329Y32918D02*
X-7329Y33078D01*
X-7169Y33078D01*
X-7169Y32918D01*
X-7329Y32918D01*
X-6580Y32447D02*
X-6580Y32607D01*
X-6420Y32607D01*
X-6420Y32447D01*
X-6580Y32447D01*
X-12530Y30370D02*
X-12530Y30530D01*
X-12370Y30530D01*
X-12370Y30370D01*
X-12530Y30370D01*
X-12530Y30077D02*
X-12530Y30237D01*
X-12370Y30237D01*
X-12370Y30077D01*
X-12530Y30077D01*
X-12530Y29770D02*
X-12530Y29930D01*
X-12370Y29930D01*
X-12370Y29770D01*
X-12530Y29770D01*
X-330Y32920D02*
X-330Y33080D01*
X-170Y33080D01*
X-170Y32920D01*
X-330Y32920D01*
X-828Y32169D02*
X-828Y32329D01*
X-668Y32329D01*
X-668Y32169D01*
X-828Y32169D01*
X11920Y30170D02*
X11920Y30330D01*
X12080Y30330D01*
X12080Y30170D01*
X11920Y30170D01*
X9670Y26670D02*
X9670Y26830D01*
X9830Y26830D01*
X9830Y26670D01*
X9670Y26670D01*
X9670Y27170D02*
X9670Y27330D01*
X9830Y27330D01*
X9830Y27170D01*
X9670Y27170D01*
X9670Y27720D02*
X9670Y27880D01*
X9830Y27880D01*
X9830Y27720D01*
X9670Y27720D01*
X23920Y27920D02*
X23920Y28080D01*
X24080Y28080D01*
X24080Y27920D01*
X23920Y27920D01*
X22167Y27922D02*
X22167Y28082D01*
X22327Y28082D01*
X22327Y27922D01*
X22167Y27922D01*
X25170Y22920D02*
X25170Y23080D01*
X25330Y23080D01*
X25330Y22920D01*
X25170Y22920D01*
X14920Y29420D02*
X14920Y29580D01*
X15080Y29580D01*
X15080Y29420D01*
X14920Y29420D01*
X-5923Y22081D02*
X-5923Y22241D01*
X-5763Y22241D01*
X-5763Y22081D01*
X-5923Y22081D01*
X-21680Y19270D02*
X-21680Y19430D01*
X-21520Y19430D01*
X-21520Y19270D01*
X-21680Y19270D01*
X-20380Y20420D02*
X-20380Y20580D01*
X-20220Y20580D01*
X-20220Y20420D01*
X-20380Y20420D01*
X-23230Y20420D02*
X-23230Y20580D01*
X-23070Y20580D01*
X-23070Y20420D01*
X-23230Y20420D01*
X-19869Y26912D02*
X-19869Y27072D01*
X-19709Y27072D01*
X-19709Y26912D01*
X-19869Y26912D01*
X-19622Y27152D02*
X-19622Y27311D01*
X-19462Y27311D01*
X-19462Y27152D01*
X-19622Y27152D01*
X-20355Y26920D02*
X-20355Y27080D01*
X-20195Y27080D01*
X-20195Y26920D01*
X-20355Y26920D01*
X-20108Y27159D02*
X-20108Y27319D01*
X-19948Y27319D01*
X-19948Y27159D01*
X-20108Y27159D01*
X-20594Y27167D02*
X-20594Y27327D01*
X-20434Y27327D01*
X-20434Y27167D01*
X-20594Y27167D01*
X-21080Y27159D02*
X-21080Y27319D01*
X-20920Y27319D01*
X-20920Y27159D01*
X-21080Y27159D01*
X-20833Y26920D02*
X-20833Y27080D01*
X-20673Y27080D01*
X-20673Y26920D01*
X-20833Y26920D01*
X-28256Y18513D02*
X-28256Y18673D01*
X-28096Y18673D01*
X-28096Y18513D01*
X-28256Y18513D01*
X-30786Y15983D02*
X-30786Y16143D01*
X-30626Y16143D01*
X-30626Y15983D01*
X-30786Y15983D01*
X-31718Y16915D02*
X-31718Y17075D01*
X-31558Y17075D01*
X-31558Y16915D01*
X-31718Y16915D01*
X-30786Y21042D02*
X-30786Y21202D01*
X-30626Y21202D01*
X-30626Y21042D01*
X-30786Y21042D01*
X7170Y10070D02*
X7170Y10230D01*
X7330Y10230D01*
X7330Y10070D01*
X7170Y10070D01*
X7755Y5285D02*
X7755Y5445D01*
X7915Y5445D01*
X7915Y5285D01*
X7755Y5285D01*
X6370Y2870D02*
X6370Y3030D01*
X6530Y3030D01*
X6530Y2870D01*
X6370Y2870D01*
X5670Y2422D02*
X5670Y2582D01*
X5830Y2582D01*
X5830Y2422D01*
X5670Y2422D01*
X3670Y470D02*
X3670Y630D01*
X3830Y630D01*
X3830Y470D01*
X3670Y470D01*
X670Y4970D02*
X670Y5130D01*
X830Y5130D01*
X830Y4970D01*
X670Y4970D01*
X669Y4462D02*
X669Y4622D01*
X829Y4622D01*
X829Y4462D01*
X669Y4462D01*
X9386Y6196D02*
X9386Y6356D01*
X9546Y6356D01*
X9546Y6196D01*
X9386Y6196D01*
X9780Y6196D02*
X9780Y6356D01*
X9940Y6356D01*
X9940Y6196D01*
X9780Y6196D01*
X8481Y6196D02*
X8481Y6356D01*
X8641Y6356D01*
X8641Y6196D01*
X8481Y6196D01*
X8874Y6196D02*
X8874Y6356D01*
X9034Y6356D01*
X9034Y6196D01*
X8874Y6196D01*
X1333Y6590D02*
X1333Y6750D01*
X1493Y6750D01*
X1493Y6590D01*
X1333Y6590D01*
X1333Y5968D02*
X1333Y6128D01*
X1493Y6128D01*
X1493Y5968D01*
X1333Y5968D01*
X1961Y9320D02*
X1961Y9480D01*
X2121Y9480D01*
X2121Y9320D01*
X1961Y9320D01*
X2674Y8421D02*
X2674Y8581D01*
X2834Y8581D01*
X2834Y8421D01*
X2674Y8421D01*
X2674Y10620D02*
X2674Y10780D01*
X2834Y10780D01*
X2834Y10620D01*
X2674Y10620D01*
X2170Y10620D02*
X2170Y10780D01*
X2330Y10780D01*
X2330Y10620D01*
X2170Y10620D01*
X1670Y10620D02*
X1670Y10780D01*
X1830Y10780D01*
X1830Y10620D01*
X1670Y10620D01*
X8677Y9809D02*
X8677Y9969D01*
X8837Y9969D01*
X8837Y9809D01*
X8677Y9809D01*
X8677Y10045D02*
X8677Y10205D01*
X8837Y10205D01*
X8837Y10045D01*
X8677Y10045D01*
X13070Y2200D02*
X13070Y2360D01*
X13230Y2360D01*
X13230Y2200D01*
X13070Y2200D01*
X15920Y6920D02*
X15920Y7080D01*
X16080Y7080D01*
X16080Y6920D01*
X15920Y6920D01*
X15032Y4672D02*
X15032Y4832D01*
X15192Y4832D01*
X15192Y4672D01*
X15032Y4672D01*
X12670Y5670D02*
X12670Y5830D01*
X12830Y5830D01*
X12830Y5670D01*
X12670Y5670D01*
X15320Y8165D02*
X15320Y8325D01*
X15480Y8325D01*
X15480Y8165D01*
X15320Y8165D01*
X22423Y11170D02*
X22423Y11330D01*
X22583Y11330D01*
X22583Y11170D01*
X22423Y11170D01*
X22923Y11170D02*
X22923Y11330D01*
X23083Y11330D01*
X23083Y11170D01*
X22923Y11170D01*
X27170Y9105D02*
X27170Y9265D01*
X27330Y9265D01*
X27330Y9105D01*
X27170Y9105D01*
X26620Y9925D02*
X26620Y10085D01*
X26780Y10085D01*
X26780Y9925D01*
X26620Y9925D01*
X27420Y9925D02*
X27420Y10085D01*
X27580Y10085D01*
X27580Y9925D01*
X27420Y9925D01*
X29669Y9320D02*
X29669Y9480D01*
X29829Y9480D01*
X29829Y9320D01*
X29669Y9320D01*
X30170Y7921D02*
X30170Y8081D01*
X30330Y8081D01*
X30330Y7921D01*
X30170Y7921D01*
X29920Y8170D02*
X29920Y8330D01*
X30080Y8330D01*
X30080Y8170D01*
X29920Y8170D01*
X29170Y11670D02*
X29170Y11830D01*
X29330Y11830D01*
X29330Y11670D01*
X29170Y11670D01*
X19920Y8670D02*
X19920Y8830D01*
X20080Y8830D01*
X20080Y8670D01*
X19920Y8670D01*
X30120Y8920D02*
X30120Y9080D01*
X30280Y9080D01*
X30280Y8920D01*
X30120Y8920D01*
X-2581Y12420D02*
X-2581Y12580D01*
X-2421Y12580D01*
X-2421Y12420D01*
X-2581Y12420D01*
X14670Y11407D02*
X14670Y11567D01*
X14830Y11567D01*
X14830Y11407D01*
X14670Y11407D01*
X15170Y11420D02*
X15170Y11580D01*
X15330Y11580D01*
X15330Y11420D01*
X15170Y11420D01*
X-23180Y2420D02*
X-23180Y2580D01*
X-23020Y2580D01*
X-23020Y2420D01*
X-23180Y2420D01*
X2628Y28262D02*
X2628Y28422D01*
X2788Y28422D01*
X2788Y28262D01*
X2628Y28262D01*
X-10627Y17081D02*
X-10627Y17241D01*
X-10467Y17241D01*
X-10467Y17081D01*
X-10627Y17081D01*
X-1080Y12920D02*
X-1080Y13080D01*
X-920Y13080D01*
X-920Y12920D01*
X-1080Y12920D01*
X-1081Y11920D02*
X-1081Y12080D01*
X-921Y12080D01*
X-921Y11920D01*
X-1081Y11920D01*
X-79Y11920D02*
X-79Y12080D01*
X81Y12080D01*
X81Y11920D01*
X-79Y11920D01*
X-831Y11667D02*
X-831Y11827D01*
X-671Y11827D01*
X-671Y11667D01*
X-831Y11667D01*
X-2580Y17621D02*
X-2580Y17781D01*
X-2420Y17781D01*
X-2420Y17621D01*
X-2580Y17621D01*
X-6955Y21695D02*
X-6955Y21855D01*
X-6795Y21855D01*
X-6795Y21695D01*
X-6955Y21695D01*
X-1331Y15858D02*
X-1331Y16018D01*
X-1171Y16018D01*
X-1171Y15858D01*
X-1331Y15858D01*
X-4580Y17170D02*
X-4580Y17330D01*
X-4420Y17330D01*
X-4420Y17170D01*
X-4580Y17170D01*
X28673Y13970D02*
X28673Y14130D01*
X28833Y14130D01*
X28833Y13970D01*
X28673Y13970D01*
X28678Y19868D02*
X28678Y20028D01*
X28838Y20028D01*
X28838Y19868D01*
X28678Y19868D01*
X25725Y16915D02*
X25725Y17075D01*
X25885Y17075D01*
X25885Y16915D01*
X25725Y16915D01*
X24920Y16917D02*
X24920Y17077D01*
X25080Y17077D01*
X25080Y16917D01*
X24920Y16917D01*
X20920Y5171D02*
X20920Y5331D01*
X21080Y5331D01*
X21080Y5171D01*
X20920Y5171D01*
X26696Y7671D02*
X26696Y7831D01*
X26856Y7831D01*
X26856Y7671D01*
X26696Y7671D01*
X25570Y7670D02*
X25570Y7830D01*
X25730Y7830D01*
X25730Y7670D01*
X25570Y7670D01*
X27676Y6920D02*
X27676Y7080D01*
X27836Y7080D01*
X27836Y6920D01*
X27676Y6920D01*
X24925Y5170D02*
X24925Y5330D01*
X25085Y5330D01*
X25085Y5170D01*
X24925Y5170D01*
X25170Y4920D02*
X25170Y5080D01*
X25330Y5080D01*
X25330Y4920D01*
X25170Y4920D01*
X19170Y6670D02*
X19170Y6830D01*
X19330Y6830D01*
X19330Y6670D01*
X19170Y6670D01*
X26099Y2922D02*
X26099Y3082D01*
X26259Y3082D01*
X26259Y2922D01*
X26099Y2922D01*
X26349Y2670D02*
X26349Y2830D01*
X26509Y2830D01*
X26509Y2670D01*
X26349Y2670D01*
X26099Y2427D02*
X26099Y2587D01*
X26259Y2587D01*
X26259Y2427D01*
X26099Y2427D01*
X22170Y4170D02*
X22170Y4330D01*
X22330Y4330D01*
X22330Y4170D01*
X22170Y4170D01*
X12424Y15170D02*
X12424Y15330D01*
X12584Y15330D01*
X12584Y15170D01*
X12424Y15170D01*
X12424Y15671D02*
X12424Y15831D01*
X12584Y15831D01*
X12584Y15671D01*
X12424Y15671D01*
X12420Y16173D02*
X12420Y16333D01*
X12580Y16333D01*
X12580Y16173D01*
X12420Y16173D01*
X12420Y16670D02*
X12420Y16830D01*
X12580Y16830D01*
X12580Y16670D01*
X12420Y16670D01*
X12424Y17173D02*
X12424Y17333D01*
X12584Y17333D01*
X12584Y17173D01*
X12424Y17173D01*
X12424Y17670D02*
X12424Y17830D01*
X12584Y17830D01*
X12584Y17670D01*
X12424Y17670D01*
X12424Y18168D02*
X12424Y18328D01*
X12584Y18328D01*
X12584Y18168D01*
X12424Y18168D01*
X12424Y18670D02*
X12424Y18830D01*
X12584Y18830D01*
X12584Y18670D01*
X12424Y18670D01*
X12420Y19170D02*
X12420Y19330D01*
X12580Y19330D01*
X12580Y19170D01*
X12420Y19170D01*
X12424Y19674D02*
X12424Y19834D01*
X12584Y19834D01*
X12584Y19674D01*
X12424Y19674D01*
X12420Y20170D02*
X12420Y20330D01*
X12580Y20330D01*
X12580Y20170D01*
X12420Y20170D01*
X12424Y20671D02*
X12424Y20831D01*
X12584Y20831D01*
X12584Y20671D01*
X12424Y20671D01*
X12420Y21170D02*
X12420Y21330D01*
X12580Y21330D01*
X12580Y21170D01*
X12420Y21170D01*
X12424Y21673D02*
X12424Y21833D01*
X12584Y21833D01*
X12584Y21673D01*
X12424Y21673D01*
X12429Y22170D02*
X12429Y22330D01*
X12589Y22330D01*
X12589Y22170D01*
X12429Y22170D01*
X12420Y22670D02*
X12420Y22830D01*
X12580Y22830D01*
X12580Y22670D01*
X12420Y22670D01*
X16668Y21420D02*
X16668Y21580D01*
X16828Y21580D01*
X16828Y21420D01*
X16668Y21420D01*
X15670Y15920D02*
X15670Y16080D01*
X15830Y16080D01*
X15830Y15920D01*
X15670Y15920D01*
X14920Y15671D02*
X14920Y15831D01*
X15080Y15831D01*
X15080Y15671D01*
X14920Y15671D01*
X20170Y17168D02*
X20170Y17328D01*
X20330Y17328D01*
X20330Y17168D01*
X20170Y17168D01*
X20170Y18168D02*
X20170Y18328D01*
X20330Y18328D01*
X20330Y18168D01*
X20170Y18168D01*
X19920Y18420D02*
X19920Y18580D01*
X20080Y18580D01*
X20080Y18420D01*
X19920Y18420D01*
X21670Y18168D02*
X21670Y18328D01*
X21830Y18328D01*
X21830Y18168D01*
X21670Y18168D01*
X19920Y16925D02*
X19920Y17085D01*
X20080Y17085D01*
X20080Y16925D01*
X19920Y16925D01*
X19670Y16670D02*
X19670Y16830D01*
X19830Y16830D01*
X19830Y16670D01*
X19670Y16670D01*
X19670Y18920D02*
X19670Y19080D01*
X19830Y19080D01*
X19830Y18920D01*
X19670Y18920D01*
X19420Y19170D02*
X19420Y19330D01*
X19580Y19330D01*
X19580Y19170D01*
X19420Y19170D01*
X19420Y16417D02*
X19420Y16577D01*
X19580Y16577D01*
X19580Y16417D01*
X19420Y16417D01*
X17920Y19674D02*
X17920Y19834D01*
X18080Y19834D01*
X18080Y19674D01*
X17920Y19674D01*
X18420Y17168D02*
X18420Y17328D01*
X18580Y17328D01*
X18580Y17168D01*
X18420Y17168D01*
X17920Y17420D02*
X17920Y17580D01*
X18080Y17580D01*
X18080Y17420D01*
X17920Y17420D01*
X17670Y19923D02*
X17670Y20083D01*
X17830Y20083D01*
X17830Y19923D01*
X17670Y19923D01*
X17670Y17168D02*
X17670Y17328D01*
X17830Y17328D01*
X17830Y17168D01*
X17670Y17168D01*
X17420Y20420D02*
X17420Y20580D01*
X17580Y20580D01*
X17580Y20420D01*
X17420Y20420D01*
X17166Y20667D02*
X17166Y20827D01*
X17326Y20827D01*
X17326Y20667D01*
X17166Y20667D01*
X16920Y20923D02*
X16920Y21083D01*
X17080Y21083D01*
X17080Y20923D01*
X16920Y20923D01*
X16672Y15920D02*
X16672Y16080D01*
X16832Y16080D01*
X16832Y15920D01*
X16672Y15920D01*
X16420Y21170D02*
X16420Y21330D01*
X16580Y21330D01*
X16580Y21170D01*
X16420Y21170D01*
X16170Y21670D02*
X16170Y21830D01*
X16330Y21830D01*
X16330Y21670D01*
X16170Y21670D01*
X17166Y17170D02*
X17166Y17330D01*
X17326Y17330D01*
X17326Y17170D01*
X17166Y17170D01*
X16920Y16920D02*
X16920Y17080D01*
X17080Y17080D01*
X17080Y16920D01*
X16920Y16920D01*
X16668Y16670D02*
X16668Y16830D01*
X16828Y16830D01*
X16828Y16670D01*
X16668Y16670D01*
X16420Y16925D02*
X16420Y17085D01*
X16580Y17085D01*
X16580Y16925D01*
X16420Y16925D01*
X16170Y16670D02*
X16170Y16830D01*
X16330Y16830D01*
X16330Y16670D01*
X16170Y16670D01*
X17168Y15420D02*
X17168Y15580D01*
X17328Y15580D01*
X17328Y15420D01*
X17168Y15420D01*
X17419Y15171D02*
X17419Y15331D01*
X17579Y15331D01*
X17579Y15171D01*
X17419Y15171D01*
X21420Y16670D02*
X21420Y16830D01*
X21580Y16830D01*
X21580Y16670D01*
X21420Y16670D01*
X21167Y17680D02*
X21167Y17840D01*
X21327Y17840D01*
X21327Y17680D01*
X21167Y17680D01*
X21420Y17923D02*
X21420Y18083D01*
X21580Y18083D01*
X21580Y17923D01*
X21420Y17923D01*
X21420Y17430D02*
X21420Y17590D01*
X21580Y17590D01*
X21580Y17430D01*
X21420Y17430D01*
X22170Y17170D02*
X22170Y17330D01*
X22330Y17330D01*
X22330Y17170D01*
X22170Y17170D01*
X21920Y16910D02*
X21920Y17070D01*
X22080Y17070D01*
X22080Y16910D01*
X21920Y16910D01*
X22170Y20420D02*
X22170Y20580D01*
X22330Y20580D01*
X22330Y20420D01*
X22170Y20420D01*
X21914Y20670D02*
X21914Y20830D01*
X22074Y20830D01*
X22074Y20670D01*
X21914Y20670D01*
X-32830Y29026D02*
X-32830Y29186D01*
X-32670Y29186D01*
X-32670Y29026D01*
X-32830Y29026D01*
X15919Y15671D02*
X15919Y15831D01*
X16079Y15831D01*
X16079Y15671D01*
X15919Y15671D01*
X15420Y14170D02*
X15420Y14330D01*
X15580Y14330D01*
X15580Y14170D01*
X15420Y14170D01*
X15170Y14920D02*
X15170Y15080D01*
X15330Y15080D01*
X15330Y14920D01*
X15170Y14920D01*
X14420Y15170D02*
X14420Y15330D01*
X14580Y15330D01*
X14580Y15170D01*
X14420Y15170D01*
X14170Y15424D02*
X14170Y15584D01*
X14330Y15584D01*
X14330Y15424D01*
X14170Y15424D01*
X14175Y14417D02*
X14175Y14577D01*
X14335Y14577D01*
X14335Y14417D01*
X14175Y14417D01*
X-7330Y32420D02*
X-7330Y32580D01*
X-7170Y32580D01*
X-7170Y32420D01*
X-7330Y32420D01*
X-4081Y32670D02*
X-4081Y32830D01*
X-3921Y32830D01*
X-3921Y32670D01*
X-4081Y32670D01*
X-1830Y32920D02*
X-1830Y33080D01*
X-1670Y33080D01*
X-1670Y32920D01*
X-1830Y32920D01*
X-4582Y32670D02*
X-4582Y32830D01*
X-4422Y32830D01*
X-4422Y32670D01*
X-4582Y32670D01*
X-3081Y32672D02*
X-3081Y32832D01*
X-2921Y32832D01*
X-2921Y32672D01*
X-3081Y32672D01*
X-2081Y32672D02*
X-2081Y32832D01*
X-1921Y32832D01*
X-1921Y32672D01*
X-2081Y32672D01*
X-5180Y24920D02*
X-5180Y25080D01*
X-5020Y25080D01*
X-5020Y24920D01*
X-5180Y24920D01*
X-1081Y32420D02*
X-1081Y32580D01*
X-921Y32580D01*
X-921Y32420D01*
X-1081Y32420D01*
X-2738Y28670D02*
X-2738Y28830D01*
X-2578Y28830D01*
X-2578Y28670D01*
X-2738Y28670D01*
X1170Y32170D02*
X1170Y32330D01*
X1330Y32330D01*
X1330Y32170D01*
X1170Y32170D01*
X-1328Y30132D02*
X-1328Y30292D01*
X-1168Y30292D01*
X-1168Y30132D01*
X-1328Y30132D01*
X3167Y31070D02*
X3167Y31230D01*
X3327Y31230D01*
X3327Y31070D01*
X3167Y31070D01*
X2620Y30720D02*
X2620Y30880D01*
X2780Y30880D01*
X2780Y30720D01*
X2620Y30720D01*
X-3329Y28670D02*
X-3329Y28830D01*
X-3169Y28830D01*
X-3169Y28670D01*
X-3329Y28670D01*
X22920Y21670D02*
X22920Y21830D01*
X23080Y21830D01*
X23080Y21670D01*
X22920Y21670D01*
X-2148Y28272D02*
X-2148Y28432D01*
X-1988Y28432D01*
X-1988Y28272D01*
X-2148Y28272D01*
X-7930Y29770D02*
X-7930Y29930D01*
X-7770Y29930D01*
X-7770Y29770D01*
X-7930Y29770D01*
X-8330Y29520D02*
X-8330Y29680D01*
X-8170Y29680D01*
X-8170Y29520D01*
X-8330Y29520D01*
X-7230Y28670D02*
X-7230Y28830D01*
X-7070Y28830D01*
X-7070Y28670D01*
X-7230Y28670D01*
X7670Y31170D02*
X7670Y31330D01*
X7830Y31330D01*
X7830Y31170D01*
X7670Y31170D01*
X7420Y31420D02*
X7420Y31580D01*
X7580Y31580D01*
X7580Y31420D01*
X7420Y31420D01*
X805Y26170D02*
X805Y26330D01*
X965Y26330D01*
X965Y26170D01*
X805Y26170D01*
X6920Y28420D02*
X6920Y28580D01*
X7080Y28580D01*
X7080Y28420D01*
X6920Y28420D01*
X1986Y28172D02*
X1986Y28332D01*
X2146Y28332D01*
X2146Y28172D01*
X1986Y28172D01*
X-12580Y23670D02*
X-12580Y23830D01*
X-12420Y23830D01*
X-12420Y23670D01*
X-12580Y23670D01*
X-12830Y23920D02*
X-12830Y24080D01*
X-12670Y24080D01*
X-12670Y23920D01*
X-12830Y23920D01*
X14920Y7671D02*
X14920Y7831D01*
X15080Y7831D01*
X15080Y7671D01*
X14920Y7671D01*
X16920Y8670D02*
X16920Y8830D01*
X17080Y8830D01*
X17080Y8670D01*
X16920Y8670D01*
X12420Y8170D02*
X12420Y8330D01*
X12580Y8330D01*
X12580Y8170D01*
X12420Y8170D01*
X12170Y7921D02*
X12170Y8081D01*
X12330Y8081D01*
X12330Y7921D01*
X12170Y7921D01*
X12170Y6420D02*
X12170Y6580D01*
X12330Y6580D01*
X12330Y6420D01*
X12170Y6420D01*
X11920Y8170D02*
X11920Y8330D01*
X12080Y8330D01*
X12080Y8170D01*
X11920Y8170D01*
X11920Y6670D02*
X11920Y6830D01*
X12080Y6830D01*
X12080Y6670D01*
X11920Y6670D01*
X11670Y7920D02*
X11670Y8080D01*
X11830Y8080D01*
X11830Y7920D01*
X11670Y7920D01*
X11670Y5920D02*
X11670Y6080D01*
X11830Y6080D01*
X11830Y5920D01*
X11670Y5920D01*
X11420Y6170D02*
X11420Y6330D01*
X11580Y6330D01*
X11580Y6170D01*
X11420Y6170D01*
X11420Y8170D02*
X11420Y8330D01*
X11580Y8330D01*
X11580Y8170D01*
X11420Y8170D01*
X11166Y5670D02*
X11166Y5830D01*
X11326Y5830D01*
X11326Y5670D01*
X11166Y5670D01*
X11170Y7920D02*
X11170Y8080D01*
X11330Y8080D01*
X11330Y7920D01*
X11170Y7920D01*
X27670Y17170D02*
X27670Y17330D01*
X27830Y17330D01*
X27830Y17170D01*
X27670Y17170D01*
X27417Y16917D02*
X27417Y17077D01*
X27577Y17077D01*
X27577Y16917D01*
X27417Y16917D01*
X27417Y18168D02*
X27417Y18328D01*
X27577Y18328D01*
X27577Y18168D01*
X27417Y18168D01*
X27670Y18420D02*
X27670Y18580D01*
X27830Y18580D01*
X27830Y18420D01*
X27670Y18420D01*
X28917Y18420D02*
X28917Y18580D01*
X29077Y18580D01*
X29077Y18420D01*
X28917Y18420D01*
X29170Y18670D02*
X29170Y18830D01*
X29330Y18830D01*
X29330Y18670D01*
X29170Y18670D01*
X25920Y20170D02*
X25920Y20330D01*
X26080Y20330D01*
X26080Y20170D01*
X25920Y20170D01*
X24670Y20420D02*
X24670Y20580D01*
X24830Y20580D01*
X24830Y20420D01*
X24670Y20420D01*
X24923Y20173D02*
X24923Y20333D01*
X25083Y20333D01*
X25083Y20173D01*
X24923Y20173D01*
X24170Y22170D02*
X24170Y22330D01*
X24330Y22330D01*
X24330Y22170D01*
X24170Y22170D01*
X24419Y22420D02*
X24419Y22580D01*
X24579Y22580D01*
X24579Y22420D01*
X24419Y22420D01*
X22670Y21920D02*
X22670Y22080D01*
X22830Y22080D01*
X22830Y21920D01*
X22670Y21920D01*
X27670Y19170D02*
X27670Y19330D01*
X27830Y19330D01*
X27830Y19170D01*
X27670Y19170D01*
X26920Y16920D02*
X26920Y17080D01*
X27080Y17080D01*
X27080Y16920D01*
X26920Y16920D01*
X25920Y13917D02*
X25920Y14077D01*
X26080Y14077D01*
X26080Y13917D01*
X25920Y13917D01*
X26170Y14924D02*
X26170Y15084D01*
X26330Y15084D01*
X26330Y14924D01*
X26170Y14924D01*
X26420Y14670D02*
X26420Y14830D01*
X26580Y14830D01*
X26580Y14670D01*
X26420Y14670D01*
X26670Y14420D02*
X26670Y14580D01*
X26830Y14580D01*
X26830Y14420D01*
X26670Y14420D01*
X26920Y14168D02*
X26920Y14328D01*
X27080Y14328D01*
X27080Y14168D01*
X26920Y14168D01*
X26170Y16670D02*
X26170Y16830D01*
X26330Y16830D01*
X26330Y16670D01*
X26170Y16670D01*
X17670Y15420D02*
X17670Y15580D01*
X17830Y15580D01*
X17830Y15420D01*
X17670Y15420D01*
X16420Y14170D02*
X16420Y14330D01*
X16580Y14330D01*
X16580Y14170D01*
X16420Y14170D01*
X18420Y6170D02*
X18420Y6330D01*
X18580Y6330D01*
X18580Y6170D01*
X18420Y6170D01*
X-6830Y28820D02*
X-6830Y28980D01*
X-6670Y28980D01*
X-6670Y28820D01*
X-6830Y28820D01*
X-8643Y28576D02*
X-8643Y28736D01*
X-8483Y28736D01*
X-8483Y28576D01*
X-8643Y28576D01*
X-22580Y22670D02*
X-22580Y22830D01*
X-22420Y22830D01*
X-22420Y22670D01*
X-22580Y22670D01*
X8920Y29920D02*
X8920Y30080D01*
X9080Y30080D01*
X9080Y29920D01*
X8920Y29920D01*
X12670Y29920D02*
X12670Y30080D01*
X12830Y30080D01*
X12830Y29920D01*
X12670Y29920D01*
X14420Y28172D02*
X14420Y28332D01*
X14580Y28332D01*
X14580Y28172D01*
X14420Y28172D01*
X9170Y29670D02*
X9170Y29830D01*
X9330Y29830D01*
X9330Y29670D01*
X9170Y29670D01*
X14170Y27922D02*
X14170Y28082D01*
X14330Y28082D01*
X14330Y27922D01*
X14170Y27922D01*
X12420Y29670D02*
X12420Y29830D01*
X12580Y29830D01*
X12580Y29670D01*
X12420Y29670D01*
X10170Y33170D02*
X10170Y33330D01*
X10330Y33330D01*
X10330Y33170D01*
X10170Y33170D01*
X10170Y32670D02*
X10170Y32830D01*
X10330Y32830D01*
X10330Y32670D01*
X10170Y32670D01*
X10420Y32920D02*
X10420Y33080D01*
X10580Y33080D01*
X10580Y32920D01*
X10420Y32920D01*
X29669Y7415D02*
X29669Y7575D01*
X29829Y7575D01*
X29829Y7415D01*
X29669Y7415D01*
X29920Y7670D02*
X29920Y7830D01*
X30080Y7830D01*
X30080Y7670D01*
X29920Y7670D01*
X27420Y4916D02*
X27420Y5076D01*
X27580Y5076D01*
X27580Y4916D01*
X27420Y4916D01*
X27670Y4670D02*
X27670Y4830D01*
X27830Y4830D01*
X27830Y4670D01*
X27670Y4670D01*
X28170Y4670D02*
X28170Y4830D01*
X28330Y4830D01*
X28330Y4670D01*
X28170Y4670D01*
X28417Y4920D02*
X28417Y5080D01*
X28577Y5080D01*
X28577Y4920D01*
X28417Y4920D01*
X23917Y23170D02*
X23917Y23330D01*
X24077Y23330D01*
X24077Y23170D01*
X23917Y23170D01*
X23920Y23667D02*
X23920Y23827D01*
X24080Y23827D01*
X24080Y23667D01*
X23920Y23667D01*
X23670Y23920D02*
X23670Y24080D01*
X23830Y24080D01*
X23830Y23920D01*
X23670Y23920D01*
X22670Y23420D02*
X22670Y23580D01*
X22830Y23580D01*
X22830Y23420D01*
X22670Y23420D01*
X23670Y23420D02*
X23670Y23580D01*
X23830Y23580D01*
X23830Y23420D01*
X23670Y23420D01*
X23917Y25170D02*
X23917Y25330D01*
X24077Y25330D01*
X24077Y25170D01*
X23917Y25170D01*
X23670Y25920D02*
X23670Y26080D01*
X23830Y26080D01*
X23830Y25920D01*
X23670Y25920D01*
X23470Y26270D02*
X23470Y26430D01*
X23630Y26430D01*
X23630Y26270D01*
X23470Y26270D01*
X23170Y26670D02*
X23170Y26830D01*
X23330Y26830D01*
X23330Y26670D01*
X23170Y26670D01*
X23920Y25670D02*
X23920Y25830D01*
X24080Y25830D01*
X24080Y25670D01*
X23920Y25670D01*
X23670Y25420D02*
X23670Y25580D01*
X23830Y25580D01*
X23830Y25420D01*
X23670Y25420D01*
X22421Y27670D02*
X22421Y27830D01*
X22581Y27830D01*
X22581Y27670D01*
X22421Y27670D01*
X27170Y24420D02*
X27170Y24580D01*
X27330Y24580D01*
X27330Y24420D01*
X27170Y24420D01*
X20920Y24920D02*
X20920Y25080D01*
X21080Y25080D01*
X21080Y24920D01*
X20920Y24920D01*
X27170Y23920D02*
X27170Y24080D01*
X27330Y24080D01*
X27330Y23920D01*
X27170Y23920D01*
X27420Y24170D02*
X27420Y24330D01*
X27580Y24330D01*
X27580Y24170D01*
X27420Y24170D01*
X27420Y24670D02*
X27420Y24830D01*
X27580Y24830D01*
X27580Y24670D01*
X27420Y24670D01*
X27170Y24920D02*
X27170Y25080D01*
X27330Y25080D01*
X27330Y24920D01*
X27170Y24920D01*
X27170Y25420D02*
X27170Y25580D01*
X27330Y25580D01*
X27330Y25420D01*
X27170Y25420D01*
X27420Y25670D02*
X27420Y25830D01*
X27580Y25830D01*
X27580Y25670D01*
X27420Y25670D01*
X27170Y25920D02*
X27170Y26080D01*
X27330Y26080D01*
X27330Y25920D01*
X27170Y25920D01*
X27420Y26170D02*
X27420Y26330D01*
X27580Y26330D01*
X27580Y26170D01*
X27420Y26170D01*
X27170Y26420D02*
X27170Y26580D01*
X27330Y26580D01*
X27330Y26420D01*
X27170Y26420D01*
X27420Y26670D02*
X27420Y26830D01*
X27580Y26830D01*
X27580Y26670D01*
X27420Y26670D01*
X27170Y26922D02*
X27170Y27082D01*
X27330Y27082D01*
X27330Y26922D01*
X27170Y26922D01*
X27420Y27170D02*
X27420Y27330D01*
X27580Y27330D01*
X27580Y27170D01*
X27420Y27170D01*
X-14830Y20420D02*
X-14830Y20580D01*
X-14670Y20580D01*
X-14670Y20420D01*
X-14830Y20420D01*
X29420Y12922D02*
X29420Y13082D01*
X29580Y13082D01*
X29580Y12922D01*
X29420Y12922D01*
X28917Y12920D02*
X28917Y13080D01*
X29077Y13080D01*
X29077Y12920D01*
X28917Y12920D01*
X30920Y6670D02*
X30920Y6830D01*
X31080Y6830D01*
X31080Y6670D01*
X30920Y6670D01*
X30672Y6920D02*
X30672Y7080D01*
X30832Y7080D01*
X30832Y6920D01*
X30672Y6920D01*
X30173Y1916D02*
X30173Y2076D01*
X30333Y2076D01*
X30333Y1916D01*
X30173Y1916D01*
X29920Y2163D02*
X29920Y2323D01*
X30080Y2323D01*
X30080Y2163D01*
X29920Y2163D01*
X30170Y2420D02*
X30170Y2580D01*
X30330Y2580D01*
X30330Y2420D01*
X30170Y2420D01*
X29920Y2670D02*
X29920Y2830D01*
X30080Y2830D01*
X30080Y2670D01*
X29920Y2670D01*
X30170Y2921D02*
X30170Y3081D01*
X30330Y3081D01*
X30330Y2921D01*
X30170Y2921D01*
X29920Y3170D02*
X29920Y3330D01*
X30080Y3330D01*
X30080Y3170D01*
X29920Y3170D01*
X30170Y3420D02*
X30170Y3580D01*
X30330Y3580D01*
X30330Y3420D01*
X30170Y3420D01*
X28170Y2170D02*
X28170Y2330D01*
X28330Y2330D01*
X28330Y2170D01*
X28170Y2170D01*
X28420Y2420D02*
X28420Y2580D01*
X28580Y2580D01*
X28580Y2420D01*
X28420Y2420D01*
X28170Y2670D02*
X28170Y2830D01*
X28330Y2830D01*
X28330Y2670D01*
X28170Y2670D01*
X28420Y2920D02*
X28420Y3080D01*
X28580Y3080D01*
X28580Y2920D01*
X28420Y2920D01*
X28170Y3171D02*
X28170Y3331D01*
X28330Y3331D01*
X28330Y3171D01*
X28170Y3171D01*
X28417Y3420D02*
X28417Y3580D01*
X28577Y3580D01*
X28577Y3420D01*
X28417Y3420D01*
X28170Y3671D02*
X28170Y3831D01*
X28330Y3831D01*
X28330Y3671D01*
X28170Y3671D01*
X28420Y3920D02*
X28420Y4080D01*
X28580Y4080D01*
X28580Y3920D01*
X28420Y3920D01*
X28170Y4170D02*
X28170Y4330D01*
X28330Y4330D01*
X28330Y4170D01*
X28170Y4170D01*
X29670Y6920D02*
X29670Y7080D01*
X29830Y7080D01*
X29830Y6920D01*
X29670Y6920D01*
X29920Y7170D02*
X29920Y7330D01*
X30080Y7330D01*
X30080Y7170D01*
X29920Y7170D01*
X27927Y4920D02*
X27927Y5080D01*
X28087Y5080D01*
X28087Y4920D01*
X27927Y4920D01*
X28417Y4420D02*
X28417Y4580D01*
X28577Y4580D01*
X28577Y4420D01*
X28417Y4420D01*
X19420Y6420D02*
X19420Y6580D01*
X19580Y6580D01*
X19580Y6420D01*
X19420Y6420D01*
X19670Y6170D02*
X19670Y6330D01*
X19830Y6330D01*
X19830Y6170D01*
X19670Y6170D01*
X20420Y6920D02*
X20420Y7080D01*
X20580Y7080D01*
X20580Y6920D01*
X20420Y6920D01*
X20670Y6670D02*
X20670Y6830D01*
X20830Y6830D01*
X20830Y6670D01*
X20670Y6670D01*
X20920Y6920D02*
X20920Y7080D01*
X21080Y7080D01*
X21080Y6920D01*
X20920Y6920D01*
X21420Y6920D02*
X21420Y7080D01*
X21580Y7080D01*
X21580Y6920D01*
X21420Y6920D01*
X21670Y6670D02*
X21670Y6830D01*
X21830Y6830D01*
X21830Y6670D01*
X21670Y6670D01*
X21920Y6920D02*
X21920Y7080D01*
X22080Y7080D01*
X22080Y6920D01*
X21920Y6920D01*
X29420Y11420D02*
X29420Y11580D01*
X29580Y11580D01*
X29580Y11420D01*
X29420Y11420D01*
X27920Y11917D02*
X27920Y12077D01*
X28080Y12077D01*
X28080Y11917D01*
X27920Y11917D01*
X29827Y12170D02*
X29827Y12330D01*
X29987Y12330D01*
X29987Y12170D01*
X29827Y12170D01*
X21949Y1770D02*
X21949Y1930D01*
X22109Y1930D01*
X22109Y1770D01*
X21949Y1770D01*
X19920Y8170D02*
X19920Y8330D01*
X20080Y8330D01*
X20080Y8170D01*
X19920Y8170D01*
X20420Y8170D02*
X20420Y8330D01*
X20580Y8330D01*
X20580Y8170D01*
X20420Y8170D01*
X19920Y13170D02*
X19920Y13330D01*
X20080Y13330D01*
X20080Y13170D01*
X19920Y13170D01*
X20420Y13170D02*
X20420Y13330D01*
X20580Y13330D01*
X20580Y13170D01*
X20420Y13170D01*
X20920Y13170D02*
X20920Y13330D01*
X21080Y13330D01*
X21080Y13170D01*
X20920Y13170D01*
X21420Y13170D02*
X21420Y13330D01*
X21580Y13330D01*
X21580Y13170D01*
X21420Y13170D01*
X23670Y2420D02*
X23670Y2580D01*
X23830Y2580D01*
X23830Y2420D01*
X23670Y2420D01*
X23920Y3170D02*
X23920Y3330D01*
X24080Y3330D01*
X24080Y3170D01*
X23920Y3170D01*
X24170Y16920D02*
X24170Y17080D01*
X24330Y17080D01*
X24330Y16920D01*
X24170Y16920D01*
X-19832Y18420D02*
X-19832Y18580D01*
X-19672Y18580D01*
X-19672Y18420D01*
X-19832Y18420D01*
X23920Y2670D02*
X23920Y2830D01*
X24080Y2830D01*
X24080Y2670D01*
X23920Y2670D01*
X24170Y2921D02*
X24170Y3081D01*
X24330Y3081D01*
X24330Y2921D01*
X24170Y2921D01*
X24420Y2670D02*
X24420Y2830D01*
X24580Y2830D01*
X24580Y2670D01*
X24420Y2670D01*
X12670Y7921D02*
X12670Y8081D01*
X12830Y8081D01*
X12830Y7921D01*
X12670Y7921D01*
X9170Y11320D02*
X9170Y11480D01*
X9330Y11480D01*
X9330Y11320D01*
X9170Y11320D01*
X14170Y11920D02*
X14170Y12080D01*
X14330Y12080D01*
X14330Y11920D01*
X14170Y11920D01*
X9170Y10920D02*
X9170Y11080D01*
X9330Y11080D01*
X9330Y10920D01*
X9170Y10920D01*
X16920Y6920D02*
X16920Y7080D01*
X17080Y7080D01*
X17080Y6920D01*
X16920Y6920D01*
X17920Y6920D02*
X17920Y7080D01*
X18080Y7080D01*
X18080Y6920D01*
X17920Y6920D01*
X22421Y4420D02*
X22421Y4580D01*
X22581Y4580D01*
X22581Y4420D01*
X22421Y4420D01*
X170Y11667D02*
X170Y11827D01*
X330Y11827D01*
X330Y11667D01*
X170Y11667D01*
X-19080Y23420D02*
X-19080Y23580D01*
X-18920Y23580D01*
X-18920Y23420D01*
X-19080Y23420D01*
X-19830Y24420D02*
X-19830Y24580D01*
X-19670Y24580D01*
X-19670Y24420D01*
X-19830Y24420D01*
X-21830Y24026D02*
X-21830Y24186D01*
X-21670Y24186D01*
X-21670Y24026D01*
X-21830Y24026D01*
X-20080Y24670D02*
X-20080Y24830D01*
X-19920Y24830D01*
X-19920Y24670D01*
X-20080Y24670D01*
X-22330Y24023D02*
X-22330Y24183D01*
X-22170Y24183D01*
X-22170Y24023D01*
X-22330Y24023D01*
X-22830Y24026D02*
X-22830Y24186D01*
X-22670Y24186D01*
X-22670Y24026D01*
X-22830Y24026D01*
X-19580Y23420D02*
X-19580Y23580D01*
X-19420Y23580D01*
X-19420Y23420D01*
X-19580Y23420D01*
X-21331Y24026D02*
X-21331Y24186D01*
X-21171Y24186D01*
X-21171Y24026D01*
X-21331Y24026D01*
X-23830Y24023D02*
X-23830Y24183D01*
X-23670Y24183D01*
X-23670Y24023D01*
X-23830Y24023D01*
X19305Y32920D02*
X19305Y33080D01*
X19465Y33080D01*
X19465Y32920D01*
X19305Y32920D01*
X20485Y32920D02*
X20485Y33080D01*
X20645Y33080D01*
X20645Y32920D01*
X20485Y32920D01*
X-17330Y20670D02*
X-17330Y20830D01*
X-17170Y20830D01*
X-17170Y20670D01*
X-17330Y20670D01*
X-18816Y21420D02*
X-18816Y21580D01*
X-18656Y21580D01*
X-18656Y21420D01*
X-18816Y21420D01*
X-7580Y33170D02*
X-7580Y33330D01*
X-7420Y33330D01*
X-7420Y33170D01*
X-7580Y33170D01*
X-7830Y33420D02*
X-7830Y33580D01*
X-7670Y33580D01*
X-7670Y33420D01*
X-7830Y33420D01*
X-8080Y33670D02*
X-8080Y33830D01*
X-7920Y33830D01*
X-7920Y33670D01*
X-8080Y33670D01*
X-8330Y33920D02*
X-8330Y34080D01*
X-8170Y34080D01*
X-8170Y33920D01*
X-8330Y33920D01*
X-3581Y32670D02*
X-3581Y32830D01*
X-3421Y32830D01*
X-3421Y32670D01*
X-3581Y32670D01*
X-2581Y32670D02*
X-2581Y32830D01*
X-2421Y32830D01*
X-2421Y32670D01*
X-2581Y32670D01*
X-1581Y32670D02*
X-1581Y32830D01*
X-1421Y32830D01*
X-1421Y32670D01*
X-1581Y32670D01*
X9420Y29420D02*
X9420Y29580D01*
X9580Y29580D01*
X9580Y29420D01*
X9420Y29420D01*
X-14080Y29634D02*
X-14080Y29794D01*
X-13920Y29794D01*
X-13920Y29634D01*
X-14080Y29634D01*
X8857Y8270D02*
X8857Y8430D01*
X9017Y8430D01*
X9017Y8270D01*
X8857Y8270D01*
X20170Y30170D02*
X20170Y30330D01*
X20330Y30330D01*
X20330Y30170D01*
X20170Y30170D01*
X19920Y30920D02*
X19920Y31080D01*
X20080Y31080D01*
X20080Y30920D01*
X19920Y30920D01*
X28170Y12170D02*
X28170Y12330D01*
X28330Y12330D01*
X28330Y12170D01*
X28170Y12170D01*
X-9530Y28870D02*
X-9530Y29030D01*
X-9370Y29030D01*
X-9370Y28870D01*
X-9530Y28870D01*
X-9299Y28606D02*
X-9299Y28766D01*
X-9140Y28766D01*
X-9140Y28606D01*
X-9299Y28606D01*
X-9080Y28870D02*
X-9080Y29030D01*
X-8920Y29030D01*
X-8920Y28870D01*
X-9080Y28870D01*
X12920Y30920D02*
X12920Y31080D01*
X13080Y31080D01*
X13080Y30920D01*
X12920Y30920D01*
X13170Y30670D02*
X13170Y30830D01*
X13330Y30830D01*
X13330Y30670D01*
X13170Y30670D01*
X13420Y30420D02*
X13420Y30580D01*
X13580Y30580D01*
X13580Y30420D01*
X13420Y30420D01*
X13670Y30170D02*
X13670Y30330D01*
X13830Y30330D01*
X13830Y30170D01*
X13670Y30170D01*
X20170Y30670D02*
X20170Y30830D01*
X20330Y30830D01*
X20330Y30670D01*
X20170Y30670D01*
X19917Y30420D02*
X19917Y30580D01*
X20077Y30580D01*
X20077Y30420D01*
X19917Y30420D01*
X24925Y420D02*
X24925Y580D01*
X25085Y580D01*
X25085Y420D01*
X24925Y420D01*
X24670Y670D02*
X24670Y830D01*
X24830Y830D01*
X24830Y670D01*
X24670Y670D01*
X-19330Y25649D02*
X-19330Y25809D01*
X-19170Y25809D01*
X-19170Y25649D01*
X-19330Y25649D01*
X-21131Y25134D02*
X-21131Y25294D01*
X-20971Y25294D01*
X-20971Y25134D01*
X-21131Y25134D01*
X-21530Y25134D02*
X-21530Y25294D01*
X-21370Y25294D01*
X-21370Y25134D01*
X-21530Y25134D01*
X-20131Y25134D02*
X-20131Y25294D01*
X-19971Y25294D01*
X-19971Y25134D01*
X-20131Y25134D01*
X-20530Y25134D02*
X-20530Y25294D01*
X-20370Y25294D01*
X-20370Y25134D01*
X-20530Y25134D01*
X23170Y34170D02*
X23170Y34330D01*
X23330Y34330D01*
X23330Y34170D01*
X23170Y34170D01*
X22170Y34170D02*
X22170Y34330D01*
X22330Y34330D01*
X22330Y34170D01*
X22170Y34170D01*
X18420Y29670D02*
X18420Y29830D01*
X18580Y29830D01*
X18580Y29670D01*
X18420Y29670D01*
X25184Y33440D02*
X25184Y33600D01*
X25344Y33600D01*
X25344Y33440D01*
X25184Y33440D01*
X-26497Y32940D02*
X-26497Y33100D01*
X-26337Y33100D01*
X-26337Y32940D01*
X-26497Y32940D01*
X27851Y33420D02*
X27851Y33580D01*
X28011Y33580D01*
X28011Y33420D01*
X27851Y33420D01*
X17168Y27922D02*
X17168Y28082D01*
X17328Y28082D01*
X17328Y27922D01*
X17168Y27922D01*
X19918Y27922D02*
X19918Y28082D01*
X20078Y28082D01*
X20078Y27922D01*
X19918Y27922D01*
X-30135Y27873D02*
X-30135Y28033D01*
X-29975Y28033D01*
X-29975Y27873D01*
X-30135Y27873D01*
X-30135Y29447D02*
X-30135Y29607D01*
X-29975Y29607D01*
X-29975Y29447D01*
X-30135Y29447D01*
X-26080Y13173D02*
X-26080Y13333D01*
X-25920Y13333D01*
X-25920Y13173D01*
X-26080Y13173D01*
X-24080Y13173D02*
X-24080Y13333D01*
X-23920Y13333D01*
X-23920Y13173D01*
X-24080Y13173D01*
X29669Y11170D02*
X29669Y11330D01*
X29829Y11330D01*
X29829Y11170D01*
X29669Y11170D01*
X28773Y12173D02*
X28773Y12333D01*
X28933Y12333D01*
X28933Y12173D01*
X28773Y12173D01*
X32656Y8170D02*
X32656Y8330D01*
X32816Y8330D01*
X32816Y8170D01*
X32656Y8170D01*
X28927Y10670D02*
X28927Y10830D01*
X29087Y10830D01*
X29087Y10670D01*
X28927Y10670D01*
X18924Y4927D02*
X18924Y5087D01*
X19084Y5087D01*
X19084Y4927D01*
X18924Y4927D01*
X25919Y16170D02*
X25919Y16330D01*
X26079Y16330D01*
X26079Y16170D01*
X25919Y16170D01*
X25669Y16417D02*
X25669Y16577D01*
X25829Y16577D01*
X25829Y16417D01*
X25669Y16417D01*
X26670Y15920D02*
X26670Y16080D01*
X26830Y16080D01*
X26830Y15920D01*
X26670Y15920D01*
X26420Y16170D02*
X26420Y16330D01*
X26580Y16330D01*
X26580Y16170D01*
X26420Y16170D01*
X26670Y16420D02*
X26670Y16580D01*
X26830Y16580D01*
X26830Y16420D01*
X26670Y16420D01*
X22170Y16670D02*
X22170Y16830D01*
X22330Y16830D01*
X22330Y16670D01*
X22170Y16670D01*
X24170Y15179D02*
X24170Y15339D01*
X24330Y15339D01*
X24330Y15179D01*
X24170Y15179D01*
X25420Y15187D02*
X25420Y15347D01*
X25580Y15347D01*
X25580Y15187D01*
X25420Y15187D01*
X19420Y8671D02*
X19420Y8831D01*
X19580Y8831D01*
X19580Y8671D01*
X19420Y8671D01*
X32988Y13170D02*
X32988Y13330D01*
X33148Y13330D01*
X33148Y13170D01*
X32988Y13170D01*
X32988Y12170D02*
X32988Y12330D01*
X33148Y12330D01*
X33148Y12170D01*
X32988Y12170D01*
X32988Y11670D02*
X32988Y11830D01*
X33148Y11830D01*
X33148Y11670D01*
X32988Y11670D01*
X32988Y11170D02*
X32988Y11330D01*
X33148Y11330D01*
X33148Y11170D01*
X32988Y11170D01*
X32988Y10170D02*
X32988Y10330D01*
X33148Y10330D01*
X33148Y10170D01*
X32988Y10170D01*
X32988Y9170D02*
X32988Y9330D01*
X33148Y9330D01*
X33148Y9170D01*
X32988Y9170D01*
X-5080Y24167D02*
X-5080Y24327D01*
X-4920Y24327D01*
X-4920Y24167D01*
X-5080Y24167D01*
X-15830Y21670D02*
X-15830Y21830D01*
X-15670Y21830D01*
X-15670Y21670D01*
X-15830Y21670D01*
X-8411Y22089D02*
X-8411Y22249D01*
X-8251Y22249D01*
X-8251Y22089D01*
X-8411Y22089D01*
X-7891Y22081D02*
X-7891Y22241D01*
X-7731Y22241D01*
X-7731Y22081D01*
X-7891Y22081D01*
X-11202Y22170D02*
X-11202Y22330D01*
X-11042Y22330D01*
X-11042Y22170D01*
X-11202Y22170D01*
X-12580Y22170D02*
X-12580Y22330D01*
X-12420Y22330D01*
X-12420Y22170D01*
X-12580Y22170D01*
X-10105Y21695D02*
X-10105Y21855D01*
X-9945Y21855D01*
X-9945Y21695D01*
X-10105Y21695D01*
X-9554Y21695D02*
X-9554Y21855D01*
X-9394Y21855D01*
X-9394Y21695D01*
X-9554Y21695D01*
X1419Y18015D02*
X1419Y18175D01*
X1579Y18175D01*
X1579Y18015D01*
X1419Y18015D01*
X2822Y16170D02*
X2822Y16330D01*
X2982Y16330D01*
X2982Y16170D01*
X2822Y16170D01*
X-581Y18170D02*
X-581Y18330D01*
X-421Y18330D01*
X-421Y18170D01*
X-581Y18170D01*
X295Y18094D02*
X295Y18254D01*
X455Y18254D01*
X455Y18094D01*
X295Y18094D01*
X-831Y15920D02*
X-831Y16080D01*
X-671Y16080D01*
X-671Y15920D01*
X-831Y15920D01*
X20032Y1771D02*
X20032Y1931D01*
X20192Y1931D01*
X20192Y1771D01*
X20032Y1771D01*
X22420Y3420D02*
X22420Y3580D01*
X22580Y3580D01*
X22580Y3420D01*
X22420Y3420D01*
X24670Y2821D02*
X24670Y2981D01*
X24830Y2981D01*
X24830Y2821D01*
X24670Y2821D01*
X22169Y3670D02*
X22169Y3830D01*
X22329Y3830D01*
X22329Y3670D01*
X22169Y3670D01*
X19314Y25920D02*
X19314Y26080D01*
X19474Y26080D01*
X19474Y25920D01*
X19314Y25920D01*
X20420Y25920D02*
X20420Y26080D01*
X20580Y26080D01*
X20580Y25920D01*
X20420Y25920D01*
X22170Y25920D02*
X22170Y26080D01*
X22330Y26080D01*
X22330Y25920D01*
X22170Y25920D01*
X21064Y25920D02*
X21064Y26080D01*
X21224Y26080D01*
X21224Y25920D01*
X21064Y25920D01*
X19314Y23520D02*
X19314Y23680D01*
X19474Y23680D01*
X19474Y23520D01*
X19314Y23520D01*
X20419Y23520D02*
X20419Y23680D01*
X20579Y23680D01*
X20579Y23520D01*
X20419Y23520D01*
X21064Y23520D02*
X21064Y23680D01*
X21224Y23680D01*
X21224Y23520D01*
X21064Y23520D01*
X22170Y23520D02*
X22170Y23680D01*
X22330Y23680D01*
X22330Y23520D01*
X22170Y23520D01*
X-19997Y120D02*
X-19997Y280D01*
X-19837Y280D01*
X-19837Y120D01*
X-19997Y120D01*
X-18830Y176D02*
X-18830Y336D01*
X-18670Y336D01*
X-18670Y176D01*
X-18830Y176D01*
X-19330Y159D02*
X-19330Y319D01*
X-19170Y319D01*
X-19170Y159D01*
X-19330Y159D01*
X-21080Y470D02*
X-21080Y630D01*
X-20920Y630D01*
X-20920Y470D01*
X-21080Y470D01*
X-22580Y26420D02*
X-22580Y26580D01*
X-22420Y26580D01*
X-22420Y26420D01*
X-22580Y26420D01*
X-22830Y27420D02*
X-22830Y27580D01*
X-22670Y27580D01*
X-22670Y27420D01*
X-22830Y27420D01*
X-20580Y19670D02*
X-20580Y19830D01*
X-20420Y19830D01*
X-20420Y19670D01*
X-20580Y19670D01*
X1070Y8420D02*
X1070Y8580D01*
X1230Y8580D01*
X1230Y8420D01*
X1070Y8420D01*
X-14733Y3888D02*
X-14733Y4048D01*
X-14573Y4048D01*
X-14573Y3888D01*
X-14733Y3888D01*
X-14482Y3637D02*
X-14482Y3797D01*
X-14322Y3797D01*
X-14322Y3637D01*
X-14482Y3637D01*
X-14231Y3888D02*
X-14231Y4048D01*
X-14071Y4048D01*
X-14071Y3888D01*
X-14231Y3888D01*
X-15080Y926D02*
X-15080Y1086D01*
X-14920Y1086D01*
X-14920Y926D01*
X-15080Y926D01*
X-10880Y3667D02*
X-10880Y3827D01*
X-10720Y3827D01*
X-10720Y3667D01*
X-10880Y3667D01*
X-9880Y3672D02*
X-9880Y3832D01*
X-9720Y3832D01*
X-9720Y3672D01*
X-9880Y3672D01*
X-20529Y4170D02*
X-20529Y4330D01*
X-20369Y4330D01*
X-20369Y4170D01*
X-20529Y4170D01*
X-20980Y3920D02*
X-20980Y4080D01*
X-20820Y4080D01*
X-20820Y3920D01*
X-20980Y3920D01*
X-20332Y4420D02*
X-20332Y4580D01*
X-20172Y4580D01*
X-20172Y4420D01*
X-20332Y4420D01*
X-20332Y3920D02*
X-20332Y4080D01*
X-20172Y4080D01*
X-20172Y3920D01*
X-20332Y3920D01*
X-20830Y4170D02*
X-20830Y4330D01*
X-20670Y4330D01*
X-20670Y4170D01*
X-20830Y4170D01*
X-21330Y4770D02*
X-21330Y4930D01*
X-21170Y4930D01*
X-21170Y4770D01*
X-21330Y4770D01*
X-21999Y4770D02*
X-21999Y4930D01*
X-21839Y4930D01*
X-21839Y4770D01*
X-21999Y4770D01*
X-22780Y3689D02*
X-22780Y3849D01*
X-22620Y3849D01*
X-22620Y3689D01*
X-22780Y3689D01*
X-22780Y3020D02*
X-22780Y3180D01*
X-22620Y3180D01*
X-22620Y3020D01*
X-22780Y3020D01*
X-32860Y3420D02*
X-32860Y3580D01*
X-32700Y3580D01*
X-32700Y3420D01*
X-32860Y3420D01*
X-32860Y4170D02*
X-32860Y4330D01*
X-32700Y4330D01*
X-32700Y4170D01*
X-32860Y4170D01*
X-26080Y6087D02*
X-26080Y6247D01*
X-25920Y6247D01*
X-25920Y6087D01*
X-26080Y6087D01*
X-27288Y885D02*
X-27288Y1045D01*
X-27128Y1045D01*
X-27128Y885D01*
X-27288Y885D01*
X-23082Y902D02*
X-23082Y1062D01*
X-22922Y1062D01*
X-22922Y902D01*
X-23082Y902D01*
X-22553Y1361D02*
X-22553Y1521D01*
X-22393Y1521D01*
X-22393Y1361D01*
X-22553Y1361D01*
X-24080Y2620D02*
X-24080Y2780D01*
X-23920Y2780D01*
X-23920Y2620D01*
X-24080Y2620D01*
X-21730Y676D02*
X-21730Y836D01*
X-21570Y836D01*
X-21570Y676D01*
X-21730Y676D01*
X-19180Y1535D02*
X-19180Y1695D01*
X-19020Y1695D01*
X-19020Y1535D01*
X-19180Y1535D01*
X-18080Y3170D02*
X-18080Y3330D01*
X-17920Y3330D01*
X-17920Y3170D01*
X-18080Y3170D01*
X-18730Y2168D02*
X-18730Y2328D01*
X-18570Y2328D01*
X-18570Y2168D01*
X-18730Y2168D01*
X-17580Y3664D02*
X-17580Y3824D01*
X-17420Y3824D01*
X-17420Y3664D01*
X-17580Y3664D01*
X-18080Y926D02*
X-18080Y1086D01*
X-17920Y1086D01*
X-17920Y926D01*
X-18080Y926D01*
X-18330Y5170D02*
X-18330Y5330D01*
X-18170Y5330D01*
X-18170Y5170D01*
X-18330Y5170D01*
X-20833Y5170D02*
X-20833Y5330D01*
X-20673Y5330D01*
X-20673Y5170D01*
X-20833Y5170D01*
X23935Y27085D02*
X23935Y27245D01*
X24095Y27245D01*
X24095Y27085D01*
X23935Y27085D01*
X-12924Y5637D02*
X-12924Y5797D01*
X-12764Y5797D01*
X-12764Y5637D01*
X-12924Y5637D01*
X-12919Y4088D02*
X-12919Y4248D01*
X-12759Y4248D01*
X-12759Y4088D01*
X-12919Y4088D01*
X-14730Y5637D02*
X-14730Y5797D01*
X-14570Y5797D01*
X-14570Y5637D01*
X-14730Y5637D01*
X-15577Y4887D02*
X-15577Y5047D01*
X-15417Y5047D01*
X-15417Y4887D01*
X-15577Y4887D01*
X-13980Y3637D02*
X-13980Y3797D01*
X-13820Y3797D01*
X-13820Y3637D01*
X-13980Y3637D01*
X-13729Y3888D02*
X-13729Y4048D01*
X-13569Y4048D01*
X-13569Y3888D01*
X-13729Y3888D01*
X-4330Y2670D02*
X-4330Y2830D01*
X-4170Y2830D01*
X-4170Y2670D01*
X-4330Y2670D01*
X-80Y7270D02*
X-80Y7430D01*
X80Y7430D01*
X80Y7270D01*
X-80Y7270D01*
X-80Y7770D02*
X-80Y7930D01*
X80Y7930D01*
X80Y7770D01*
X-80Y7770D01*
X-24080Y1170D02*
X-24080Y1330D01*
X-23920Y1330D01*
X-23920Y1170D01*
X-24080Y1170D01*
X-19337Y20420D02*
X-19337Y20580D01*
X-19177Y20580D01*
X-19177Y20420D01*
X-19337Y20420D01*
X-21680Y17920D02*
X-21680Y18080D01*
X-21520Y18080D01*
X-21520Y17920D01*
X-21680Y17920D01*
X-24330Y20420D02*
X-24330Y20580D01*
X-24170Y20580D01*
X-24170Y20420D01*
X-24330Y20420D01*
X-23330Y33420D02*
X-23330Y33580D01*
X-23170Y33580D01*
X-23170Y33420D01*
X-23330Y33420D01*
X-23583Y13917D02*
X-23583Y14077D01*
X-23423Y14077D01*
X-23423Y13917D01*
X-23583Y13917D01*
X-23580Y16170D02*
X-23580Y16330D01*
X-23420Y16330D01*
X-23420Y16170D01*
X-23580Y16170D01*
X18670Y3723D02*
X18670Y3883D01*
X18830Y3883D01*
X18830Y3723D01*
X18670Y3723D01*
X17920Y14173D02*
X17920Y14333D01*
X18080Y14333D01*
X18080Y14173D01*
X17920Y14173D01*
X18920Y14167D02*
X18920Y14327D01*
X19080Y14327D01*
X19080Y14167D01*
X18920Y14167D01*
X19420Y14170D02*
X19420Y14330D01*
X19580Y14330D01*
X19580Y14170D01*
X19420Y14170D01*
X-32820Y27085D02*
X-32820Y27245D01*
X-32660Y27245D01*
X-32660Y27085D01*
X-32820Y27085D01*
X-32830Y27920D02*
X-32830Y28080D01*
X-32670Y28080D01*
X-32670Y27920D01*
X-32830Y27920D01*
X-23583Y17920D02*
X-23583Y18080D01*
X-23423Y18080D01*
X-23423Y17920D01*
X-23583Y17920D01*
X-24333Y19920D02*
X-24333Y20080D01*
X-24173Y20080D01*
X-24173Y19920D01*
X-24333Y19920D01*
X-24330Y21920D02*
X-24330Y22080D01*
X-24170Y22080D01*
X-24170Y21920D01*
X-24330Y21920D01*
X-24330Y21420D02*
X-24330Y21580D01*
X-24170Y21580D01*
X-24170Y21420D01*
X-24330Y21420D01*
X-20148Y16670D02*
X-20148Y16830D01*
X-19988Y16830D01*
X-19988Y16670D01*
X-20148Y16670D01*
X-20598Y16670D02*
X-20598Y16830D01*
X-20438Y16830D01*
X-20438Y16670D01*
X-20598Y16670D01*
X-20598Y16170D02*
X-20598Y16330D01*
X-20438Y16330D01*
X-20438Y16170D01*
X-20598Y16170D01*
X-20148Y16170D02*
X-20148Y16330D01*
X-19988Y16330D01*
X-19988Y16170D01*
X-20148Y16170D01*
X-20138Y14420D02*
X-20138Y14580D01*
X-19978Y14580D01*
X-19978Y14420D01*
X-20138Y14420D01*
X-20588Y14420D02*
X-20588Y14580D01*
X-20428Y14580D01*
X-20428Y14420D01*
X-20588Y14420D01*
X-20588Y13920D02*
X-20588Y14080D01*
X-20428Y14080D01*
X-20428Y13920D01*
X-20588Y13920D01*
X-20138Y13920D02*
X-20138Y14080D01*
X-19978Y14080D01*
X-19978Y13920D01*
X-20138Y13920D01*
X-20130Y12420D02*
X-20130Y12580D01*
X-19970Y12580D01*
X-19970Y12420D01*
X-20130Y12420D01*
X-20580Y12420D02*
X-20580Y12580D01*
X-20420Y12580D01*
X-20420Y12420D01*
X-20580Y12420D01*
X-20580Y11920D02*
X-20580Y12080D01*
X-20420Y12080D01*
X-20420Y11920D01*
X-20580Y11920D01*
X-20130Y11920D02*
X-20130Y12080D01*
X-19970Y12080D01*
X-19970Y11920D01*
X-20130Y11920D01*
X22680Y28660D02*
X22680Y28820D01*
X22840Y28820D01*
X22840Y28660D01*
X22680Y28660D01*
X23920Y28650D02*
X23920Y28810D01*
X24080Y28810D01*
X24080Y28650D01*
X23920Y28650D01*
X4260Y3415D02*
X4260Y3575D01*
X4420Y3575D01*
X4420Y3415D01*
X4260Y3415D01*
X3184Y4471D02*
X3184Y4631D01*
X3344Y4631D01*
X3344Y4471D01*
X3184Y4471D01*
X24919Y7170D02*
X24919Y7330D01*
X25079Y7330D01*
X25079Y7170D01*
X24919Y7170D01*
X24919Y7670D02*
X24919Y7830D01*
X25079Y7830D01*
X25079Y7670D01*
X24919Y7670D01*
X21421Y5171D02*
X21421Y5331D01*
X21581Y5331D01*
X21581Y5171D01*
X21421Y5171D01*
X20421Y5670D02*
X20421Y5830D01*
X20581Y5830D01*
X20581Y5670D01*
X20421Y5670D01*
X21599Y1270D02*
X21599Y1430D01*
X21759Y1430D01*
X21759Y1270D01*
X21599Y1270D01*
X25357Y2312D02*
X25357Y2472D01*
X25517Y2472D01*
X25517Y2312D01*
X25357Y2312D01*
X8620Y4734D02*
X8620Y4894D01*
X8780Y4894D01*
X8780Y4734D01*
X8620Y4734D01*
X8620Y4234D02*
X8620Y4394D01*
X8780Y4394D01*
X8780Y4234D01*
X8620Y4234D01*
X9658Y4733D02*
X9658Y4893D01*
X9818Y4893D01*
X9818Y4733D01*
X9658Y4733D01*
X9658Y4249D02*
X9658Y4409D01*
X9818Y4409D01*
X9818Y4249D01*
X9658Y4249D01*
X5120Y153D02*
X5120Y313D01*
X5280Y313D01*
X5280Y153D01*
X5120Y153D01*
X1779Y12153D02*
X1779Y12313D01*
X1939Y12313D01*
X1939Y12153D01*
X1779Y12153D01*
X-8330Y3457D02*
X-8330Y3617D01*
X-8170Y3617D01*
X-8170Y3457D01*
X-8330Y3457D01*
X-6763Y570D02*
X-6763Y730D01*
X-6603Y730D01*
X-6603Y570D01*
X-6763Y570D01*
X-5576Y569D02*
X-5576Y729D01*
X-5416Y729D01*
X-5416Y569D01*
X-5576Y569D01*
X7170Y9779D02*
X7170Y9939D01*
X7330Y9939D01*
X7330Y9779D01*
X7170Y9779D01*
X2870Y8027D02*
X2870Y8187D01*
X3030Y8187D01*
X3030Y8027D01*
X2870Y8027D01*
X2920Y11420D02*
X2920Y11580D01*
X3080Y11580D01*
X3080Y11420D01*
X2920Y11420D01*
X-1727Y5462D02*
X-1727Y5622D01*
X-1567Y5622D01*
X-1567Y5462D01*
X-1727Y5462D01*
X8874Y9206D02*
X8874Y9366D01*
X9034Y9366D01*
X9034Y9206D01*
X8874Y9206D01*
X333Y8971D02*
X333Y9131D01*
X493Y9131D01*
X493Y8971D01*
X333Y8971D01*
X2126Y6940D02*
X2126Y7100D01*
X2286Y7100D01*
X2286Y6940D01*
X2126Y6940D01*
X2520Y6940D02*
X2520Y7100D01*
X2680Y7100D01*
X2680Y6940D01*
X2520Y6940D01*
X-1617Y4962D02*
X-1617Y5122D01*
X-1457Y5122D01*
X-1457Y4962D01*
X-1617Y4962D01*
X-1624Y4531D02*
X-1624Y4691D01*
X-1464Y4691D01*
X-1464Y4531D01*
X-1624Y4531D01*
X1729Y4962D02*
X1729Y5122D01*
X1889Y5122D01*
X1889Y4962D01*
X1729Y4962D01*
X1729Y4462D02*
X1729Y4622D01*
X1889Y4622D01*
X1889Y4462D01*
X1729Y4462D01*
X7300Y6236D02*
X7300Y6396D01*
X7460Y6396D01*
X7460Y6236D01*
X7300Y6236D01*
X7811Y6492D02*
X7811Y6652D01*
X7971Y6652D01*
X7971Y6492D01*
X7811Y6492D01*
X-467Y4462D02*
X-467Y4622D01*
X-307Y4622D01*
X-307Y4462D01*
X-467Y4462D01*
X329Y4462D02*
X329Y4622D01*
X489Y4622D01*
X489Y4462D01*
X329Y4462D01*
X6573Y3970D02*
X6573Y4130D01*
X6733Y4130D01*
X6733Y3970D01*
X6573Y3970D01*
X7073Y3970D02*
X7073Y4130D01*
X7233Y4130D01*
X7233Y3970D01*
X7073Y3970D01*
X8677Y13283D02*
X8677Y13443D01*
X8837Y13443D01*
X8837Y13283D01*
X8677Y13283D01*
X8677Y12889D02*
X8677Y13049D01*
X8837Y13049D01*
X8837Y12889D01*
X8677Y12889D01*
X8677Y12496D02*
X8677Y12656D01*
X8837Y12656D01*
X8837Y12496D01*
X8677Y12496D01*
X8677Y11118D02*
X8677Y11278D01*
X8837Y11278D01*
X8837Y11118D01*
X8677Y11118D01*
X8677Y11511D02*
X8677Y11671D01*
X8837Y11671D01*
X8837Y11511D01*
X8677Y11511D01*
X8677Y11905D02*
X8677Y12065D01*
X8837Y12065D01*
X8837Y11905D01*
X8677Y11905D01*
X3717Y10724D02*
X3717Y10884D01*
X3877Y10884D01*
X3877Y10724D01*
X3717Y10724D01*
X3264Y9405D02*
X3264Y9565D01*
X3424Y9565D01*
X3424Y9405D01*
X3264Y9405D01*
X2969Y9346D02*
X2969Y9506D01*
X3129Y9506D01*
X3129Y9346D01*
X2969Y9346D01*
X5410Y6196D02*
X5410Y6356D01*
X5570Y6356D01*
X5570Y6196D01*
X5410Y6196D01*
X5843Y6196D02*
X5843Y6356D01*
X6003Y6356D01*
X6003Y6196D01*
X5843Y6196D01*
X-16080Y26884D02*
X-16080Y27044D01*
X-15920Y27044D01*
X-15920Y26884D01*
X-16080Y26884D01*
X-17330Y28134D02*
X-17330Y28294D01*
X-17170Y28294D01*
X-17170Y28134D01*
X-17330Y28134D01*
X-16080Y29384D02*
X-16080Y29544D01*
X-15920Y29544D01*
X-15920Y29384D01*
X-16080Y29384D01*
X-16079Y27434D02*
X-16079Y27594D01*
X-15919Y27594D01*
X-15919Y27434D01*
X-16079Y27434D01*
X-16780Y28133D02*
X-16780Y28293D01*
X-16620Y28293D01*
X-16620Y28133D01*
X-16780Y28133D01*
X-16081Y28834D02*
X-16081Y28994D01*
X-15921Y28994D01*
X-15921Y28834D01*
X-16081Y28834D01*
X-14830Y28134D02*
X-14830Y28294D01*
X-14670Y28294D01*
X-14670Y28134D01*
X-14830Y28134D01*
X-15380Y28135D02*
X-15380Y28295D01*
X-15220Y28295D01*
X-15220Y28135D01*
X-15380Y28135D01*
X-16080Y28134D02*
X-16080Y28294D01*
X-15920Y28294D01*
X-15920Y28134D01*
X-16080Y28134D01*
X-14151Y30064D02*
X-14151Y30224D01*
X-13991Y30224D01*
X-13991Y30064D01*
X-14151Y30064D01*
X-14080Y29134D02*
X-14080Y29294D01*
X-13920Y29294D01*
X-13920Y29134D01*
X-14080Y29134D01*
X-14080Y28634D02*
X-14080Y28794D01*
X-13920Y28794D01*
X-13920Y28634D01*
X-14080Y28634D01*
X-14080Y28134D02*
X-14080Y28294D01*
X-13920Y28294D01*
X-13920Y28134D01*
X-14080Y28134D01*
X-14080Y27634D02*
X-14080Y27794D01*
X-13920Y27794D01*
X-13920Y27634D01*
X-14080Y27634D01*
X-14080Y27134D02*
X-14080Y27294D01*
X-13920Y27294D01*
X-13920Y27134D01*
X-14080Y27134D01*
X-14583Y30132D02*
X-14583Y30292D01*
X-14423Y30292D01*
X-14423Y30132D01*
X-14583Y30132D01*
X-15083Y30132D02*
X-15083Y30292D01*
X-14923Y30292D01*
X-14923Y30132D01*
X-15083Y30132D01*
X-15583Y30132D02*
X-15583Y30292D01*
X-15423Y30292D01*
X-15423Y30132D01*
X-15583Y30132D01*
X-16083Y30132D02*
X-16083Y30292D01*
X-15923Y30292D01*
X-15923Y30132D01*
X-16083Y30132D01*
X-16583Y30132D02*
X-16583Y30292D01*
X-16423Y30292D01*
X-16423Y30132D01*
X-16583Y30132D01*
X-17083Y30132D02*
X-17083Y30292D01*
X-16923Y30292D01*
X-16923Y30132D01*
X-17083Y30132D01*
X-17583Y30132D02*
X-17583Y30292D01*
X-17423Y30292D01*
X-17423Y30132D01*
X-17583Y30132D01*
X-18009Y30061D02*
X-18009Y30221D01*
X-17849Y30221D01*
X-17849Y30061D01*
X-18009Y30061D01*
X-18080Y29635D02*
X-18080Y29795D01*
X-17920Y29795D01*
X-17920Y29635D01*
X-18080Y29635D01*
X-18080Y29135D02*
X-18080Y29295D01*
X-17920Y29295D01*
X-17920Y29135D01*
X-18080Y29135D01*
X-18080Y28635D02*
X-18080Y28795D01*
X-17920Y28795D01*
X-17920Y28635D01*
X-18080Y28635D01*
X-18080Y28135D02*
X-18080Y28295D01*
X-17920Y28295D01*
X-17920Y28135D01*
X-18080Y28135D01*
X-18080Y27634D02*
X-18080Y27794D01*
X-17920Y27794D01*
X-17920Y27634D01*
X-18080Y27634D01*
X-18080Y27134D02*
X-18080Y27294D01*
X-17920Y27294D01*
X-17920Y27134D01*
X-18080Y27134D01*
X-18080Y26634D02*
X-18080Y26794D01*
X-17920Y26794D01*
X-17920Y26634D01*
X-18080Y26634D01*
X-18009Y26209D02*
X-18009Y26369D01*
X-17849Y26369D01*
X-17849Y26209D01*
X-18009Y26209D01*
X-17580Y26134D02*
X-17580Y26294D01*
X-17420Y26294D01*
X-17420Y26134D01*
X-17580Y26134D01*
X-17080Y26134D02*
X-17080Y26294D01*
X-16920Y26294D01*
X-16920Y26134D01*
X-17080Y26134D01*
X-16580Y26134D02*
X-16580Y26294D01*
X-16420Y26294D01*
X-16420Y26134D01*
X-16580Y26134D01*
X-16080Y26134D02*
X-16080Y26294D01*
X-15920Y26294D01*
X-15920Y26134D01*
X-16080Y26134D01*
X-15580Y26134D02*
X-15580Y26294D01*
X-15420Y26294D01*
X-15420Y26134D01*
X-15580Y26134D01*
X-15080Y26131D02*
X-15080Y26291D01*
X-14920Y26291D01*
X-14920Y26131D01*
X-15080Y26131D01*
X-14580Y26131D02*
X-14580Y26291D01*
X-14420Y26291D01*
X-14420Y26131D01*
X-14580Y26131D01*
X-14151Y26205D02*
X-14151Y26365D01*
X-13991Y26365D01*
X-13991Y26205D01*
X-14151Y26205D01*
X-14080Y26634D02*
X-14080Y26794D01*
X-13920Y26794D01*
X-13920Y26634D01*
X-14080Y26634D01*
X-18330Y23884D02*
X-18330Y24044D01*
X-18170Y24044D01*
X-18170Y23884D01*
X-18330Y23884D01*
X-17830Y23884D02*
X-17830Y24044D01*
X-17670Y24044D01*
X-17670Y23884D01*
X-17830Y23884D01*
X-21830Y27184D02*
X-21830Y27344D01*
X-21670Y27344D01*
X-21670Y27184D01*
X-21830Y27184D01*
X-21830Y29120D02*
X-21830Y29280D01*
X-21670Y29280D01*
X-21670Y29120D01*
X-21830Y29120D01*
X-20830Y31634D02*
X-20830Y31794D01*
X-20670Y31794D01*
X-20670Y31634D01*
X-20830Y31634D01*
X-20280Y31384D02*
X-20280Y31544D01*
X-20120Y31544D01*
X-20120Y31384D01*
X-20280Y31384D01*
X-19580Y31734D02*
X-19580Y31894D01*
X-19420Y31894D01*
X-19420Y31734D01*
X-19580Y31734D01*
X-18730Y31634D02*
X-18730Y31794D01*
X-18570Y31794D01*
X-18570Y31634D01*
X-18730Y31634D01*
X-20580Y30134D02*
X-20580Y30294D01*
X-20420Y30294D01*
X-20420Y30134D01*
X-20580Y30134D01*
X-20830Y29084D02*
X-20830Y29244D01*
X-20670Y29244D01*
X-20670Y29084D01*
X-20830Y29084D01*
X-20830Y28686D02*
X-20830Y28846D01*
X-20670Y28846D01*
X-20670Y28686D01*
X-20830Y28686D01*
X-20280Y29634D02*
X-20280Y29794D01*
X-20120Y29794D01*
X-20120Y29634D01*
X-20280Y29634D01*
X-19080Y29237D02*
X-19080Y29397D01*
X-18920Y29397D01*
X-18920Y29237D01*
X-19080Y29237D01*
X-19080Y28784D02*
X-19080Y28944D01*
X-18920Y28944D01*
X-18920Y28784D01*
X-19080Y28784D01*
X-18330Y22884D02*
X-18330Y23044D01*
X-18170Y23044D01*
X-18170Y22884D01*
X-18330Y22884D01*
X-17830Y22884D02*
X-17830Y23044D01*
X-17670Y23044D01*
X-17670Y22884D01*
X-17830Y22884D01*
X-17330Y23884D02*
X-17330Y24044D01*
X-17170Y24044D01*
X-17170Y23884D01*
X-17330Y23884D01*
X-16830Y23884D02*
X-16830Y24044D01*
X-16670Y24044D01*
X-16670Y23884D01*
X-16830Y23884D01*
X-19330Y32528D02*
X-19330Y32688D01*
X-19170Y32688D01*
X-19170Y32528D01*
X-19330Y32528D01*
X-12830Y32528D02*
X-12830Y32688D01*
X-12670Y32688D01*
X-12670Y32528D01*
X-12830Y32528D01*
X-13330Y31634D02*
X-13330Y31794D01*
X-13170Y31794D01*
X-13170Y31634D01*
X-13330Y31634D01*
X-11288Y17483D02*
X-11288Y17643D01*
X-11128Y17643D01*
X-11128Y17483D01*
X-11288Y17483D01*
X-11605Y13449D02*
X-11605Y13609D01*
X-11445Y13609D01*
X-11445Y13449D01*
X-11605Y13449D01*
X-11205Y13449D02*
X-11205Y13609D01*
X-11045Y13609D01*
X-11045Y13449D01*
X-11205Y13449D01*
X-9880Y7474D02*
X-9880Y7634D01*
X-9720Y7634D01*
X-9720Y7474D01*
X-9880Y7474D01*
X-8132Y16300D02*
X-8132Y16460D01*
X-7972Y16460D01*
X-7972Y16300D01*
X-8132Y16300D01*
X-8132Y15768D02*
X-8132Y15928D01*
X-7972Y15928D01*
X-7972Y15768D01*
X-8132Y15768D01*
X-8132Y17284D02*
X-8132Y17444D01*
X-7972Y17444D01*
X-7972Y17284D01*
X-8132Y17284D01*
X-8132Y16753D02*
X-8132Y16913D01*
X-7972Y16913D01*
X-7972Y16753D01*
X-8132Y16753D01*
X-10278Y17213D02*
X-10278Y17373D01*
X-10118Y17373D01*
X-10118Y17213D01*
X-10278Y17213D01*
X-10278Y16763D02*
X-10278Y16923D01*
X-10118Y16923D01*
X-10118Y16763D01*
X-10278Y16763D01*
X-10278Y16313D02*
X-10278Y16473D01*
X-10118Y16473D01*
X-10118Y16313D01*
X-10278Y16313D01*
X-10278Y15863D02*
X-10278Y16023D01*
X-10118Y16023D01*
X-10118Y15863D01*
X-10278Y15863D01*
X-12401Y9221D02*
X-12401Y9381D01*
X-12241Y9381D01*
X-12241Y9221D01*
X-12401Y9221D01*
X-10830Y13670D02*
X-10830Y13830D01*
X-10670Y13830D01*
X-10670Y13670D01*
X-10830Y13670D01*
X-8632Y10739D02*
X-8632Y10899D01*
X-8472Y10899D01*
X-8472Y10739D01*
X-8632Y10739D01*
X-8632Y11133D02*
X-8632Y11293D01*
X-8472Y11293D01*
X-8472Y11133D01*
X-8632Y11133D01*
X-8632Y11526D02*
X-8632Y11686D01*
X-8472Y11686D01*
X-8472Y11526D01*
X-8632Y11526D01*
X-10561Y12944D02*
X-10561Y13104D01*
X-10401Y13104D01*
X-10401Y12944D01*
X-10561Y12944D01*
X-10561Y13534D02*
X-10561Y13694D01*
X-10401Y13694D01*
X-10401Y13534D01*
X-10561Y13534D01*
X-9878Y12363D02*
X-9878Y12523D01*
X-9718Y12523D01*
X-9718Y12363D01*
X-9878Y12363D01*
X-6599Y14587D02*
X-6599Y14747D01*
X-6439Y14747D01*
X-6439Y14587D01*
X-6599Y14587D01*
X-6599Y14187D02*
X-6599Y14347D01*
X-6439Y14347D01*
X-6439Y14187D01*
X-6599Y14187D01*
X-12980Y18810D02*
X-12980Y18970D01*
X-12820Y18970D01*
X-12820Y18810D01*
X-12980Y18810D01*
X-14636Y15286D02*
X-14636Y15446D01*
X-14476Y15446D01*
X-14476Y15286D01*
X-14636Y15286D01*
X-14636Y16034D02*
X-14636Y16194D01*
X-14476Y16194D01*
X-14476Y16034D01*
X-14636Y16034D01*
X-14351Y16595D02*
X-14351Y16755D01*
X-14191Y16755D01*
X-14191Y16595D01*
X-14351Y16595D01*
X-13760Y16595D02*
X-13760Y16755D01*
X-13600Y16755D01*
X-13600Y16595D01*
X-13760Y16595D01*
X-17428Y8874D02*
X-17428Y9034D01*
X-17268Y9034D01*
X-17268Y8874D01*
X-17428Y8874D01*
X-16878Y8874D02*
X-16878Y9034D01*
X-16718Y9034D01*
X-16718Y8874D01*
X-16878Y8874D01*
X-16378Y8874D02*
X-16378Y9034D01*
X-16218Y9034D01*
X-16218Y8874D01*
X-16378Y8874D01*
X-15878Y8874D02*
X-15878Y9034D01*
X-15718Y9034D01*
X-15718Y8874D01*
X-15878Y8874D01*
X-15191Y14111D02*
X-15191Y14271D01*
X-15031Y14271D01*
X-15031Y14111D01*
X-15191Y14111D01*
X-15722Y14111D02*
X-15722Y14271D01*
X-15562Y14271D01*
X-15562Y14111D01*
X-15722Y14111D01*
X-12668Y13200D02*
X-12668Y13360D01*
X-12508Y13360D01*
X-12508Y13200D01*
X-12668Y13200D01*
X-13061Y13200D02*
X-13061Y13360D01*
X-12901Y13360D01*
X-12901Y13200D01*
X-13061Y13200D01*
X16420Y12667D02*
X16420Y12827D01*
X16580Y12827D01*
X16580Y12667D01*
X16420Y12667D01*
X16420Y13667D02*
X16420Y13827D01*
X16580Y13827D01*
X16580Y13667D01*
X16420Y13667D01*
X17420Y14167D02*
X17420Y14327D01*
X17580Y14327D01*
X17580Y14167D01*
X17420Y14167D01*
X19917Y14170D02*
X19917Y14330D01*
X20077Y14330D01*
X20077Y14170D01*
X19917Y14170D01*
X20417Y14170D02*
X20417Y14330D01*
X20577Y14330D01*
X20577Y14170D01*
X20417Y14170D01*
X20917Y14170D02*
X20917Y14330D01*
X21077Y14330D01*
X21077Y14170D01*
X20917Y14170D01*
X21417Y14170D02*
X21417Y14330D01*
X21577Y14330D01*
X21577Y14170D01*
X21417Y14170D01*
X21920Y13673D02*
X21920Y13833D01*
X22080Y13833D01*
X22080Y13673D01*
X21920Y13673D01*
X22417Y12667D02*
X22417Y12827D01*
X22577Y12827D01*
X22577Y12667D01*
X22417Y12667D01*
X22417Y12170D02*
X22417Y12330D01*
X22577Y12330D01*
X22577Y12170D01*
X22417Y12170D01*
X17419Y8671D02*
X17419Y8831D01*
X17579Y8831D01*
X17579Y8671D01*
X17419Y8671D01*
X20920Y8170D02*
X20920Y8330D01*
X21080Y8330D01*
X21080Y8170D01*
X20920Y8170D01*
X21420Y8670D02*
X21420Y8830D01*
X21580Y8830D01*
X21580Y8670D01*
X21420Y8670D01*
X21420Y8170D02*
X21420Y8330D01*
X21580Y8330D01*
X21580Y8170D01*
X21420Y8170D01*
X21920Y8670D02*
X21920Y8830D01*
X22080Y8830D01*
X22080Y8670D01*
X21920Y8670D01*
X22420Y8670D02*
X22420Y8830D01*
X22580Y8830D01*
X22580Y8670D01*
X22420Y8670D01*
X22420Y9664D02*
X22420Y9824D01*
X22580Y9824D01*
X22580Y9664D01*
X22420Y9664D01*
X21920Y10170D02*
X21920Y10330D01*
X22080Y10330D01*
X22080Y10170D01*
X21920Y10170D01*
X9975Y10414D02*
X9975Y10574D01*
X10135Y10574D01*
X10135Y10414D01*
X9975Y10414D01*
X17920Y9170D02*
X17920Y9330D01*
X18080Y9330D01*
X18080Y9170D01*
X17920Y9170D01*
X17420Y10170D02*
X17420Y10330D01*
X17580Y10330D01*
X17580Y10170D01*
X17420Y10170D01*
X17420Y11170D02*
X17420Y11330D01*
X17580Y11330D01*
X17580Y11170D01*
X17420Y11170D01*
X18420Y13170D02*
X18420Y13330D01*
X18580Y13330D01*
X18580Y13170D01*
X18420Y13170D01*
X18920Y13170D02*
X18920Y13330D01*
X19080Y13330D01*
X19080Y13170D01*
X18920Y13170D01*
X18920Y13670D02*
X18920Y13830D01*
X19080Y13830D01*
X19080Y13670D01*
X18920Y13670D01*
X19920Y13670D02*
X19920Y13830D01*
X20080Y13830D01*
X20080Y13670D01*
X19920Y13670D01*
X21420Y12670D02*
X21420Y12830D01*
X21580Y12830D01*
X21580Y12670D01*
X21420Y12670D01*
X21420Y12170D02*
X21420Y12330D01*
X21580Y12330D01*
X21580Y12170D01*
X21420Y12170D01*
X21420Y11670D02*
X21420Y11830D01*
X21580Y11830D01*
X21580Y11670D01*
X21420Y11670D01*
X21920Y11170D02*
X21920Y11330D01*
X22080Y11330D01*
X22080Y11170D01*
X21920Y11170D01*
X21420Y11170D02*
X21420Y11330D01*
X21580Y11330D01*
X21580Y11170D01*
X21420Y11170D01*
X21420Y10670D02*
X21420Y10830D01*
X21580Y10830D01*
X21580Y10670D01*
X21420Y10670D01*
X21420Y10170D02*
X21420Y10330D01*
X21580Y10330D01*
X21580Y10170D01*
X21420Y10170D01*
X20920Y9670D02*
X20920Y9830D01*
X21080Y9830D01*
X21080Y9670D01*
X20920Y9670D01*
X21420Y9170D02*
X21420Y9330D01*
X21580Y9330D01*
X21580Y9170D01*
X21420Y9170D01*
X20920Y9170D02*
X20920Y9330D01*
X21080Y9330D01*
X21080Y9170D01*
X20920Y9170D01*
X20420Y9170D02*
X20420Y9330D01*
X20580Y9330D01*
X20580Y9170D01*
X20420Y9170D01*
X19420Y9170D02*
X19420Y9330D01*
X19580Y9330D01*
X19580Y9170D01*
X19420Y9170D01*
X19920Y9170D02*
X19920Y9330D01*
X20080Y9330D01*
X20080Y9170D01*
X19920Y9170D01*
X18920Y9170D02*
X18920Y9330D01*
X19080Y9330D01*
X19080Y9170D01*
X18920Y9170D01*
X18420Y9170D02*
X18420Y9330D01*
X18580Y9330D01*
X18580Y9170D01*
X18420Y9170D01*
X17420Y9170D02*
X17420Y9330D01*
X17580Y9330D01*
X17580Y9170D01*
X17420Y9170D01*
X17420Y9670D02*
X17420Y9830D01*
X17580Y9830D01*
X17580Y9670D01*
X17420Y9670D01*
X17420Y11670D02*
X17420Y11830D01*
X17580Y11830D01*
X17580Y11670D01*
X17420Y11670D01*
X17420Y12170D02*
X17420Y12330D01*
X17580Y12330D01*
X17580Y12170D01*
X17420Y12170D01*
X17920Y13170D02*
X17920Y13330D01*
X18080Y13330D01*
X18080Y13170D01*
X17920Y13170D01*
X17420Y13170D02*
X17420Y13330D01*
X17580Y13330D01*
X17580Y13170D01*
X17420Y13170D01*
X17420Y12670D02*
X17420Y12830D01*
X17580Y12830D01*
X17580Y12670D01*
X17420Y12670D01*
X16920Y11670D02*
X16920Y11830D01*
X17080Y11830D01*
X17080Y11670D01*
X16920Y11670D01*
X16920Y11170D02*
X16920Y11330D01*
X17080Y11330D01*
X17080Y11170D01*
X16920Y11170D01*
X9792Y3090D02*
X9832Y3130D01*
X9872Y3130D01*
X9832Y3170D01*
X9872Y3210D01*
X9832Y3210D01*
X9792Y3250D01*
X9752Y3210D01*
X9712Y3210D01*
X9752Y3170D01*
X9712Y3130D01*
X9752Y3130D01*
X9792Y3090D01*
X9792Y3130D02*
X9812Y3150D01*
X9832Y3150D01*
X9812Y3170D01*
X9832Y3190D01*
X9812Y3190D01*
X9792Y3210D01*
X9772Y3190D01*
X9752Y3190D01*
X9772Y3170D01*
X9752Y3150D01*
X9772Y3150D01*
X9792Y3130D01*
X8867Y2628D02*
X8907Y2668D01*
X8947Y2668D01*
X8907Y2708D01*
X8947Y2748D01*
X8907Y2748D01*
X8867Y2788D01*
X8827Y2748D01*
X8787Y2748D01*
X8827Y2708D01*
X8787Y2668D01*
X8827Y2668D01*
X8867Y2628D01*
X8867Y2668D02*
X8887Y2688D01*
X8907Y2688D01*
X8887Y2708D01*
X8907Y2728D01*
X8887Y2728D01*
X8867Y2748D01*
X8847Y2728D01*
X8827Y2728D01*
X8847Y2708D01*
X8827Y2688D01*
X8847Y2688D01*
X8867Y2668D01*
X11987Y2934D02*
X12027Y2974D01*
X12067Y2974D01*
X12027Y3014D01*
X12067Y3054D01*
X12027Y3054D01*
X11987Y3094D01*
X11947Y3054D01*
X11907Y3054D01*
X11947Y3014D01*
X11907Y2974D01*
X11947Y2974D01*
X11987Y2934D01*
X11987Y2974D02*
X12007Y2994D01*
X12027Y2994D01*
X12007Y3014D01*
X12027Y3034D01*
X12007Y3034D01*
X11987Y3054D01*
X11967Y3034D01*
X11947Y3034D01*
X11967Y3014D01*
X11947Y2994D01*
X11967Y2994D01*
X11987Y2974D01*
X11987Y3812D02*
X12027Y3852D01*
X12067Y3852D01*
X12027Y3892D01*
X12067Y3932D01*
X12027Y3932D01*
X11987Y3972D01*
X11947Y3932D01*
X11907Y3932D01*
X11947Y3892D01*
X11907Y3852D01*
X11947Y3852D01*
X11987Y3812D01*
X11987Y3852D02*
X12007Y3872D01*
X12027Y3872D01*
X12007Y3892D01*
X12027Y3912D01*
X12007Y3912D01*
X11987Y3932D01*
X11967Y3912D01*
X11947Y3912D01*
X11967Y3892D01*
X11947Y3872D01*
X11967Y3872D01*
X11987Y3852D01*
X8867Y3431D02*
X8907Y3471D01*
X8947Y3471D01*
X8907Y3511D01*
X8947Y3551D01*
X8907Y3551D01*
X8867Y3591D01*
X8827Y3551D01*
X8787Y3551D01*
X8827Y3511D01*
X8787Y3471D01*
X8827Y3471D01*
X8867Y3431D01*
X8867Y3471D02*
X8887Y3491D01*
X8907Y3491D01*
X8887Y3511D01*
X8907Y3531D01*
X8887Y3531D01*
X8867Y3551D01*
X8847Y3531D01*
X8827Y3531D01*
X8847Y3511D01*
X8827Y3491D01*
X8847Y3491D01*
X8867Y3471D01*
X12557Y3812D02*
X12597Y3852D01*
X12637Y3852D01*
X12597Y3892D01*
X12637Y3932D01*
X12597Y3932D01*
X12557Y3972D01*
X12517Y3932D01*
X12477Y3932D01*
X12517Y3892D01*
X12477Y3852D01*
X12517Y3852D01*
X12557Y3812D01*
X12557Y3852D02*
X12577Y3872D01*
X12597Y3872D01*
X12577Y3892D01*
X12597Y3912D01*
X12577Y3912D01*
X12557Y3932D01*
X12537Y3912D01*
X12517Y3912D01*
X12537Y3892D01*
X12517Y3872D01*
X12537Y3872D01*
X12557Y3852D01*
X12557Y2934D02*
X12597Y2974D01*
X12637Y2974D01*
X12597Y3014D01*
X12637Y3054D01*
X12597Y3054D01*
X12557Y3094D01*
X12517Y3054D01*
X12477Y3054D01*
X12517Y3014D01*
X12477Y2974D01*
X12517Y2974D01*
X12557Y2934D01*
X12557Y2974D02*
X12577Y2994D01*
X12597Y2994D01*
X12577Y3014D01*
X12597Y3034D01*
X12577Y3034D01*
X12557Y3054D01*
X12537Y3034D01*
X12517Y3034D01*
X12537Y3014D01*
X12517Y2994D01*
X12537Y2994D01*
X12557Y2974D01*
X-3580Y17170D02*
X-3580Y17330D01*
X-3420Y17330D01*
X-3420Y17170D01*
X-3580Y17170D01*
X-3080Y17170D02*
X-3080Y17330D01*
X-2920Y17330D01*
X-2920Y17170D01*
X-3080Y17170D01*
X-4580Y12545D02*
X-4580Y12705D01*
X-4420Y12705D01*
X-4420Y12545D01*
X-4580Y12545D01*
X-3080Y7420D02*
X-3080Y7580D01*
X-2920Y7580D01*
X-2920Y7420D01*
X-3080Y7420D01*
X-2580Y7420D02*
X-2580Y7580D01*
X-2420Y7580D01*
X-2420Y7420D01*
X-2580Y7420D01*
X-2080Y7420D02*
X-2080Y7580D01*
X-1920Y7580D01*
X-1920Y7420D01*
X-2080Y7420D01*
X-2080Y7920D02*
X-2080Y8080D01*
X-1920Y8080D01*
X-1920Y7920D01*
X-2080Y7920D01*
X-2580Y8420D02*
X-2580Y8580D01*
X-2420Y8580D01*
X-2420Y8420D01*
X-2580Y8420D01*
X-2080Y8420D02*
X-2080Y8580D01*
X-1920Y8580D01*
X-1920Y8420D01*
X-2080Y8420D01*
X-2080Y8920D02*
X-2080Y9080D01*
X-1920Y9080D01*
X-1920Y8920D01*
X-2080Y8920D01*
X-2580Y8920D02*
X-2580Y9080D01*
X-2420Y9080D01*
X-2420Y8920D01*
X-2580Y8920D01*
X-2080Y9420D02*
X-2080Y9580D01*
X-1920Y9580D01*
X-1920Y9420D01*
X-2080Y9420D01*
X-2080Y9920D02*
X-2080Y10080D01*
X-1920Y10080D01*
X-1920Y9920D01*
X-2080Y9920D01*
X-2580Y9420D02*
X-2580Y9580D01*
X-2420Y9580D01*
X-2420Y9420D01*
X-2580Y9420D01*
X-2580Y9920D02*
X-2580Y10080D01*
X-2420Y10080D01*
X-2420Y9920D01*
X-2580Y9920D01*
X-3580Y9420D02*
X-3580Y9580D01*
X-3420Y9580D01*
X-3420Y9420D01*
X-3580Y9420D01*
X-3080Y9420D02*
X-3080Y9580D01*
X-2920Y9580D01*
X-2920Y9420D01*
X-3080Y9420D01*
X-3080Y9920D02*
X-3080Y10080D01*
X-2920Y10080D01*
X-2920Y9920D01*
X-3080Y9920D01*
X-5080Y7920D02*
X-5080Y8080D01*
X-4920Y8080D01*
X-4920Y7920D01*
X-5080Y7920D01*
X-2580Y13920D02*
X-2580Y14080D01*
X-2420Y14080D01*
X-2420Y13920D01*
X-2580Y13920D01*
X-2580Y14420D02*
X-2580Y14580D01*
X-2420Y14580D01*
X-2420Y14420D01*
X-2580Y14420D01*
X-5080Y13895D02*
X-5080Y14055D01*
X-4920Y14055D01*
X-4920Y13895D01*
X-5080Y13895D01*
X-5080Y14420D02*
X-5080Y14580D01*
X-4920Y14580D01*
X-4920Y14420D01*
X-5080Y14420D01*
D280*
X14080Y11250D02*
G03*
X14080Y11250I-80J0D01*
G01*
X13080Y11250D02*
G03*
X13080Y11250I-80J0D01*
G01*
X-22670Y6000D02*
G03*
X-22670Y6000I-80J0D01*
G01*
X-21670Y6000D02*
G03*
X-21670Y6000I-80J0D01*
G01*
X-12720Y2050D02*
G03*
X-12720Y2050I-80J0D01*
G01*
X-9720Y2050D02*
G03*
X-9720Y2050I-80J0D01*
G01*
X-10720Y2050D02*
G03*
X-10720Y2050I-80J0D01*
G01*
X-11720Y2050D02*
G03*
X-11720Y2050I-80J0D01*
G01*
X-12720Y1050D02*
G03*
X-12720Y1050I-80J0D01*
G01*
X-11720Y1050D02*
G03*
X-11720Y1050I-80J0D01*
G01*
X-10720Y1050D02*
G03*
X-10720Y1050I-80J0D01*
G01*
X-9720Y1050D02*
G03*
X-9720Y1050I-80J0D01*
G01*
X-8720Y1050D02*
G03*
X-8720Y1050I-80J0D01*
G01*
X-7720Y1050D02*
G03*
X-7720Y1050I-80J0D01*
G01*
X-18920Y7250D02*
G03*
X-18920Y7250I-80J0D01*
G01*
X-15920Y7250D02*
G03*
X-15920Y7250I-80J0D01*
G01*
X-16920Y7250D02*
G03*
X-16920Y7250I-80J0D01*
G01*
X-17920Y7250D02*
G03*
X-17920Y7250I-80J0D01*
G01*
X-1011Y3276D02*
G03*
X-1011Y3276I-80J0D01*
G01*
X-854Y3001D02*
G03*
X-854Y3001I-80J0D01*
G01*
X-539Y3001D02*
G03*
X-539Y3001I-80J0D01*
G01*
X-381Y3276D02*
G03*
X-381Y3276I-80J0D01*
G01*
X-224Y3001D02*
G03*
X-224Y3001I-80J0D01*
G01*
X-66Y3276D02*
G03*
X-66Y3276I-80J0D01*
G01*
X248Y3276D02*
G03*
X248Y3276I-80J0D01*
G01*
X406Y3001D02*
G03*
X406Y3001I-80J0D01*
G01*
X563Y3276D02*
G03*
X563Y3276I-80J0D01*
G01*
X721Y3001D02*
G03*
X721Y3001I-80J0D01*
G01*
X1036Y3001D02*
G03*
X1036Y3001I-80J0D01*
G01*
X1193Y3276D02*
G03*
X1193Y3276I-80J0D01*
G01*
X-18920Y8250D02*
G03*
X-18920Y8250I-80J0D01*
G01*
X-15920Y8250D02*
G03*
X-15920Y8250I-80J0D01*
G01*
X-16920Y8250D02*
G03*
X-16920Y8250I-80J0D01*
G01*
X-17920Y8250D02*
G03*
X-17920Y8250I-80J0D01*
G01*
D281*
X-1051Y3276D02*
G03*
X-1051Y3276I-40J0D01*
G01*
X-894Y3001D02*
G03*
X-894Y3001I-40J0D01*
G01*
X-579Y3001D02*
G03*
X-579Y3001I-40J0D01*
G01*
X-421Y3276D02*
G03*
X-421Y3276I-40J0D01*
G01*
X-264Y3001D02*
G03*
X-264Y3001I-40J0D01*
G01*
X-106Y3276D02*
G03*
X-106Y3276I-40J0D01*
G01*
X209Y3276D02*
G03*
X209Y3276I-40J0D01*
G01*
X366Y3001D02*
G03*
X366Y3001I-40J0D01*
G01*
X523Y3276D02*
G03*
X523Y3276I-40J0D01*
G01*
X681Y3001D02*
G03*
X681Y3001I-40J0D01*
G01*
X996Y3001D02*
G03*
X996Y3001I-40J0D01*
G01*
X1153Y3276D02*
G03*
X1153Y3276I-40J0D01*
G01*
M02*
