G04*
G04 #@! TF.GenerationSoftware,Altium Limited,Altium Designer,18.1.7 (191)*
G04*
G04 Layer_Color=128*
%FSLAX24Y24*%
%MOIN*%
G70*
G01*
G75*
%ADD279C,0.0020*%
D279*
X14960Y10500D02*
X15040Y10500D01*
X15000Y10460D02*
X15000Y10540D01*
X13800Y11250D02*
X14200Y11250D01*
X14000Y11050D02*
X14000Y11450D01*
X12800Y11250D02*
X13200Y11250D01*
X13000Y11050D02*
X13000Y11450D01*
X15705Y3250D02*
X16020Y3250D01*
X15862Y3092D02*
X15862Y3408D01*
X14917Y3250D02*
X15232Y3250D01*
X15075Y3092D02*
X15075Y3408D01*
X14130Y3250D02*
X14445Y3250D01*
X14287Y3092D02*
X14287Y3408D01*
X13342Y3250D02*
X13657Y3250D01*
X13500Y3092D02*
X13500Y3408D01*
X19955Y3250D02*
X20270Y3250D01*
X20112Y3092D02*
X20112Y3408D01*
X19167Y3250D02*
X19482Y3250D01*
X19325Y3092D02*
X19325Y3408D01*
X18380Y3250D02*
X18695Y3250D01*
X18537Y3092D02*
X18537Y3408D01*
X17593Y3250D02*
X17908Y3250D01*
X17750Y3092D02*
X17750Y3408D01*
X-22950Y6000D02*
X-22550Y6000D01*
X-22750Y5800D02*
X-22750Y6200D01*
X-21950Y6000D02*
X-21550Y6000D01*
X-21750Y5800D02*
X-21750Y6200D01*
X-13000Y2050D02*
X-12600Y2050D01*
X-12800Y1850D02*
X-12800Y2250D01*
X-10000Y2050D02*
X-9600Y2050D01*
X-9800Y1850D02*
X-9800Y2250D01*
X-11000Y2050D02*
X-10600Y2050D01*
X-10800Y1850D02*
X-10800Y2250D01*
X-12000Y2050D02*
X-11600Y2050D01*
X-11800Y1850D02*
X-11800Y2250D01*
X-19540Y27714D02*
X-19460Y27714D01*
X-19500Y27674D02*
X-19500Y27754D01*
X-13317Y11419D02*
X-13237Y11419D01*
X-13277Y11379D02*
X-13277Y11459D01*
X-12736Y12000D02*
X-12656Y12000D01*
X-12696Y11960D02*
X-12696Y12040D01*
X-13317Y12000D02*
X-13237Y12000D01*
X-13277Y11960D02*
X-13277Y12040D01*
X-13897Y12000D02*
X-13817Y12000D01*
X-13857Y11960D02*
X-13857Y12040D01*
X-13317Y12581D02*
X-13237Y12581D01*
X-13277Y12541D02*
X-13277Y12621D01*
X20098Y34252D02*
X20452Y34252D01*
X20275Y34075D02*
X20275Y34429D01*
X18918Y34252D02*
X19272Y34252D01*
X19095Y34075D02*
X19095Y34429D01*
X30875Y2000D02*
X32125Y2000D01*
X31500Y1375D02*
X31500Y2625D01*
X24514Y24846D02*
X25105Y24846D01*
X24809Y24551D02*
X24809Y25142D01*
X31988Y25443D02*
X32579Y25443D01*
X32283Y25148D02*
X32283Y25738D01*
X-27085Y5256D02*
X-26415Y5256D01*
X-26750Y4921D02*
X-26750Y5591D01*
X-27085Y2500D02*
X-26415Y2500D01*
X-26750Y2165D02*
X-26750Y2835D01*
X-13000Y1050D02*
X-12600Y1050D01*
X-12800Y850D02*
X-12800Y1250D01*
X-12000Y1050D02*
X-11600Y1050D01*
X-11800Y850D02*
X-11800Y1250D01*
X-11000Y1050D02*
X-10600Y1050D01*
X-10800Y850D02*
X-10800Y1250D01*
X-10000Y1050D02*
X-9600Y1050D01*
X-9800Y850D02*
X-9800Y1250D01*
X-9000Y1050D02*
X-8600Y1050D01*
X-8800Y850D02*
X-8800Y1250D01*
X-8000Y1050D02*
X-7600Y1050D01*
X-7800Y850D02*
X-7800Y1250D01*
X-19200Y7250D02*
X-18800Y7250D01*
X-19000Y7050D02*
X-19000Y7450D01*
X-16200Y7250D02*
X-15800Y7250D01*
X-16000Y7050D02*
X-16000Y7450D01*
X-17200Y7250D02*
X-16800Y7250D01*
X-17000Y7050D02*
X-17000Y7450D01*
X-18200Y7250D02*
X-17800Y7250D01*
X-18000Y7050D02*
X-18000Y7450D01*
X-1564Y3532D02*
X-1249Y3532D01*
X-1406Y3375D02*
X-1406Y3690D01*
X1231Y3532D02*
X1625Y3532D01*
X1428Y3335D02*
X1428Y3729D01*
X-1170Y3276D02*
X-1013Y3276D01*
X-1091Y3198D02*
X-1091Y3355D01*
X-1013Y3001D02*
X-855Y3001D01*
X-934Y2922D02*
X-934Y3080D01*
X-698Y3001D02*
X-540Y3001D01*
X-619Y2922D02*
X-619Y3080D01*
X-540Y3276D02*
X-383Y3276D01*
X-461Y3198D02*
X-461Y3355D01*
X-383Y3001D02*
X-225Y3001D01*
X-304Y2922D02*
X-304Y3080D01*
X-225Y3276D02*
X-68Y3276D01*
X-146Y3198D02*
X-146Y3355D01*
X90Y3276D02*
X247Y3276D01*
X169Y3198D02*
X169Y3355D01*
X247Y3001D02*
X405Y3001D01*
X326Y2922D02*
X326Y3080D01*
X405Y3276D02*
X562Y3276D01*
X483Y3198D02*
X483Y3355D01*
X562Y3001D02*
X720Y3001D01*
X641Y2922D02*
X641Y3080D01*
X877Y3001D02*
X1035Y3001D01*
X956Y2922D02*
X956Y3080D01*
X1035Y3276D02*
X1192Y3276D01*
X1113Y3198D02*
X1113Y3355D01*
X-2115Y2981D02*
X-1485Y2981D01*
X-1800Y2666D02*
X-1800Y3296D01*
X-2115Y1800D02*
X-1485Y1800D01*
X-1800Y1485D02*
X-1800Y2115D01*
X1507Y2981D02*
X2137Y2981D01*
X1822Y2666D02*
X1822Y3296D01*
X1507Y1800D02*
X2137Y1800D01*
X1822Y1485D02*
X1822Y2115D01*
X20960Y13750D02*
X21040Y13750D01*
X21000Y13710D02*
X21000Y13790D01*
X20460Y13750D02*
X20540Y13750D01*
X20500Y13710D02*
X20500Y13790D01*
X20960Y8750D02*
X21040Y8750D01*
X21000Y8710D02*
X21000Y8790D01*
X20460Y8750D02*
X20540Y8750D01*
X20500Y8710D02*
X20500Y8790D01*
X18460Y12250D02*
X18540Y12250D01*
X18500Y12210D02*
X18500Y12290D01*
X20460Y12250D02*
X20540Y12250D01*
X20500Y12210D02*
X20500Y12290D01*
X20460Y9750D02*
X20540Y9750D01*
X20500Y9710D02*
X20500Y9790D01*
X18460Y9750D02*
X18540Y9750D01*
X18500Y9710D02*
X18500Y9790D01*
X19460Y11250D02*
X19540Y11250D01*
X19500Y11210D02*
X19500Y11290D01*
X16960Y10250D02*
X17040Y10250D01*
X17000Y10210D02*
X17000Y10290D01*
X16960Y13250D02*
X17040Y13250D01*
X17000Y13210D02*
X17000Y13290D01*
X17960Y13750D02*
X18040Y13750D01*
X18000Y13710D02*
X18000Y13790D01*
X21460Y13750D02*
X21540Y13750D01*
X21500Y13710D02*
X21500Y13790D01*
X20960Y10250D02*
X21040Y10250D01*
X21000Y10210D02*
X21000Y10290D01*
X-19200Y8250D02*
X-18800Y8250D01*
X-19000Y8050D02*
X-19000Y8450D01*
X-16200Y8250D02*
X-15800Y8250D01*
X-16000Y8050D02*
X-16000Y8450D01*
X-17200Y8250D02*
X-16800Y8250D01*
X-17000Y8050D02*
X-17000Y8450D01*
X-18200Y8250D02*
X-17800Y8250D01*
X-18000Y8050D02*
X-18000Y8450D01*
X-32179Y24846D02*
X-31588Y24846D01*
X-31883Y24551D02*
X-31883Y25142D01*
X-24705Y25443D02*
X-24114Y25443D01*
X-24409Y25148D02*
X-24409Y25738D01*
X29992Y4119D02*
X30308Y4119D01*
X30150Y3961D02*
X30150Y4276D01*
X29992Y4906D02*
X30308Y4906D01*
X30150Y4749D02*
X30150Y5064D01*
X29992Y5694D02*
X30308Y5694D01*
X30150Y5536D02*
X30150Y5851D01*
X29992Y6481D02*
X30308Y6481D01*
X30150Y6324D02*
X30150Y6639D01*
X17593Y31650D02*
X17908Y31650D01*
X17750Y31493D02*
X17750Y31807D01*
X16805Y31650D02*
X17120Y31650D01*
X16963Y31493D02*
X16963Y31807D01*
X16018Y31650D02*
X16333Y31650D01*
X16175Y31493D02*
X16175Y31807D01*
X15230Y31650D02*
X15545Y31650D01*
X15388Y31493D02*
X15388Y31807D01*
X13442Y31650D02*
X13757Y31650D01*
X13600Y31493D02*
X13600Y31807D01*
X12655Y31650D02*
X12970Y31650D01*
X12813Y31493D02*
X12813Y31807D01*
X11868Y31650D02*
X12183Y31650D01*
X12025Y31493D02*
X12025Y31807D01*
X11080Y31650D02*
X11395Y31650D01*
X11238Y31493D02*
X11238Y31807D01*
X21742Y31650D02*
X22057Y31650D01*
X21900Y31493D02*
X21900Y31807D01*
X20955Y31650D02*
X21270Y31650D01*
X21113Y31493D02*
X21113Y31807D01*
X20168Y31650D02*
X20483Y31650D01*
X20325Y31493D02*
X20325Y31807D01*
X19380Y31650D02*
X19695Y31650D01*
X19538Y31493D02*
X19538Y31807D01*
X-19290Y27464D02*
X-19210Y27464D01*
X-19250Y27424D02*
X-19250Y27504D01*
X30875Y33000D02*
X32125Y33000D01*
X31500Y32375D02*
X31500Y33625D01*
X-32125Y2000D02*
X-30875Y2000D01*
X-31500Y1375D02*
X-31500Y2625D01*
X-32125Y33000D02*
X-30875Y33000D01*
X-31500Y32375D02*
X-31500Y33625D01*
X-30447Y6167D02*
X-30367Y6167D01*
X-30407Y6127D02*
X-30407Y6207D01*
X-24040Y4500D02*
X-23960Y4500D01*
X-24000Y4460D02*
X-24000Y4540D01*
X-840Y28850D02*
X-760Y28850D01*
X-800Y28810D02*
X-800Y28890D01*
X-2390Y28750D02*
X-2310Y28750D01*
X-2350Y28710D02*
X-2350Y28790D01*
X6710Y32249D02*
X6790Y32249D01*
X6750Y32209D02*
X6750Y32289D01*
X6460Y32500D02*
X6540Y32500D01*
X6500Y32460D02*
X6500Y32540D01*
X7210Y31750D02*
X7290Y31750D01*
X7250Y31710D02*
X7250Y31790D01*
X2026Y31150D02*
X2106Y31150D01*
X2066Y31110D02*
X2066Y31190D01*
X32610Y16750D02*
X32690Y16750D01*
X32650Y16710D02*
X32650Y16790D01*
X27967Y19750D02*
X28047Y19750D01*
X28007Y19710D02*
X28007Y19790D01*
X29960Y23250D02*
X30040Y23250D01*
X30000Y23210D02*
X30000Y23290D01*
X30210Y23002D02*
X30290Y23002D01*
X30250Y22962D02*
X30250Y23042D01*
X29710Y23450D02*
X29790Y23450D01*
X29750Y23410D02*
X29750Y23490D01*
X14710Y5500D02*
X14790Y5500D01*
X14750Y5460D02*
X14750Y5540D01*
X14710Y6500D02*
X14790Y6500D01*
X14750Y6460D02*
X14750Y6540D01*
X-4740Y7650D02*
X-4660Y7650D01*
X-4700Y7610D02*
X-4700Y7690D01*
X-5040Y7650D02*
X-4960Y7650D01*
X-5000Y7610D02*
X-5000Y7690D01*
X-4740Y7375D02*
X-4660Y7375D01*
X-4700Y7335D02*
X-4700Y7415D01*
X-12540Y7749D02*
X-12460Y7749D01*
X-12500Y7709D02*
X-12500Y7789D01*
X-11890Y7750D02*
X-11810Y7750D01*
X-11850Y7710D02*
X-11850Y7790D01*
X-20067Y9750D02*
X-19987Y9750D01*
X-20027Y9710D02*
X-20027Y9790D01*
X-20517Y9750D02*
X-20437Y9750D01*
X-20477Y9710D02*
X-20477Y9790D01*
X-20517Y10250D02*
X-20437Y10250D01*
X-20477Y10210D02*
X-20477Y10290D01*
X-20067Y10250D02*
X-19987Y10250D01*
X-20027Y10210D02*
X-20027Y10290D01*
X-10340Y19150D02*
X-10260Y19150D01*
X-10300Y19110D02*
X-10300Y19190D01*
X-10340Y18700D02*
X-10260Y18700D01*
X-10300Y18660D02*
X-10300Y18740D01*
X-10340Y18250D02*
X-10260Y18250D01*
X-10300Y18210D02*
X-10300Y18290D01*
X-10340Y17800D02*
X-10260Y17800D01*
X-10300Y17760D02*
X-10300Y17840D01*
X-10790Y17800D02*
X-10710Y17800D01*
X-10750Y17760D02*
X-10750Y17840D01*
X-10790Y18250D02*
X-10710Y18250D01*
X-10750Y18210D02*
X-10750Y18290D01*
X-10790Y18700D02*
X-10710Y18700D01*
X-10750Y18660D02*
X-10750Y18740D01*
X-10790Y19150D02*
X-10710Y19150D01*
X-10750Y19110D02*
X-10750Y19190D01*
X-11140Y7751D02*
X-11060Y7751D01*
X-11100Y7711D02*
X-11100Y7791D01*
X-11140Y9129D02*
X-11060Y9129D01*
X-11100Y9089D02*
X-11100Y9169D01*
X-10161Y10882D02*
X-10081Y10882D01*
X-10121Y10842D02*
X-10121Y10922D01*
X-8940Y4485D02*
X-8860Y4485D01*
X-8900Y4445D02*
X-8900Y4525D01*
X-8323Y4485D02*
X-8243Y4485D01*
X-8283Y4445D02*
X-8283Y4525D01*
X-7707Y4485D02*
X-7627Y4485D01*
X-7667Y4445D02*
X-7667Y4525D01*
X-7090Y4489D02*
X-7010Y4489D01*
X-7050Y4449D02*
X-7050Y4529D01*
X-4590Y19250D02*
X-4510Y19250D01*
X-4550Y19210D02*
X-4550Y19290D01*
X-13540Y20500D02*
X-13460Y20500D01*
X-13500Y20460D02*
X-13500Y20540D01*
X1710Y15000D02*
X1790Y15000D01*
X1750Y14960D02*
X1750Y15040D01*
X2460Y15250D02*
X2540Y15250D01*
X2500Y15210D02*
X2500Y15290D01*
X-14543Y13250D02*
X-14463Y13250D01*
X-14503Y13210D02*
X-14503Y13290D01*
X-15275Y15435D02*
X-15195Y15435D01*
X-15235Y15395D02*
X-15235Y15475D01*
X-12190Y13250D02*
X-12110Y13250D01*
X-12150Y13210D02*
X-12150Y13290D01*
X-18490Y11114D02*
X-18410Y11114D01*
X-18450Y11074D02*
X-18450Y11154D01*
X-16471Y13687D02*
X-16391Y13687D01*
X-16431Y13647D02*
X-16431Y13727D01*
X2207Y17000D02*
X2287Y17000D01*
X2247Y16960D02*
X2247Y17040D01*
X-18104Y11606D02*
X-18024Y11606D01*
X-18064Y11566D02*
X-18064Y11646D01*
X1660Y31050D02*
X1740Y31050D01*
X1700Y31010D02*
X1700Y31090D01*
X1460Y32500D02*
X1540Y32500D01*
X1500Y32460D02*
X1500Y32540D01*
X-840Y28252D02*
X-760Y28252D01*
X-800Y28212D02*
X-800Y28292D01*
X-7540Y29850D02*
X-7460Y29850D01*
X-7500Y29810D02*
X-7500Y29890D01*
X5499Y9022D02*
X5579Y9022D01*
X5539Y8982D02*
X5539Y9062D01*
X5952Y9022D02*
X6032Y9022D01*
X5992Y8982D02*
X5992Y9062D01*
X6336Y9022D02*
X6416Y9022D01*
X6376Y8982D02*
X6376Y9062D01*
X5952Y9859D02*
X6032Y9859D01*
X5992Y9819D02*
X5992Y9899D01*
X5499Y9859D02*
X5579Y9859D01*
X5539Y9819D02*
X5539Y9899D01*
X5952Y9475D02*
X6032Y9475D01*
X5992Y9435D02*
X5992Y9515D01*
X5499Y9475D02*
X5579Y9475D01*
X5539Y9435D02*
X5539Y9515D01*
X6336Y9475D02*
X6416Y9475D01*
X6376Y9435D02*
X6376Y9515D01*
X6336Y8117D02*
X6416Y8117D01*
X6376Y8077D02*
X6376Y8157D01*
X5499Y8117D02*
X5579Y8117D01*
X5539Y8077D02*
X5539Y8157D01*
X5952Y8117D02*
X6032Y8117D01*
X5992Y8077D02*
X5992Y8157D01*
X5499Y7733D02*
X5579Y7733D01*
X5539Y7693D02*
X5539Y7773D01*
X5952Y7733D02*
X6032Y7733D01*
X5992Y7693D02*
X5992Y7773D01*
X6336Y8570D02*
X6416Y8570D01*
X6376Y8530D02*
X6376Y8610D01*
X5952Y8570D02*
X6032Y8570D01*
X5992Y8530D02*
X5992Y8610D01*
X5499Y8570D02*
X5579Y8570D01*
X5539Y8530D02*
X5539Y8610D01*
X5046Y8570D02*
X5126Y8570D01*
X5086Y8530D02*
X5086Y8610D01*
X4593Y8570D02*
X4673Y8570D01*
X4633Y8530D02*
X4633Y8610D01*
X4210Y8570D02*
X4290Y8570D01*
X4250Y8530D02*
X4250Y8610D01*
X4593Y7733D02*
X4673Y7733D01*
X4633Y7693D02*
X4633Y7773D01*
X5046Y7733D02*
X5126Y7733D01*
X5086Y7693D02*
X5086Y7773D01*
X4593Y8117D02*
X4673Y8117D01*
X4633Y8077D02*
X4633Y8157D01*
X5046Y8117D02*
X5126Y8117D01*
X5086Y8077D02*
X5086Y8157D01*
X4210Y8117D02*
X4290Y8117D01*
X4250Y8077D02*
X4250Y8157D01*
X4210Y9475D02*
X4290Y9475D01*
X4250Y9435D02*
X4250Y9515D01*
X5046Y9475D02*
X5126Y9475D01*
X5086Y9435D02*
X5086Y9515D01*
X4593Y9475D02*
X4673Y9475D01*
X4633Y9435D02*
X4633Y9515D01*
X5046Y9859D02*
X5126Y9859D01*
X5086Y9819D02*
X5086Y9899D01*
X4593Y9859D02*
X4673Y9859D01*
X4633Y9819D02*
X4633Y9899D01*
X4210Y9022D02*
X4290Y9022D01*
X4250Y8982D02*
X4250Y9062D01*
X4593Y9022D02*
X4673Y9022D01*
X4633Y8982D02*
X4633Y9062D01*
X5046Y9022D02*
X5126Y9022D01*
X5086Y8982D02*
X5086Y9062D01*
X6349Y5050D02*
X6429Y5050D01*
X6389Y5010D02*
X6389Y5090D01*
X5877Y5050D02*
X5957Y5050D01*
X5917Y5010D02*
X5917Y5090D01*
X6113Y5050D02*
X6193Y5050D01*
X6153Y5010D02*
X6153Y5090D01*
X6113Y5286D02*
X6193Y5286D01*
X6153Y5246D02*
X6153Y5326D01*
X6113Y4814D02*
X6193Y4814D01*
X6153Y4774D02*
X6153Y4854D01*
X11062Y1996D02*
X11162Y1996D01*
X11112Y1946D02*
X11112Y2046D01*
X10700Y2000D02*
X10800Y2000D01*
X10750Y1950D02*
X10750Y2050D01*
X-20075Y2285D02*
X-19995Y2285D01*
X-20035Y2245D02*
X-20035Y2325D01*
X-20508Y2285D02*
X-20428Y2285D01*
X-20468Y2245D02*
X-20468Y2325D01*
X-20075Y2718D02*
X-19995Y2718D01*
X-20035Y2678D02*
X-20035Y2758D01*
X-20508Y2718D02*
X-20428Y2718D01*
X-20468Y2678D02*
X-20468Y2758D01*
X-22007Y20717D02*
X-21927Y20717D01*
X-21967Y20677D02*
X-21967Y20757D01*
X-21573Y20717D02*
X-21493Y20717D01*
X-21533Y20677D02*
X-21533Y20757D01*
X-22007Y20283D02*
X-21927Y20283D01*
X-21967Y20243D02*
X-21967Y20323D01*
X-21573Y20283D02*
X-21493Y20283D01*
X-21533Y20243D02*
X-21533Y20323D01*
X-22290Y22997D02*
X-22210Y22997D01*
X-22250Y22957D02*
X-22250Y23037D01*
X21960Y21750D02*
X22040Y21750D01*
X22000Y21710D02*
X22000Y21790D01*
X21457Y21750D02*
X21537Y21750D01*
X21497Y21710D02*
X21497Y21790D01*
X6710Y15250D02*
X6790Y15250D01*
X6750Y15210D02*
X6750Y15290D01*
X26710Y23496D02*
X26790Y23496D01*
X26750Y23456D02*
X26750Y23536D01*
X10960Y24247D02*
X11040Y24247D01*
X11000Y24207D02*
X11000Y24287D01*
X5960Y15254D02*
X6040Y15254D01*
X6000Y15214D02*
X6000Y15294D01*
X5460Y15254D02*
X5540Y15254D01*
X5500Y15214D02*
X5500Y15294D01*
X24560Y13497D02*
X24640Y13497D01*
X24600Y13457D02*
X24600Y13537D01*
X60Y21150D02*
X140Y21150D01*
X100Y21110D02*
X100Y21190D01*
X-788Y21150D02*
X-708Y21150D01*
X-748Y21110D02*
X-748Y21190D01*
X-6365Y22193D02*
X-6285Y22193D01*
X-6325Y22153D02*
X-6325Y22233D01*
X-6640Y22000D02*
X-6560Y22000D01*
X-6600Y21960D02*
X-6600Y22040D01*
X-6915Y22193D02*
X-6835Y22193D01*
X-6875Y22153D02*
X-6875Y22233D01*
X-9514Y22193D02*
X-9434Y22193D01*
X-9474Y22153D02*
X-9474Y22233D01*
X-9790Y22000D02*
X-9710Y22000D01*
X-9750Y21960D02*
X-9750Y22040D01*
X-10065Y22193D02*
X-9985Y22193D01*
X-10025Y22153D02*
X-10025Y22233D01*
X-3040Y21251D02*
X-2960Y21251D01*
X-3000Y21211D02*
X-3000Y21291D01*
X-1291Y21746D02*
X-1211Y21746D01*
X-1251Y21706D02*
X-1251Y21786D01*
X-1042Y22000D02*
X-962Y22000D01*
X-1002Y21960D02*
X-1002Y22040D01*
X-6365Y21775D02*
X-6285Y21775D01*
X-6325Y21735D02*
X-6325Y21815D01*
X5992Y3735D02*
X6072Y3735D01*
X6032Y3695D02*
X6032Y3775D01*
X5762Y3735D02*
X5842Y3735D01*
X5802Y3695D02*
X5802Y3775D01*
X-19043Y25500D02*
X-18963Y25500D01*
X-19003Y25460D02*
X-19003Y25540D01*
X-17540Y31700D02*
X-17460Y31700D01*
X-17500Y31660D02*
X-17500Y31740D01*
X-17540Y32050D02*
X-17460Y32050D01*
X-17500Y32010D02*
X-17500Y32090D01*
X-18290Y32050D02*
X-18210Y32050D01*
X-18250Y32010D02*
X-18250Y32090D01*
X-17540Y31350D02*
X-17460Y31350D01*
X-17500Y31310D02*
X-17500Y31390D01*
X-17540Y31000D02*
X-17460Y31000D01*
X-17500Y30960D02*
X-17500Y31040D01*
X-18290Y31350D02*
X-18210Y31350D01*
X-18250Y31310D02*
X-18250Y31390D01*
X-18290Y31000D02*
X-18210Y31000D01*
X-18250Y30960D02*
X-18250Y31040D01*
X-17540Y32400D02*
X-17460Y32400D01*
X-17500Y32360D02*
X-17500Y32440D01*
X-17540Y32750D02*
X-17460Y32750D01*
X-17500Y32710D02*
X-17500Y32790D01*
X-17190Y32750D02*
X-17110Y32750D01*
X-17150Y32710D02*
X-17150Y32790D01*
X-17190Y32400D02*
X-17110Y32400D01*
X-17150Y32360D02*
X-17150Y32440D01*
X-17190Y32050D02*
X-17110Y32050D01*
X-17150Y32010D02*
X-17150Y32090D01*
X-17190Y31700D02*
X-17110Y31700D01*
X-17150Y31660D02*
X-17150Y31740D01*
X-17190Y31350D02*
X-17110Y31350D01*
X-17150Y31310D02*
X-17150Y31390D01*
X-17190Y31000D02*
X-17110Y31000D01*
X-17150Y30960D02*
X-17150Y31040D01*
X-18640Y32050D02*
X-18560Y32050D01*
X-18600Y32010D02*
X-18600Y32090D01*
X-17190Y33100D02*
X-17110Y33100D01*
X-17150Y33060D02*
X-17150Y33140D01*
X-18640Y33100D02*
X-18560Y33100D01*
X-18600Y33060D02*
X-18600Y33140D01*
X-17790Y33750D02*
X-17710Y33750D01*
X-17750Y33710D02*
X-17750Y33790D01*
X-18175Y33750D02*
X-18095Y33750D01*
X-18135Y33710D02*
X-18135Y33790D01*
X-17790Y34135D02*
X-17710Y34135D01*
X-17750Y34095D02*
X-17750Y34175D01*
X-18175Y34135D02*
X-18095Y34135D01*
X-18135Y34095D02*
X-18135Y34175D01*
X-13905Y34135D02*
X-13825Y34135D01*
X-13865Y34095D02*
X-13865Y34175D01*
X-14290Y34135D02*
X-14210Y34135D01*
X-14250Y34095D02*
X-14250Y34175D01*
X-13905Y33750D02*
X-13825Y33750D01*
X-13865Y33710D02*
X-13865Y33790D01*
X-14290Y33750D02*
X-14210Y33750D01*
X-14250Y33710D02*
X-14250Y33790D01*
X-13440Y33100D02*
X-13360Y33100D01*
X-13400Y33060D02*
X-13400Y33140D01*
X-14890Y33100D02*
X-14810Y33100D01*
X-14850Y33060D02*
X-14850Y33140D01*
X-13440Y32050D02*
X-13360Y32050D01*
X-13400Y32010D02*
X-13400Y32090D01*
X-14890Y31000D02*
X-14810Y31000D01*
X-14850Y30960D02*
X-14850Y31040D01*
X-14890Y31350D02*
X-14810Y31350D01*
X-14850Y31310D02*
X-14850Y31390D01*
X-14890Y31700D02*
X-14810Y31700D01*
X-14850Y31660D02*
X-14850Y31740D01*
X-14890Y32050D02*
X-14810Y32050D01*
X-14850Y32010D02*
X-14850Y32090D01*
X-14890Y32400D02*
X-14810Y32400D01*
X-14850Y32360D02*
X-14850Y32440D01*
X-14890Y32750D02*
X-14810Y32750D01*
X-14850Y32710D02*
X-14850Y32790D01*
X-14540Y32750D02*
X-14460Y32750D01*
X-14500Y32710D02*
X-14500Y32790D01*
X-14540Y32400D02*
X-14460Y32400D01*
X-14500Y32360D02*
X-14500Y32440D01*
X-13790Y31000D02*
X-13710Y31000D01*
X-13750Y30960D02*
X-13750Y31040D01*
X-13790Y31350D02*
X-13710Y31350D01*
X-13750Y31310D02*
X-13750Y31390D01*
X-14540Y31000D02*
X-14460Y31000D01*
X-14500Y30960D02*
X-14500Y31040D01*
X-14540Y31350D02*
X-14460Y31350D01*
X-14500Y31310D02*
X-14500Y31390D01*
X-13790Y32050D02*
X-13710Y32050D01*
X-13750Y32010D02*
X-13750Y32090D01*
X-14540Y32050D02*
X-14460Y32050D01*
X-14500Y32010D02*
X-14500Y32090D01*
X-14540Y31700D02*
X-14460Y31700D01*
X-14500Y31660D02*
X-14500Y31740D01*
X25959Y12747D02*
X26039Y12747D01*
X25999Y12707D02*
X25999Y12787D01*
X24207Y12747D02*
X24287Y12747D01*
X24247Y12707D02*
X24247Y12787D01*
X3653Y6107D02*
X3733Y6107D01*
X3693Y6067D02*
X3693Y6147D01*
X18460Y7750D02*
X18540Y7750D01*
X18500Y7710D02*
X18500Y7790D01*
X3815Y5944D02*
X3895Y5944D01*
X3855Y5904D02*
X3855Y5984D01*
X18460Y7250D02*
X18540Y7250D01*
X18500Y7210D02*
X18500Y7290D01*
X6946Y7064D02*
X7026Y7064D01*
X6986Y7024D02*
X6986Y7104D01*
X86Y5000D02*
X166Y5000D01*
X126Y4960D02*
X126Y5040D01*
X-144Y5000D02*
X-64Y5000D01*
X-104Y4960D02*
X-104Y5040D01*
X4798Y4929D02*
X4878Y4929D01*
X4838Y4889D02*
X4838Y4969D01*
X4798Y4699D02*
X4878Y4699D01*
X4838Y4659D02*
X4838Y4739D01*
X5130Y5171D02*
X5210Y5171D01*
X5170Y5131D02*
X5170Y5211D01*
X5130Y5401D02*
X5210Y5401D01*
X5170Y5361D02*
X5170Y5441D01*
X1054Y7852D02*
X1134Y7852D01*
X1094Y7812D02*
X1094Y7892D01*
X1054Y7350D02*
X1134Y7350D01*
X1094Y7310D02*
X1094Y7390D01*
X2960Y7450D02*
X3040Y7450D01*
X3000Y7410D02*
X3000Y7490D01*
X2960Y7749D02*
X3040Y7749D01*
X3000Y7709D02*
X3000Y7789D01*
X-1291Y28400D02*
X-1211Y28400D01*
X-1251Y28360D02*
X-1251Y28440D01*
X16460Y13247D02*
X16540Y13247D01*
X16500Y13207D02*
X16500Y13287D01*
X-927Y26250D02*
X-847Y26250D01*
X-887Y26210D02*
X-887Y26290D01*
X3207Y30200D02*
X3287Y30200D01*
X3247Y30160D02*
X3247Y30240D01*
X254Y26250D02*
X334Y26250D01*
X294Y26210D02*
X294Y26290D01*
X13210Y8501D02*
X13290Y8501D01*
X13250Y8461D02*
X13250Y8541D01*
X-29290Y4250D02*
X-29210Y4250D01*
X-29250Y4210D02*
X-29250Y4290D01*
X-25333Y3496D02*
X-25253Y3496D01*
X-25293Y3456D02*
X-25293Y3536D01*
X15958Y23496D02*
X16038Y23496D01*
X15998Y23456D02*
X15998Y23536D01*
X15958Y24247D02*
X16038Y24247D01*
X15998Y24207D02*
X15998Y24287D01*
X16210Y29250D02*
X16290Y29250D01*
X16250Y29210D02*
X16250Y29290D01*
X15460Y29250D02*
X15540Y29250D01*
X15500Y29210D02*
X15500Y29290D01*
X22960Y12250D02*
X23040Y12250D01*
X23000Y12210D02*
X23000Y12290D01*
X22960Y13750D02*
X23040Y13750D01*
X23000Y13710D02*
X23000Y13790D01*
X26460Y11650D02*
X26540Y11650D01*
X26500Y11610D02*
X26500Y11690D01*
X25709Y10503D02*
X25789Y10503D01*
X25749Y10463D02*
X25749Y10543D01*
X22460Y13750D02*
X22540Y13750D01*
X22500Y13710D02*
X22500Y13790D01*
X24460Y10250D02*
X24540Y10250D01*
X24500Y10210D02*
X24500Y10290D01*
X24959Y10000D02*
X25039Y10000D01*
X24999Y9960D02*
X24999Y10040D01*
X27710Y34000D02*
X27790Y34000D01*
X27750Y33960D02*
X27750Y34040D01*
X28960Y34500D02*
X29040Y34500D01*
X29000Y34460D02*
X29000Y34540D01*
X-22787Y33500D02*
X-22707Y33500D01*
X-22747Y33460D02*
X-22747Y33540D01*
X-22290Y33500D02*
X-22210Y33500D01*
X-22250Y33460D02*
X-22250Y33540D01*
X-23290Y27500D02*
X-23210Y27500D01*
X-23250Y27460D02*
X-23250Y27540D01*
X-15290Y20751D02*
X-15210Y20751D01*
X-15250Y20711D02*
X-15250Y20791D01*
X-2541Y21501D02*
X-2461Y21501D01*
X-2501Y21461D02*
X-2501Y21541D01*
X15964Y12254D02*
X16044Y12254D01*
X16004Y12214D02*
X16004Y12294D01*
X14710Y14500D02*
X14790Y14500D01*
X14750Y14460D02*
X14750Y14540D01*
X-21840Y19000D02*
X-21760Y19000D01*
X-21800Y18960D02*
X-21800Y19040D01*
X-20539Y19251D02*
X-20459Y19251D01*
X-20499Y19211D02*
X-20499Y19291D01*
X-15787Y19750D02*
X-15707Y19750D01*
X-15747Y19710D02*
X-15747Y19790D01*
X10960Y13000D02*
X11040Y13000D01*
X11000Y12960D02*
X11000Y13040D01*
X12710Y10500D02*
X12790Y10500D01*
X12750Y10460D02*
X12750Y10540D01*
X11960Y11500D02*
X12040Y11500D01*
X12000Y11460D02*
X12000Y11540D01*
X11210Y12753D02*
X11290Y12753D01*
X11250Y12713D02*
X11250Y12793D01*
X14960Y8500D02*
X15040Y8500D01*
X15000Y8460D02*
X15000Y8540D01*
X12956Y8250D02*
X13036Y8250D01*
X12996Y8210D02*
X12996Y8290D01*
X-12188Y16543D02*
X-12108Y16543D01*
X-12148Y16503D02*
X-12148Y16583D01*
X-12188Y16143D02*
X-12108Y16143D01*
X-12148Y16103D02*
X-12148Y16183D01*
X24353Y4492D02*
X24433Y4492D01*
X24393Y4452D02*
X24393Y4532D01*
X-11290Y14446D02*
X-11210Y14446D01*
X-11250Y14406D02*
X-11250Y14486D01*
X-16599Y3047D02*
X-16519Y3047D01*
X-16559Y3007D02*
X-16559Y3087D01*
X2910Y12233D02*
X2990Y12233D01*
X2950Y12193D02*
X2950Y12273D01*
X-41Y10983D02*
X39Y10983D01*
X-1Y10943D02*
X-1Y11023D01*
X-10285Y4250D02*
X-10205Y4250D01*
X-10245Y4210D02*
X-10245Y4290D01*
X8960Y8835D02*
X9040Y8835D01*
X9000Y8795D02*
X9000Y8875D01*
X10710Y6998D02*
X10790Y6998D01*
X10750Y6958D02*
X10750Y7038D01*
X-3790Y4500D02*
X-3710Y4500D01*
X-3750Y4460D02*
X-3750Y4540D01*
X-6540Y4500D02*
X-6460Y4500D01*
X-6500Y4460D02*
X-6500Y4540D01*
X-4041Y4250D02*
X-3961Y4250D01*
X-4001Y4210D02*
X-4001Y4290D01*
X-8040Y4250D02*
X-7960Y4250D01*
X-8000Y4210D02*
X-8000Y4290D01*
X-8790Y3997D02*
X-8710Y3997D01*
X-8750Y3957D02*
X-8750Y4037D01*
X-3790Y3997D02*
X-3710Y3997D01*
X-3750Y3957D02*
X-3750Y4037D01*
X-4540Y1250D02*
X-4460Y1250D01*
X-4500Y1210D02*
X-4500Y1290D01*
X-13490Y31250D02*
X-13410Y31250D01*
X-13450Y31210D02*
X-13450Y31290D01*
X-9290Y29350D02*
X-9210Y29350D01*
X-9250Y29310D02*
X-9250Y29390D01*
X-7289Y32998D02*
X-7209Y32998D01*
X-7249Y32958D02*
X-7249Y33038D01*
X-6540Y32527D02*
X-6460Y32527D01*
X-6500Y32487D02*
X-6500Y32567D01*
X-12490Y30450D02*
X-12410Y30450D01*
X-12450Y30410D02*
X-12450Y30490D01*
X-12490Y30157D02*
X-12410Y30157D01*
X-12450Y30117D02*
X-12450Y30197D01*
X-12490Y29850D02*
X-12410Y29850D01*
X-12450Y29810D02*
X-12450Y29890D01*
X-290Y33000D02*
X-210Y33000D01*
X-250Y32960D02*
X-250Y33040D01*
X-788Y32249D02*
X-708Y32249D01*
X-748Y32209D02*
X-748Y32289D01*
X11960Y30250D02*
X12040Y30250D01*
X12000Y30210D02*
X12000Y30290D01*
X9710Y26750D02*
X9790Y26750D01*
X9750Y26710D02*
X9750Y26790D01*
X9710Y27250D02*
X9790Y27250D01*
X9750Y27210D02*
X9750Y27290D01*
X9710Y27800D02*
X9790Y27800D01*
X9750Y27760D02*
X9750Y27840D01*
X23960Y28000D02*
X24040Y28000D01*
X24000Y27960D02*
X24000Y28040D01*
X22207Y28002D02*
X22287Y28002D01*
X22247Y27962D02*
X22247Y28042D01*
X25210Y23000D02*
X25290Y23000D01*
X25250Y22960D02*
X25250Y23040D01*
X14960Y29500D02*
X15040Y29500D01*
X15000Y29460D02*
X15000Y29540D01*
X-5883Y22161D02*
X-5803Y22161D01*
X-5843Y22121D02*
X-5843Y22201D01*
X-21640Y19350D02*
X-21560Y19350D01*
X-21600Y19310D02*
X-21600Y19390D01*
X-20340Y20500D02*
X-20260Y20500D01*
X-20300Y20460D02*
X-20300Y20540D01*
X-23190Y20500D02*
X-23110Y20500D01*
X-23150Y20460D02*
X-23150Y20540D01*
X-19829Y26992D02*
X-19749Y26992D01*
X-19789Y26952D02*
X-19789Y27032D01*
X-19582Y27232D02*
X-19502Y27232D01*
X-19542Y27192D02*
X-19542Y27271D01*
X-20315Y27000D02*
X-20235Y27000D01*
X-20275Y26960D02*
X-20275Y27040D01*
X-20068Y27239D02*
X-19988Y27239D01*
X-20028Y27199D02*
X-20028Y27279D01*
X-20554Y27247D02*
X-20474Y27247D01*
X-20514Y27207D02*
X-20514Y27287D01*
X-21040Y27239D02*
X-20960Y27239D01*
X-21000Y27199D02*
X-21000Y27279D01*
X-20793Y27000D02*
X-20713Y27000D01*
X-20753Y26960D02*
X-20753Y27040D01*
X-28216Y18593D02*
X-28136Y18593D01*
X-28176Y18553D02*
X-28176Y18633D01*
X-30746Y16063D02*
X-30666Y16063D01*
X-30706Y16023D02*
X-30706Y16103D01*
X-31678Y16995D02*
X-31598Y16995D01*
X-31638Y16955D02*
X-31638Y17035D01*
X-30746Y21122D02*
X-30666Y21122D01*
X-30706Y21082D02*
X-30706Y21162D01*
X7210Y10150D02*
X7290Y10150D01*
X7250Y10110D02*
X7250Y10190D01*
X7795Y5365D02*
X7875Y5365D01*
X7835Y5325D02*
X7835Y5405D01*
X6410Y2950D02*
X6490Y2950D01*
X6450Y2910D02*
X6450Y2990D01*
X5710Y2502D02*
X5790Y2502D01*
X5750Y2462D02*
X5750Y2542D01*
X3710Y550D02*
X3790Y550D01*
X3750Y510D02*
X3750Y590D01*
X710Y5050D02*
X790Y5050D01*
X750Y5010D02*
X750Y5090D01*
X709Y4542D02*
X789Y4542D01*
X749Y4502D02*
X749Y4582D01*
X9426Y6276D02*
X9506Y6276D01*
X9466Y6236D02*
X9466Y6316D01*
X9820Y6276D02*
X9900Y6276D01*
X9860Y6236D02*
X9860Y6316D01*
X8521Y6276D02*
X8601Y6276D01*
X8561Y6236D02*
X8561Y6316D01*
X8914Y6276D02*
X8994Y6276D01*
X8954Y6236D02*
X8954Y6316D01*
X1373Y6670D02*
X1453Y6670D01*
X1413Y6630D02*
X1413Y6710D01*
X1373Y6048D02*
X1453Y6048D01*
X1413Y6008D02*
X1413Y6088D01*
X2001Y9400D02*
X2081Y9400D01*
X2041Y9360D02*
X2041Y9440D01*
X2714Y8501D02*
X2794Y8501D01*
X2754Y8461D02*
X2754Y8541D01*
X2714Y10700D02*
X2794Y10700D01*
X2754Y10660D02*
X2754Y10740D01*
X2210Y10700D02*
X2290Y10700D01*
X2250Y10660D02*
X2250Y10740D01*
X1710Y10700D02*
X1790Y10700D01*
X1750Y10660D02*
X1750Y10740D01*
X8717Y9889D02*
X8797Y9889D01*
X8757Y9849D02*
X8757Y9929D01*
X8717Y10125D02*
X8797Y10125D01*
X8757Y10085D02*
X8757Y10165D01*
X13110Y2280D02*
X13190Y2280D01*
X13150Y2240D02*
X13150Y2320D01*
X15960Y7000D02*
X16040Y7000D01*
X16000Y6960D02*
X16000Y7040D01*
X15072Y4752D02*
X15152Y4752D01*
X15112Y4712D02*
X15112Y4792D01*
X12710Y5750D02*
X12790Y5750D01*
X12750Y5710D02*
X12750Y5790D01*
X15360Y8245D02*
X15440Y8245D01*
X15400Y8205D02*
X15400Y8285D01*
X22463Y11250D02*
X22543Y11250D01*
X22503Y11210D02*
X22503Y11290D01*
X22963Y11250D02*
X23043Y11250D01*
X23003Y11210D02*
X23003Y11290D01*
X27210Y9185D02*
X27290Y9185D01*
X27250Y9145D02*
X27250Y9225D01*
X26660Y10005D02*
X26740Y10005D01*
X26700Y9965D02*
X26700Y10045D01*
X27460Y10005D02*
X27540Y10005D01*
X27500Y9965D02*
X27500Y10045D01*
X29709Y9400D02*
X29789Y9400D01*
X29749Y9360D02*
X29749Y9440D01*
X30210Y8001D02*
X30290Y8001D01*
X30250Y7961D02*
X30250Y8041D01*
X29960Y8250D02*
X30040Y8250D01*
X30000Y8210D02*
X30000Y8290D01*
X29210Y11750D02*
X29290Y11750D01*
X29250Y11710D02*
X29250Y11790D01*
X19960Y8750D02*
X20040Y8750D01*
X20000Y8710D02*
X20000Y8790D01*
X30160Y9000D02*
X30240Y9000D01*
X30200Y8960D02*
X30200Y9040D01*
X-2541Y12500D02*
X-2461Y12500D01*
X-2501Y12460D02*
X-2501Y12540D01*
X14710Y11487D02*
X14790Y11487D01*
X14750Y11447D02*
X14750Y11527D01*
X15210Y11500D02*
X15290Y11500D01*
X15250Y11460D02*
X15250Y11540D01*
X-23140Y2500D02*
X-23060Y2500D01*
X-23100Y2460D02*
X-23100Y2540D01*
X2668Y28342D02*
X2748Y28342D01*
X2708Y28302D02*
X2708Y28382D01*
X-10587Y17161D02*
X-10507Y17161D01*
X-10547Y17121D02*
X-10547Y17201D01*
X-1040Y13000D02*
X-960Y13000D01*
X-1000Y12960D02*
X-1000Y13040D01*
X-1041Y12000D02*
X-961Y12000D01*
X-1001Y11960D02*
X-1001Y12040D01*
X-39Y12000D02*
X41Y12000D01*
X1Y11960D02*
X1Y12040D01*
X-791Y11747D02*
X-711Y11747D01*
X-751Y11707D02*
X-751Y11787D01*
X-2540Y17701D02*
X-2460Y17701D01*
X-2500Y17661D02*
X-2500Y17741D01*
X-6915Y21775D02*
X-6835Y21775D01*
X-6875Y21735D02*
X-6875Y21815D01*
X-1291Y15938D02*
X-1211Y15938D01*
X-1251Y15898D02*
X-1251Y15978D01*
X-4540Y17250D02*
X-4460Y17250D01*
X-4500Y17210D02*
X-4500Y17290D01*
X28713Y14050D02*
X28793Y14050D01*
X28753Y14010D02*
X28753Y14090D01*
X28718Y19948D02*
X28798Y19948D01*
X28758Y19908D02*
X28758Y19988D01*
X25765Y16995D02*
X25845Y16995D01*
X25805Y16955D02*
X25805Y17035D01*
X24960Y16997D02*
X25040Y16997D01*
X25000Y16957D02*
X25000Y17037D01*
X20960Y5251D02*
X21040Y5251D01*
X21000Y5211D02*
X21000Y5291D01*
X26736Y7751D02*
X26816Y7751D01*
X26776Y7711D02*
X26776Y7791D01*
X25610Y7750D02*
X25690Y7750D01*
X25650Y7710D02*
X25650Y7790D01*
X27716Y7000D02*
X27796Y7000D01*
X27756Y6960D02*
X27756Y7040D01*
X24965Y5250D02*
X25045Y5250D01*
X25005Y5210D02*
X25005Y5290D01*
X25210Y5000D02*
X25290Y5000D01*
X25250Y4960D02*
X25250Y5040D01*
X19210Y6750D02*
X19290Y6750D01*
X19250Y6710D02*
X19250Y6790D01*
X26139Y3002D02*
X26219Y3002D01*
X26179Y2962D02*
X26179Y3042D01*
X26389Y2750D02*
X26469Y2750D01*
X26429Y2710D02*
X26429Y2790D01*
X26139Y2507D02*
X26219Y2507D01*
X26179Y2467D02*
X26179Y2547D01*
X22210Y4250D02*
X22290Y4250D01*
X22250Y4210D02*
X22250Y4290D01*
X12464Y15250D02*
X12544Y15250D01*
X12504Y15210D02*
X12504Y15290D01*
X12464Y15751D02*
X12544Y15751D01*
X12504Y15711D02*
X12504Y15791D01*
X12460Y16253D02*
X12540Y16253D01*
X12500Y16213D02*
X12500Y16293D01*
X12460Y16750D02*
X12540Y16750D01*
X12500Y16710D02*
X12500Y16790D01*
X12464Y17253D02*
X12544Y17253D01*
X12504Y17213D02*
X12504Y17293D01*
X12464Y17750D02*
X12544Y17750D01*
X12504Y17710D02*
X12504Y17790D01*
X12464Y18248D02*
X12544Y18248D01*
X12504Y18208D02*
X12504Y18288D01*
X12464Y18750D02*
X12544Y18750D01*
X12504Y18710D02*
X12504Y18790D01*
X12460Y19250D02*
X12540Y19250D01*
X12500Y19210D02*
X12500Y19290D01*
X12464Y19754D02*
X12544Y19754D01*
X12504Y19714D02*
X12504Y19794D01*
X12460Y20250D02*
X12540Y20250D01*
X12500Y20210D02*
X12500Y20290D01*
X12464Y20751D02*
X12544Y20751D01*
X12504Y20711D02*
X12504Y20791D01*
X12460Y21250D02*
X12540Y21250D01*
X12500Y21210D02*
X12500Y21290D01*
X12464Y21753D02*
X12544Y21753D01*
X12504Y21713D02*
X12504Y21793D01*
X12469Y22250D02*
X12549Y22250D01*
X12509Y22210D02*
X12509Y22290D01*
X12460Y22750D02*
X12540Y22750D01*
X12500Y22710D02*
X12500Y22790D01*
X16708Y21500D02*
X16788Y21500D01*
X16748Y21460D02*
X16748Y21540D01*
X15710Y16000D02*
X15790Y16000D01*
X15750Y15960D02*
X15750Y16040D01*
X14960Y15751D02*
X15040Y15751D01*
X15000Y15711D02*
X15000Y15791D01*
X20210Y17248D02*
X20290Y17248D01*
X20250Y17208D02*
X20250Y17288D01*
X20210Y18248D02*
X20290Y18248D01*
X20250Y18208D02*
X20250Y18288D01*
X19960Y18500D02*
X20040Y18500D01*
X20000Y18460D02*
X20000Y18540D01*
X21710Y18248D02*
X21790Y18248D01*
X21750Y18208D02*
X21750Y18288D01*
X19960Y17005D02*
X20040Y17005D01*
X20000Y16965D02*
X20000Y17045D01*
X19710Y16750D02*
X19790Y16750D01*
X19750Y16710D02*
X19750Y16790D01*
X19710Y19000D02*
X19790Y19000D01*
X19750Y18960D02*
X19750Y19040D01*
X19460Y19250D02*
X19540Y19250D01*
X19500Y19210D02*
X19500Y19290D01*
X19460Y16497D02*
X19540Y16497D01*
X19500Y16457D02*
X19500Y16537D01*
X17960Y19754D02*
X18040Y19754D01*
X18000Y19714D02*
X18000Y19794D01*
X18460Y17248D02*
X18540Y17248D01*
X18500Y17208D02*
X18500Y17288D01*
X17960Y17500D02*
X18040Y17500D01*
X18000Y17460D02*
X18000Y17540D01*
X17710Y20003D02*
X17790Y20003D01*
X17750Y19963D02*
X17750Y20043D01*
X17710Y17248D02*
X17790Y17248D01*
X17750Y17208D02*
X17750Y17288D01*
X17460Y20500D02*
X17540Y20500D01*
X17500Y20460D02*
X17500Y20540D01*
X17206Y20747D02*
X17286Y20747D01*
X17246Y20707D02*
X17246Y20787D01*
X16960Y21003D02*
X17040Y21003D01*
X17000Y20963D02*
X17000Y21043D01*
X16712Y16000D02*
X16792Y16000D01*
X16752Y15960D02*
X16752Y16040D01*
X16460Y21250D02*
X16540Y21250D01*
X16500Y21210D02*
X16500Y21290D01*
X16210Y21750D02*
X16290Y21750D01*
X16250Y21710D02*
X16250Y21790D01*
X17206Y17250D02*
X17286Y17250D01*
X17246Y17210D02*
X17246Y17290D01*
X16960Y17000D02*
X17040Y17000D01*
X17000Y16960D02*
X17000Y17040D01*
X16708Y16750D02*
X16788Y16750D01*
X16748Y16710D02*
X16748Y16790D01*
X16460Y17005D02*
X16540Y17005D01*
X16500Y16965D02*
X16500Y17045D01*
X16210Y16750D02*
X16290Y16750D01*
X16250Y16710D02*
X16250Y16790D01*
X17208Y15500D02*
X17288Y15500D01*
X17248Y15460D02*
X17248Y15540D01*
X17459Y15251D02*
X17539Y15251D01*
X17499Y15211D02*
X17499Y15291D01*
X21460Y16750D02*
X21540Y16750D01*
X21500Y16710D02*
X21500Y16790D01*
X21207Y17760D02*
X21287Y17760D01*
X21247Y17720D02*
X21247Y17800D01*
X21460Y18003D02*
X21540Y18003D01*
X21500Y17963D02*
X21500Y18043D01*
X21460Y17510D02*
X21540Y17510D01*
X21500Y17470D02*
X21500Y17550D01*
X22210Y17250D02*
X22290Y17250D01*
X22250Y17210D02*
X22250Y17290D01*
X21960Y16990D02*
X22040Y16990D01*
X22000Y16950D02*
X22000Y17030D01*
X22210Y20500D02*
X22290Y20500D01*
X22250Y20460D02*
X22250Y20540D01*
X21954Y20750D02*
X22034Y20750D01*
X21994Y20710D02*
X21994Y20790D01*
X-32790Y29106D02*
X-32710Y29106D01*
X-32750Y29066D02*
X-32750Y29146D01*
X15959Y15751D02*
X16039Y15751D01*
X15999Y15711D02*
X15999Y15791D01*
X15460Y14250D02*
X15540Y14250D01*
X15500Y14210D02*
X15500Y14290D01*
X15210Y15000D02*
X15290Y15000D01*
X15250Y14960D02*
X15250Y15040D01*
X14460Y15250D02*
X14540Y15250D01*
X14500Y15210D02*
X14500Y15290D01*
X14210Y15504D02*
X14290Y15504D01*
X14250Y15464D02*
X14250Y15544D01*
X14215Y14497D02*
X14295Y14497D01*
X14255Y14457D02*
X14255Y14537D01*
X-7290Y32500D02*
X-7210Y32500D01*
X-7250Y32460D02*
X-7250Y32540D01*
X-4041Y32750D02*
X-3961Y32750D01*
X-4001Y32710D02*
X-4001Y32790D01*
X-1790Y33000D02*
X-1710Y33000D01*
X-1750Y32960D02*
X-1750Y33040D01*
X-4542Y32750D02*
X-4462Y32750D01*
X-4502Y32710D02*
X-4502Y32790D01*
X-3041Y32752D02*
X-2961Y32752D01*
X-3001Y32712D02*
X-3001Y32792D01*
X-2041Y32752D02*
X-1961Y32752D01*
X-2001Y32712D02*
X-2001Y32792D01*
X-5140Y25000D02*
X-5060Y25000D01*
X-5100Y24960D02*
X-5100Y25040D01*
X-1041Y32500D02*
X-961Y32500D01*
X-1001Y32460D02*
X-1001Y32540D01*
X-2698Y28750D02*
X-2618Y28750D01*
X-2659Y28710D02*
X-2659Y28790D01*
X1210Y32250D02*
X1290Y32250D01*
X1250Y32210D02*
X1250Y32290D01*
X-1288Y30212D02*
X-1208Y30212D01*
X-1248Y30172D02*
X-1248Y30252D01*
X3207Y31150D02*
X3287Y31150D01*
X3247Y31110D02*
X3247Y31190D01*
X2660Y30800D02*
X2740Y30800D01*
X2700Y30760D02*
X2700Y30840D01*
X-3289Y28750D02*
X-3209Y28750D01*
X-3249Y28710D02*
X-3249Y28790D01*
X22960Y21750D02*
X23040Y21750D01*
X23000Y21710D02*
X23000Y21790D01*
X-2108Y28352D02*
X-2028Y28352D01*
X-2068Y28312D02*
X-2068Y28392D01*
X-7890Y29850D02*
X-7810Y29850D01*
X-7850Y29810D02*
X-7850Y29890D01*
X-8290Y29600D02*
X-8210Y29600D01*
X-8250Y29560D02*
X-8250Y29640D01*
X-7190Y28750D02*
X-7110Y28750D01*
X-7150Y28710D02*
X-7150Y28790D01*
X7710Y31250D02*
X7790Y31250D01*
X7750Y31210D02*
X7750Y31290D01*
X7460Y31500D02*
X7540Y31500D01*
X7500Y31460D02*
X7500Y31540D01*
X845Y26250D02*
X925Y26250D01*
X885Y26210D02*
X885Y26290D01*
X6960Y28500D02*
X7040Y28500D01*
X7000Y28460D02*
X7000Y28540D01*
X2026Y28252D02*
X2106Y28252D01*
X2066Y28212D02*
X2066Y28292D01*
X-12540Y23750D02*
X-12460Y23750D01*
X-12500Y23710D02*
X-12500Y23790D01*
X-12790Y24000D02*
X-12710Y24000D01*
X-12750Y23960D02*
X-12750Y24040D01*
X14960Y7751D02*
X15040Y7751D01*
X15000Y7711D02*
X15000Y7791D01*
X16960Y8750D02*
X17040Y8750D01*
X17000Y8710D02*
X17000Y8790D01*
X12460Y8250D02*
X12540Y8250D01*
X12500Y8210D02*
X12500Y8290D01*
X12210Y8001D02*
X12290Y8001D01*
X12250Y7961D02*
X12250Y8041D01*
X12210Y6500D02*
X12290Y6500D01*
X12250Y6460D02*
X12250Y6540D01*
X11960Y8250D02*
X12040Y8250D01*
X12000Y8210D02*
X12000Y8290D01*
X11960Y6750D02*
X12040Y6750D01*
X12000Y6710D02*
X12000Y6790D01*
X11710Y8000D02*
X11790Y8000D01*
X11750Y7960D02*
X11750Y8040D01*
X11710Y6000D02*
X11790Y6000D01*
X11750Y5960D02*
X11750Y6040D01*
X11460Y6250D02*
X11540Y6250D01*
X11500Y6210D02*
X11500Y6290D01*
X11460Y8250D02*
X11540Y8250D01*
X11500Y8210D02*
X11500Y8290D01*
X11206Y5750D02*
X11286Y5750D01*
X11246Y5710D02*
X11246Y5790D01*
X11210Y8000D02*
X11290Y8000D01*
X11250Y7960D02*
X11250Y8040D01*
X27710Y17250D02*
X27790Y17250D01*
X27750Y17210D02*
X27750Y17290D01*
X27457Y16997D02*
X27537Y16997D01*
X27497Y16957D02*
X27497Y17037D01*
X27457Y18248D02*
X27537Y18248D01*
X27497Y18208D02*
X27497Y18288D01*
X27710Y18500D02*
X27790Y18500D01*
X27750Y18460D02*
X27750Y18540D01*
X28957Y18500D02*
X29037Y18500D01*
X28997Y18460D02*
X28997Y18540D01*
X29210Y18750D02*
X29290Y18750D01*
X29250Y18710D02*
X29250Y18790D01*
X25960Y20250D02*
X26040Y20250D01*
X26000Y20210D02*
X26000Y20290D01*
X24710Y20500D02*
X24790Y20500D01*
X24750Y20460D02*
X24750Y20540D01*
X24963Y20253D02*
X25043Y20253D01*
X25003Y20213D02*
X25003Y20293D01*
X24210Y22250D02*
X24290Y22250D01*
X24250Y22210D02*
X24250Y22290D01*
X24459Y22500D02*
X24539Y22500D01*
X24499Y22460D02*
X24499Y22540D01*
X22710Y22000D02*
X22790Y22000D01*
X22750Y21960D02*
X22750Y22040D01*
X27710Y19250D02*
X27790Y19250D01*
X27750Y19210D02*
X27750Y19290D01*
X26960Y17000D02*
X27040Y17000D01*
X27000Y16960D02*
X27000Y17040D01*
X25960Y13997D02*
X26040Y13997D01*
X26000Y13957D02*
X26000Y14037D01*
X26210Y15004D02*
X26290Y15004D01*
X26250Y14964D02*
X26250Y15044D01*
X26460Y14750D02*
X26540Y14750D01*
X26500Y14710D02*
X26500Y14790D01*
X26710Y14500D02*
X26790Y14500D01*
X26750Y14460D02*
X26750Y14540D01*
X26960Y14248D02*
X27040Y14248D01*
X27000Y14208D02*
X27000Y14288D01*
X26210Y16750D02*
X26290Y16750D01*
X26250Y16710D02*
X26250Y16790D01*
X17710Y15500D02*
X17790Y15500D01*
X17750Y15460D02*
X17750Y15540D01*
X16460Y14250D02*
X16540Y14250D01*
X16500Y14210D02*
X16500Y14290D01*
X18460Y6250D02*
X18540Y6250D01*
X18500Y6210D02*
X18500Y6290D01*
X-6790Y28900D02*
X-6710Y28900D01*
X-6750Y28860D02*
X-6750Y28940D01*
X-8603Y28656D02*
X-8523Y28656D01*
X-8563Y28616D02*
X-8563Y28696D01*
X-22540Y22750D02*
X-22460Y22750D01*
X-22500Y22710D02*
X-22500Y22790D01*
X8960Y30000D02*
X9040Y30000D01*
X9000Y29960D02*
X9000Y30040D01*
X12710Y30000D02*
X12790Y30000D01*
X12750Y29960D02*
X12750Y30040D01*
X14460Y28252D02*
X14540Y28252D01*
X14500Y28212D02*
X14500Y28292D01*
X9210Y29750D02*
X9290Y29750D01*
X9250Y29710D02*
X9250Y29790D01*
X14210Y28002D02*
X14290Y28002D01*
X14250Y27962D02*
X14250Y28042D01*
X12460Y29750D02*
X12540Y29750D01*
X12500Y29710D02*
X12500Y29790D01*
X10210Y33250D02*
X10290Y33250D01*
X10250Y33210D02*
X10250Y33290D01*
X10210Y32750D02*
X10290Y32750D01*
X10250Y32710D02*
X10250Y32790D01*
X10460Y33000D02*
X10540Y33000D01*
X10500Y32960D02*
X10500Y33040D01*
X29709Y7495D02*
X29789Y7495D01*
X29749Y7455D02*
X29749Y7535D01*
X29960Y7750D02*
X30040Y7750D01*
X30000Y7710D02*
X30000Y7790D01*
X27460Y4996D02*
X27540Y4996D01*
X27500Y4956D02*
X27500Y5036D01*
X27710Y4750D02*
X27790Y4750D01*
X27750Y4710D02*
X27750Y4790D01*
X28210Y4750D02*
X28290Y4750D01*
X28250Y4710D02*
X28250Y4790D01*
X28457Y5000D02*
X28537Y5000D01*
X28497Y4960D02*
X28497Y5040D01*
X23957Y23250D02*
X24037Y23250D01*
X23997Y23210D02*
X23997Y23290D01*
X23960Y23747D02*
X24040Y23747D01*
X24000Y23707D02*
X24000Y23787D01*
X23710Y24000D02*
X23790Y24000D01*
X23750Y23960D02*
X23750Y24040D01*
X22710Y23500D02*
X22790Y23500D01*
X22750Y23460D02*
X22750Y23540D01*
X23710Y23500D02*
X23790Y23500D01*
X23750Y23460D02*
X23750Y23540D01*
X23957Y25250D02*
X24037Y25250D01*
X23997Y25210D02*
X23997Y25290D01*
X23710Y26000D02*
X23790Y26000D01*
X23750Y25960D02*
X23750Y26040D01*
X23510Y26350D02*
X23590Y26350D01*
X23550Y26310D02*
X23550Y26390D01*
X23210Y26750D02*
X23290Y26750D01*
X23250Y26710D02*
X23250Y26790D01*
X23960Y25750D02*
X24040Y25750D01*
X24000Y25710D02*
X24000Y25790D01*
X23710Y25500D02*
X23790Y25500D01*
X23750Y25460D02*
X23750Y25540D01*
X22461Y27750D02*
X22541Y27750D01*
X22501Y27710D02*
X22501Y27790D01*
X27210Y24500D02*
X27290Y24500D01*
X27250Y24460D02*
X27250Y24540D01*
X20960Y25000D02*
X21040Y25000D01*
X21000Y24960D02*
X21000Y25040D01*
X27210Y24000D02*
X27290Y24000D01*
X27250Y23960D02*
X27250Y24040D01*
X27460Y24250D02*
X27540Y24250D01*
X27500Y24210D02*
X27500Y24290D01*
X27460Y24750D02*
X27540Y24750D01*
X27500Y24710D02*
X27500Y24790D01*
X27210Y25000D02*
X27290Y25000D01*
X27250Y24960D02*
X27250Y25040D01*
X27210Y25500D02*
X27290Y25500D01*
X27250Y25460D02*
X27250Y25540D01*
X27460Y25750D02*
X27540Y25750D01*
X27500Y25710D02*
X27500Y25790D01*
X27210Y26000D02*
X27290Y26000D01*
X27250Y25960D02*
X27250Y26040D01*
X27460Y26250D02*
X27540Y26250D01*
X27500Y26210D02*
X27500Y26290D01*
X27210Y26500D02*
X27290Y26500D01*
X27250Y26460D02*
X27250Y26540D01*
X27460Y26750D02*
X27540Y26750D01*
X27500Y26710D02*
X27500Y26790D01*
X27210Y27002D02*
X27290Y27002D01*
X27250Y26962D02*
X27250Y27042D01*
X27460Y27250D02*
X27540Y27250D01*
X27500Y27210D02*
X27500Y27290D01*
X-14790Y20500D02*
X-14710Y20500D01*
X-14750Y20460D02*
X-14750Y20540D01*
X29460Y13002D02*
X29540Y13002D01*
X29500Y12962D02*
X29500Y13042D01*
X28957Y13000D02*
X29037Y13000D01*
X28997Y12960D02*
X28997Y13040D01*
X30960Y6750D02*
X31040Y6750D01*
X31000Y6710D02*
X31000Y6790D01*
X30712Y7000D02*
X30792Y7000D01*
X30752Y6960D02*
X30752Y7040D01*
X30213Y1996D02*
X30293Y1996D01*
X30253Y1956D02*
X30253Y2036D01*
X29960Y2243D02*
X30040Y2243D01*
X30000Y2203D02*
X30000Y2283D01*
X30210Y2500D02*
X30290Y2500D01*
X30250Y2460D02*
X30250Y2540D01*
X29960Y2750D02*
X30040Y2750D01*
X30000Y2710D02*
X30000Y2790D01*
X30210Y3001D02*
X30290Y3001D01*
X30250Y2961D02*
X30250Y3041D01*
X29960Y3250D02*
X30040Y3250D01*
X30000Y3210D02*
X30000Y3290D01*
X30210Y3500D02*
X30290Y3500D01*
X30250Y3460D02*
X30250Y3540D01*
X28210Y2250D02*
X28290Y2250D01*
X28250Y2210D02*
X28250Y2290D01*
X28460Y2500D02*
X28540Y2500D01*
X28500Y2460D02*
X28500Y2540D01*
X28210Y2750D02*
X28290Y2750D01*
X28250Y2710D02*
X28250Y2790D01*
X28460Y3000D02*
X28540Y3000D01*
X28500Y2960D02*
X28500Y3040D01*
X28210Y3251D02*
X28290Y3251D01*
X28250Y3211D02*
X28250Y3291D01*
X28457Y3500D02*
X28537Y3500D01*
X28497Y3460D02*
X28497Y3540D01*
X28210Y3751D02*
X28290Y3751D01*
X28250Y3711D02*
X28250Y3791D01*
X28460Y4000D02*
X28540Y4000D01*
X28500Y3960D02*
X28500Y4040D01*
X28210Y4250D02*
X28290Y4250D01*
X28250Y4210D02*
X28250Y4290D01*
X29710Y7000D02*
X29790Y7000D01*
X29750Y6960D02*
X29750Y7040D01*
X29960Y7250D02*
X30040Y7250D01*
X30000Y7210D02*
X30000Y7290D01*
X27967Y5000D02*
X28047Y5000D01*
X28007Y4960D02*
X28007Y5040D01*
X28457Y4500D02*
X28537Y4500D01*
X28497Y4460D02*
X28497Y4540D01*
X19460Y6500D02*
X19540Y6500D01*
X19500Y6460D02*
X19500Y6540D01*
X19710Y6250D02*
X19790Y6250D01*
X19750Y6210D02*
X19750Y6290D01*
X20460Y7000D02*
X20540Y7000D01*
X20500Y6960D02*
X20500Y7040D01*
X20710Y6750D02*
X20790Y6750D01*
X20750Y6710D02*
X20750Y6790D01*
X20960Y7000D02*
X21040Y7000D01*
X21000Y6960D02*
X21000Y7040D01*
X21460Y7000D02*
X21540Y7000D01*
X21500Y6960D02*
X21500Y7040D01*
X21710Y6750D02*
X21790Y6750D01*
X21750Y6710D02*
X21750Y6790D01*
X21960Y7000D02*
X22040Y7000D01*
X22000Y6960D02*
X22000Y7040D01*
X29460Y11500D02*
X29540Y11500D01*
X29500Y11460D02*
X29500Y11540D01*
X27960Y11997D02*
X28040Y11997D01*
X28000Y11957D02*
X28000Y12037D01*
X29867Y12250D02*
X29947Y12250D01*
X29907Y12210D02*
X29907Y12290D01*
X21989Y1850D02*
X22069Y1850D01*
X22029Y1810D02*
X22029Y1890D01*
X19960Y8250D02*
X20040Y8250D01*
X20000Y8210D02*
X20000Y8290D01*
X20460Y8250D02*
X20540Y8250D01*
X20500Y8210D02*
X20500Y8290D01*
X19960Y13250D02*
X20040Y13250D01*
X20000Y13210D02*
X20000Y13290D01*
X20460Y13250D02*
X20540Y13250D01*
X20500Y13210D02*
X20500Y13290D01*
X20960Y13250D02*
X21040Y13250D01*
X21000Y13210D02*
X21000Y13290D01*
X21460Y13250D02*
X21540Y13250D01*
X21500Y13210D02*
X21500Y13290D01*
X23710Y2500D02*
X23790Y2500D01*
X23750Y2460D02*
X23750Y2540D01*
X23960Y3250D02*
X24040Y3250D01*
X24000Y3210D02*
X24000Y3290D01*
X24210Y17000D02*
X24290Y17000D01*
X24250Y16960D02*
X24250Y17040D01*
X-19792Y18500D02*
X-19712Y18500D01*
X-19752Y18460D02*
X-19752Y18540D01*
X23960Y2750D02*
X24040Y2750D01*
X24000Y2710D02*
X24000Y2790D01*
X24210Y3001D02*
X24290Y3001D01*
X24250Y2961D02*
X24250Y3041D01*
X24460Y2750D02*
X24540Y2750D01*
X24500Y2710D02*
X24500Y2790D01*
X12710Y8001D02*
X12790Y8001D01*
X12750Y7961D02*
X12750Y8041D01*
X9210Y11400D02*
X9290Y11400D01*
X9250Y11360D02*
X9250Y11440D01*
X14210Y12000D02*
X14290Y12000D01*
X14250Y11960D02*
X14250Y12040D01*
X9210Y11000D02*
X9290Y11000D01*
X9250Y10960D02*
X9250Y11040D01*
X16960Y7000D02*
X17040Y7000D01*
X17000Y6960D02*
X17000Y7040D01*
X17960Y7000D02*
X18040Y7000D01*
X18000Y6960D02*
X18000Y7040D01*
X22461Y4500D02*
X22541Y4500D01*
X22501Y4460D02*
X22501Y4540D01*
X210Y11747D02*
X290Y11747D01*
X250Y11707D02*
X250Y11787D01*
X-19040Y23500D02*
X-18960Y23500D01*
X-19000Y23460D02*
X-19000Y23540D01*
X-19790Y24500D02*
X-19710Y24500D01*
X-19750Y24460D02*
X-19750Y24540D01*
X-21790Y24106D02*
X-21710Y24106D01*
X-21750Y24066D02*
X-21750Y24146D01*
X-20040Y24750D02*
X-19960Y24750D01*
X-20000Y24710D02*
X-20000Y24790D01*
X-22290Y24103D02*
X-22210Y24103D01*
X-22250Y24063D02*
X-22250Y24143D01*
X-22790Y24106D02*
X-22710Y24106D01*
X-22750Y24066D02*
X-22750Y24146D01*
X-19540Y23500D02*
X-19460Y23500D01*
X-19500Y23460D02*
X-19500Y23540D01*
X-21291Y24106D02*
X-21211Y24106D01*
X-21251Y24066D02*
X-21251Y24146D01*
X-23790Y24103D02*
X-23710Y24103D01*
X-23750Y24063D02*
X-23750Y24143D01*
X19345Y33000D02*
X19425Y33000D01*
X19385Y32960D02*
X19385Y33040D01*
X20525Y33000D02*
X20605Y33000D01*
X20565Y32960D02*
X20565Y33040D01*
X-17290Y20750D02*
X-17210Y20750D01*
X-17250Y20710D02*
X-17250Y20790D01*
X-18776Y21500D02*
X-18696Y21500D01*
X-18736Y21460D02*
X-18736Y21540D01*
X-7540Y33250D02*
X-7460Y33250D01*
X-7500Y33210D02*
X-7500Y33290D01*
X-7790Y33500D02*
X-7710Y33500D01*
X-7750Y33460D02*
X-7750Y33540D01*
X-8040Y33750D02*
X-7960Y33750D01*
X-8000Y33710D02*
X-8000Y33790D01*
X-8290Y34000D02*
X-8210Y34000D01*
X-8250Y33960D02*
X-8250Y34040D01*
X-3541Y32750D02*
X-3461Y32750D01*
X-3501Y32710D02*
X-3501Y32790D01*
X-2541Y32750D02*
X-2461Y32750D01*
X-2501Y32710D02*
X-2501Y32790D01*
X-1541Y32750D02*
X-1461Y32750D01*
X-1501Y32710D02*
X-1501Y32790D01*
X9460Y29500D02*
X9540Y29500D01*
X9500Y29460D02*
X9500Y29540D01*
X-14040Y29714D02*
X-13960Y29714D01*
X-14000Y29674D02*
X-14000Y29754D01*
X8897Y8350D02*
X8977Y8350D01*
X8937Y8310D02*
X8937Y8390D01*
X20210Y30250D02*
X20290Y30250D01*
X20250Y30210D02*
X20250Y30290D01*
X19960Y31000D02*
X20040Y31000D01*
X20000Y30960D02*
X20000Y31040D01*
X28210Y12250D02*
X28290Y12250D01*
X28250Y12210D02*
X28250Y12290D01*
X-9490Y28950D02*
X-9410Y28950D01*
X-9450Y28910D02*
X-9450Y28990D01*
X-9259Y28686D02*
X-9179Y28686D01*
X-9219Y28646D02*
X-9219Y28726D01*
X-9040Y28950D02*
X-8960Y28950D01*
X-9000Y28910D02*
X-9000Y28990D01*
X12960Y31000D02*
X13040Y31000D01*
X13000Y30960D02*
X13000Y31040D01*
X13210Y30750D02*
X13290Y30750D01*
X13250Y30710D02*
X13250Y30790D01*
X13460Y30500D02*
X13540Y30500D01*
X13500Y30460D02*
X13500Y30540D01*
X13710Y30250D02*
X13790Y30250D01*
X13750Y30210D02*
X13750Y30290D01*
X20210Y30750D02*
X20290Y30750D01*
X20250Y30710D02*
X20250Y30790D01*
X19957Y30500D02*
X20037Y30500D01*
X19997Y30460D02*
X19997Y30540D01*
X24965Y500D02*
X25045Y500D01*
X25005Y460D02*
X25005Y540D01*
X24710Y750D02*
X24790Y750D01*
X24750Y710D02*
X24750Y790D01*
X-19290Y25729D02*
X-19210Y25729D01*
X-19250Y25689D02*
X-19250Y25769D01*
X-21091Y25214D02*
X-21011Y25214D01*
X-21051Y25174D02*
X-21051Y25254D01*
X-21490Y25214D02*
X-21410Y25214D01*
X-21450Y25174D02*
X-21450Y25254D01*
X-20091Y25214D02*
X-20011Y25214D01*
X-20051Y25174D02*
X-20051Y25254D01*
X-20490Y25214D02*
X-20410Y25214D01*
X-20450Y25174D02*
X-20450Y25254D01*
X23210Y34250D02*
X23290Y34250D01*
X23250Y34210D02*
X23250Y34290D01*
X22210Y34250D02*
X22290Y34250D01*
X22250Y34210D02*
X22250Y34290D01*
X18460Y29750D02*
X18540Y29750D01*
X18500Y29710D02*
X18500Y29790D01*
X25224Y33520D02*
X25304Y33520D01*
X25264Y33480D02*
X25264Y33560D01*
X-26457Y33020D02*
X-26377Y33020D01*
X-26417Y32980D02*
X-26417Y33060D01*
X27891Y33500D02*
X27971Y33500D01*
X27931Y33460D02*
X27931Y33540D01*
X17208Y28002D02*
X17288Y28002D01*
X17248Y27962D02*
X17248Y28042D01*
X19958Y28002D02*
X20038Y28002D01*
X19998Y27962D02*
X19998Y28042D01*
X-30095Y27953D02*
X-30015Y27953D01*
X-30055Y27913D02*
X-30055Y27993D01*
X-30095Y29527D02*
X-30015Y29527D01*
X-30055Y29487D02*
X-30055Y29567D01*
X-26040Y13253D02*
X-25960Y13253D01*
X-26000Y13213D02*
X-26000Y13293D01*
X-24040Y13253D02*
X-23960Y13253D01*
X-24000Y13213D02*
X-24000Y13293D01*
X29709Y11250D02*
X29789Y11250D01*
X29749Y11210D02*
X29749Y11290D01*
X28813Y12253D02*
X28893Y12253D01*
X28853Y12213D02*
X28853Y12293D01*
X32696Y8250D02*
X32776Y8250D01*
X32736Y8210D02*
X32736Y8290D01*
X28967Y10750D02*
X29047Y10750D01*
X29007Y10710D02*
X29007Y10790D01*
X18964Y5007D02*
X19044Y5007D01*
X19004Y4967D02*
X19004Y5047D01*
X25959Y16250D02*
X26039Y16250D01*
X25999Y16210D02*
X25999Y16290D01*
X25709Y16497D02*
X25789Y16497D01*
X25749Y16457D02*
X25749Y16537D01*
X26710Y16000D02*
X26790Y16000D01*
X26750Y15960D02*
X26750Y16040D01*
X26460Y16250D02*
X26540Y16250D01*
X26500Y16210D02*
X26500Y16290D01*
X26710Y16500D02*
X26790Y16500D01*
X26750Y16460D02*
X26750Y16540D01*
X22210Y16750D02*
X22290Y16750D01*
X22250Y16710D02*
X22250Y16790D01*
X24210Y15259D02*
X24290Y15259D01*
X24250Y15219D02*
X24250Y15299D01*
X25460Y15267D02*
X25540Y15267D01*
X25500Y15227D02*
X25500Y15307D01*
X19460Y8751D02*
X19540Y8751D01*
X19500Y8711D02*
X19500Y8791D01*
X33028Y13250D02*
X33108Y13250D01*
X33068Y13210D02*
X33068Y13290D01*
X33028Y12250D02*
X33108Y12250D01*
X33068Y12210D02*
X33068Y12290D01*
X33028Y11750D02*
X33108Y11750D01*
X33068Y11710D02*
X33068Y11790D01*
X33028Y11250D02*
X33108Y11250D01*
X33068Y11210D02*
X33068Y11290D01*
X33028Y10250D02*
X33108Y10250D01*
X33068Y10210D02*
X33068Y10290D01*
X33028Y9250D02*
X33108Y9250D01*
X33068Y9210D02*
X33068Y9290D01*
X-5040Y24247D02*
X-4960Y24247D01*
X-5000Y24207D02*
X-5000Y24287D01*
X-15790Y21750D02*
X-15710Y21750D01*
X-15750Y21710D02*
X-15750Y21790D01*
X-8371Y22169D02*
X-8291Y22169D01*
X-8331Y22129D02*
X-8331Y22209D01*
X-7851Y22161D02*
X-7771Y22161D01*
X-7811Y22121D02*
X-7811Y22201D01*
X-11162Y22250D02*
X-11082Y22250D01*
X-11122Y22210D02*
X-11122Y22290D01*
X-12540Y22250D02*
X-12460Y22250D01*
X-12500Y22210D02*
X-12500Y22290D01*
X-10065Y21775D02*
X-9985Y21775D01*
X-10025Y21735D02*
X-10025Y21815D01*
X-9514Y21775D02*
X-9434Y21775D01*
X-9474Y21735D02*
X-9474Y21815D01*
X1459Y18095D02*
X1539Y18095D01*
X1499Y18055D02*
X1499Y18135D01*
X2862Y16250D02*
X2942Y16250D01*
X2902Y16210D02*
X2902Y16290D01*
X-541Y18250D02*
X-461Y18250D01*
X-501Y18210D02*
X-501Y18290D01*
X335Y18174D02*
X415Y18174D01*
X375Y18134D02*
X375Y18214D01*
X-791Y16000D02*
X-711Y16000D01*
X-751Y15960D02*
X-751Y16040D01*
X20072Y1851D02*
X20152Y1851D01*
X20112Y1811D02*
X20112Y1891D01*
X22460Y3500D02*
X22540Y3500D01*
X22500Y3460D02*
X22500Y3540D01*
X24710Y2901D02*
X24790Y2901D01*
X24750Y2861D02*
X24750Y2941D01*
X22209Y3750D02*
X22289Y3750D01*
X22249Y3710D02*
X22249Y3790D01*
X19354Y26000D02*
X19434Y26000D01*
X19394Y25960D02*
X19394Y26040D01*
X20460Y26000D02*
X20540Y26000D01*
X20500Y25960D02*
X20500Y26040D01*
X22210Y26000D02*
X22290Y26000D01*
X22250Y25960D02*
X22250Y26040D01*
X21104Y26000D02*
X21184Y26000D01*
X21144Y25960D02*
X21144Y26040D01*
X19354Y23600D02*
X19434Y23600D01*
X19394Y23560D02*
X19394Y23640D01*
X20459Y23600D02*
X20539Y23600D01*
X20499Y23560D02*
X20499Y23640D01*
X21104Y23600D02*
X21184Y23600D01*
X21144Y23560D02*
X21144Y23640D01*
X22210Y23600D02*
X22290Y23600D01*
X22250Y23560D02*
X22250Y23640D01*
X-19957Y200D02*
X-19877Y200D01*
X-19917Y160D02*
X-19917Y240D01*
X-18790Y256D02*
X-18710Y256D01*
X-18750Y216D02*
X-18750Y296D01*
X-19290Y239D02*
X-19210Y239D01*
X-19250Y199D02*
X-19250Y279D01*
X-21040Y550D02*
X-20960Y550D01*
X-21000Y510D02*
X-21000Y590D01*
X-22540Y26500D02*
X-22460Y26500D01*
X-22500Y26460D02*
X-22500Y26540D01*
X-22790Y27500D02*
X-22710Y27500D01*
X-22750Y27460D02*
X-22750Y27540D01*
X-20540Y19750D02*
X-20460Y19750D01*
X-20500Y19710D02*
X-20500Y19790D01*
X1110Y8500D02*
X1190Y8500D01*
X1150Y8460D02*
X1150Y8540D01*
X-14693Y3968D02*
X-14613Y3968D01*
X-14653Y3928D02*
X-14653Y4008D01*
X-14442Y3717D02*
X-14362Y3717D01*
X-14402Y3677D02*
X-14402Y3757D01*
X-14191Y3968D02*
X-14111Y3968D01*
X-14151Y3928D02*
X-14151Y4008D01*
X-15040Y1006D02*
X-14960Y1006D01*
X-15000Y966D02*
X-15000Y1046D01*
X-10840Y3747D02*
X-10760Y3747D01*
X-10800Y3707D02*
X-10800Y3787D01*
X-9840Y3752D02*
X-9760Y3752D01*
X-9800Y3712D02*
X-9800Y3792D01*
X-20489Y4250D02*
X-20409Y4250D01*
X-20449Y4210D02*
X-20449Y4290D01*
X-20940Y4000D02*
X-20860Y4000D01*
X-20900Y3960D02*
X-20900Y4040D01*
X-20292Y4500D02*
X-20212Y4500D01*
X-20252Y4460D02*
X-20252Y4540D01*
X-20292Y4000D02*
X-20212Y4000D01*
X-20252Y3960D02*
X-20252Y4040D01*
X-20790Y4250D02*
X-20710Y4250D01*
X-20750Y4210D02*
X-20750Y4290D01*
X-21290Y4850D02*
X-21210Y4850D01*
X-21250Y4810D02*
X-21250Y4890D01*
X-21959Y4850D02*
X-21879Y4850D01*
X-21919Y4810D02*
X-21919Y4890D01*
X-22740Y3769D02*
X-22660Y3769D01*
X-22700Y3729D02*
X-22700Y3809D01*
X-22740Y3100D02*
X-22660Y3100D01*
X-22700Y3060D02*
X-22700Y3140D01*
X-32820Y3500D02*
X-32740Y3500D01*
X-32780Y3460D02*
X-32780Y3540D01*
X-32820Y4250D02*
X-32740Y4250D01*
X-32780Y4210D02*
X-32780Y4290D01*
X-26040Y6167D02*
X-25960Y6167D01*
X-26000Y6127D02*
X-26000Y6207D01*
X-27248Y965D02*
X-27168Y965D01*
X-27208Y925D02*
X-27208Y1005D01*
X-23042Y982D02*
X-22962Y982D01*
X-23002Y942D02*
X-23002Y1022D01*
X-22513Y1441D02*
X-22433Y1441D01*
X-22473Y1401D02*
X-22473Y1481D01*
X-24040Y2700D02*
X-23960Y2700D01*
X-24000Y2660D02*
X-24000Y2740D01*
X-21690Y756D02*
X-21610Y756D01*
X-21650Y716D02*
X-21650Y796D01*
X-19140Y1615D02*
X-19060Y1615D01*
X-19100Y1575D02*
X-19100Y1655D01*
X-18040Y3250D02*
X-17960Y3250D01*
X-18000Y3210D02*
X-18000Y3290D01*
X-18690Y2248D02*
X-18610Y2248D01*
X-18650Y2208D02*
X-18650Y2288D01*
X-17540Y3744D02*
X-17460Y3744D01*
X-17500Y3704D02*
X-17500Y3784D01*
X-18040Y1006D02*
X-17960Y1006D01*
X-18000Y966D02*
X-18000Y1046D01*
X-18290Y5250D02*
X-18210Y5250D01*
X-18250Y5210D02*
X-18250Y5290D01*
X-20793Y5250D02*
X-20713Y5250D01*
X-20753Y5210D02*
X-20753Y5290D01*
X23975Y27165D02*
X24055Y27165D01*
X24015Y27125D02*
X24015Y27205D01*
X-12884Y5717D02*
X-12804Y5717D01*
X-12844Y5677D02*
X-12844Y5757D01*
X-12879Y4168D02*
X-12799Y4168D01*
X-12839Y4128D02*
X-12839Y4208D01*
X-14690Y5717D02*
X-14610Y5717D01*
X-14650Y5677D02*
X-14650Y5757D01*
X-15537Y4967D02*
X-15457Y4967D01*
X-15497Y4927D02*
X-15497Y5007D01*
X-13940Y3717D02*
X-13860Y3717D01*
X-13900Y3677D02*
X-13900Y3757D01*
X-13689Y3968D02*
X-13609Y3968D01*
X-13649Y3928D02*
X-13649Y4008D01*
X-4290Y2750D02*
X-4210Y2750D01*
X-4250Y2710D02*
X-4250Y2790D01*
X-40Y7350D02*
X40Y7350D01*
X0Y7310D02*
X0Y7390D01*
X-40Y7850D02*
X40Y7850D01*
X0Y7810D02*
X0Y7890D01*
X-24040Y1250D02*
X-23960Y1250D01*
X-24000Y1210D02*
X-24000Y1290D01*
X-19297Y20500D02*
X-19217Y20500D01*
X-19257Y20460D02*
X-19257Y20540D01*
X-21640Y18000D02*
X-21560Y18000D01*
X-21600Y17960D02*
X-21600Y18040D01*
X-24290Y20500D02*
X-24210Y20500D01*
X-24250Y20460D02*
X-24250Y20540D01*
X-23290Y33500D02*
X-23210Y33500D01*
X-23250Y33460D02*
X-23250Y33540D01*
X-23543Y13997D02*
X-23463Y13997D01*
X-23503Y13957D02*
X-23503Y14037D01*
X-23540Y16250D02*
X-23460Y16250D01*
X-23500Y16210D02*
X-23500Y16290D01*
X18710Y3803D02*
X18790Y3803D01*
X18750Y3763D02*
X18750Y3843D01*
X17960Y14253D02*
X18040Y14253D01*
X18000Y14213D02*
X18000Y14293D01*
X18960Y14247D02*
X19040Y14247D01*
X19000Y14207D02*
X19000Y14287D01*
X19460Y14250D02*
X19540Y14250D01*
X19500Y14210D02*
X19500Y14290D01*
X-32780Y27165D02*
X-32700Y27165D01*
X-32740Y27125D02*
X-32740Y27205D01*
X-32790Y28000D02*
X-32710Y28000D01*
X-32750Y27960D02*
X-32750Y28040D01*
X-23543Y18000D02*
X-23463Y18000D01*
X-23503Y17960D02*
X-23503Y18040D01*
X-24293Y20000D02*
X-24213Y20000D01*
X-24253Y19960D02*
X-24253Y20040D01*
X-24290Y22000D02*
X-24210Y22000D01*
X-24250Y21960D02*
X-24250Y22040D01*
X-24290Y21500D02*
X-24210Y21500D01*
X-24250Y21460D02*
X-24250Y21540D01*
X-20108Y16750D02*
X-20028Y16750D01*
X-20068Y16710D02*
X-20068Y16790D01*
X-20558Y16750D02*
X-20478Y16750D01*
X-20518Y16710D02*
X-20518Y16790D01*
X-20558Y16250D02*
X-20478Y16250D01*
X-20518Y16210D02*
X-20518Y16290D01*
X-20108Y16250D02*
X-20028Y16250D01*
X-20068Y16210D02*
X-20068Y16290D01*
X-20098Y14500D02*
X-20018Y14500D01*
X-20058Y14460D02*
X-20058Y14540D01*
X-20548Y14500D02*
X-20468Y14500D01*
X-20508Y14460D02*
X-20508Y14540D01*
X-20548Y14000D02*
X-20468Y14000D01*
X-20508Y13960D02*
X-20508Y14040D01*
X-20098Y14000D02*
X-20018Y14000D01*
X-20058Y13960D02*
X-20058Y14040D01*
X-20090Y12500D02*
X-20010Y12500D01*
X-20050Y12460D02*
X-20050Y12540D01*
X-20540Y12500D02*
X-20460Y12500D01*
X-20500Y12460D02*
X-20500Y12540D01*
X-20540Y12000D02*
X-20460Y12000D01*
X-20500Y11960D02*
X-20500Y12040D01*
X-20090Y12000D02*
X-20010Y12000D01*
X-20050Y11960D02*
X-20050Y12040D01*
X22720Y28740D02*
X22800Y28740D01*
X22760Y28700D02*
X22760Y28780D01*
X23960Y28730D02*
X24040Y28730D01*
X24000Y28690D02*
X24000Y28770D01*
X4300Y3495D02*
X4380Y3495D01*
X4340Y3455D02*
X4340Y3535D01*
X3224Y4551D02*
X3304Y4551D01*
X3264Y4511D02*
X3264Y4591D01*
X24959Y7250D02*
X25039Y7250D01*
X24999Y7210D02*
X24999Y7290D01*
X24959Y7750D02*
X25039Y7750D01*
X24999Y7710D02*
X24999Y7790D01*
X21461Y5251D02*
X21541Y5251D01*
X21501Y5211D02*
X21501Y5291D01*
X20461Y5750D02*
X20541Y5750D01*
X20501Y5710D02*
X20501Y5790D01*
X21639Y1350D02*
X21719Y1350D01*
X21679Y1310D02*
X21679Y1390D01*
X25397Y2392D02*
X25477Y2392D01*
X25437Y2352D02*
X25437Y2432D01*
X8660Y4814D02*
X8740Y4814D01*
X8700Y4774D02*
X8700Y4854D01*
X8660Y4314D02*
X8740Y4314D01*
X8700Y4274D02*
X8700Y4354D01*
X9698Y4813D02*
X9778Y4813D01*
X9738Y4773D02*
X9738Y4853D01*
X9698Y4329D02*
X9778Y4329D01*
X9738Y4289D02*
X9738Y4369D01*
X5160Y233D02*
X5240Y233D01*
X5200Y193D02*
X5200Y273D01*
X1819Y12233D02*
X1899Y12233D01*
X1859Y12193D02*
X1859Y12273D01*
X-8290Y3537D02*
X-8210Y3537D01*
X-8250Y3497D02*
X-8250Y3577D01*
X-6723Y650D02*
X-6643Y650D01*
X-6683Y610D02*
X-6683Y690D01*
X-5536Y649D02*
X-5456Y649D01*
X-5496Y609D02*
X-5496Y689D01*
X7210Y9859D02*
X7290Y9859D01*
X7250Y9819D02*
X7250Y9899D01*
X2910Y8107D02*
X2990Y8107D01*
X2950Y8067D02*
X2950Y8147D01*
X2960Y11500D02*
X3040Y11500D01*
X3000Y11460D02*
X3000Y11540D01*
X-1687Y5542D02*
X-1607Y5542D01*
X-1647Y5502D02*
X-1647Y5582D01*
X8914Y9286D02*
X8994Y9286D01*
X8954Y9246D02*
X8954Y9326D01*
X373Y9051D02*
X453Y9051D01*
X413Y9011D02*
X413Y9091D01*
X2166Y7020D02*
X2246Y7020D01*
X2206Y6980D02*
X2206Y7060D01*
X2560Y7020D02*
X2640Y7020D01*
X2600Y6980D02*
X2600Y7060D01*
X-1577Y5042D02*
X-1497Y5042D01*
X-1537Y5002D02*
X-1537Y5082D01*
X-1584Y4611D02*
X-1504Y4611D01*
X-1544Y4571D02*
X-1544Y4651D01*
X1769Y5042D02*
X1849Y5042D01*
X1809Y5002D02*
X1809Y5082D01*
X1769Y4542D02*
X1849Y4542D01*
X1809Y4502D02*
X1809Y4582D01*
X7340Y6316D02*
X7420Y6316D01*
X7380Y6276D02*
X7380Y6356D01*
X7851Y6572D02*
X7931Y6572D01*
X7891Y6532D02*
X7891Y6612D01*
X-427Y4542D02*
X-347Y4542D01*
X-387Y4502D02*
X-387Y4582D01*
X369Y4542D02*
X449Y4542D01*
X409Y4502D02*
X409Y4582D01*
X6613Y4050D02*
X6693Y4050D01*
X6653Y4010D02*
X6653Y4090D01*
X7113Y4050D02*
X7193Y4050D01*
X7153Y4010D02*
X7153Y4090D01*
X8717Y13363D02*
X8797Y13363D01*
X8757Y13323D02*
X8757Y13403D01*
X8717Y12969D02*
X8797Y12969D01*
X8757Y12929D02*
X8757Y13009D01*
X8717Y12576D02*
X8797Y12576D01*
X8757Y12536D02*
X8757Y12616D01*
X8717Y11198D02*
X8797Y11198D01*
X8757Y11158D02*
X8757Y11238D01*
X8717Y11591D02*
X8797Y11591D01*
X8757Y11551D02*
X8757Y11631D01*
X8717Y11985D02*
X8797Y11985D01*
X8757Y11945D02*
X8757Y12025D01*
X3757Y10804D02*
X3837Y10804D01*
X3797Y10764D02*
X3797Y10844D01*
X3304Y9485D02*
X3384Y9485D01*
X3344Y9445D02*
X3344Y9525D01*
X3009Y9426D02*
X3089Y9426D01*
X3049Y9386D02*
X3049Y9466D01*
X5450Y6276D02*
X5530Y6276D01*
X5490Y6236D02*
X5490Y6316D01*
X5883Y6276D02*
X5963Y6276D01*
X5923Y6236D02*
X5923Y6316D01*
X-16040Y26964D02*
X-15960Y26964D01*
X-16000Y26924D02*
X-16000Y27004D01*
X-17290Y28214D02*
X-17210Y28214D01*
X-17250Y28174D02*
X-17250Y28254D01*
X-16040Y29464D02*
X-15960Y29464D01*
X-16000Y29424D02*
X-16000Y29504D01*
X-16039Y27514D02*
X-15959Y27514D01*
X-15999Y27474D02*
X-15999Y27554D01*
X-16740Y28213D02*
X-16660Y28213D01*
X-16700Y28173D02*
X-16700Y28253D01*
X-16041Y28914D02*
X-15961Y28914D01*
X-16001Y28874D02*
X-16001Y28954D01*
X-14790Y28214D02*
X-14710Y28214D01*
X-14750Y28174D02*
X-14750Y28254D01*
X-15340Y28215D02*
X-15260Y28215D01*
X-15300Y28175D02*
X-15300Y28255D01*
X-16040Y28214D02*
X-15960Y28214D01*
X-16000Y28174D02*
X-16000Y28254D01*
X-14111Y30143D02*
X-14031Y30143D01*
X-14071Y30103D02*
X-14071Y30183D01*
X-14040Y29214D02*
X-13960Y29214D01*
X-14000Y29174D02*
X-14000Y29254D01*
X-14040Y28714D02*
X-13960Y28714D01*
X-14000Y28674D02*
X-14000Y28754D01*
X-14040Y28214D02*
X-13960Y28214D01*
X-14000Y28174D02*
X-14000Y28254D01*
X-14040Y27714D02*
X-13960Y27714D01*
X-14000Y27674D02*
X-14000Y27754D01*
X-14040Y27214D02*
X-13960Y27214D01*
X-14000Y27174D02*
X-14000Y27254D01*
X-14543Y30212D02*
X-14463Y30212D01*
X-14503Y30172D02*
X-14503Y30252D01*
X-15043Y30212D02*
X-14963Y30212D01*
X-15003Y30172D02*
X-15003Y30252D01*
X-15543Y30212D02*
X-15463Y30212D01*
X-15503Y30172D02*
X-15503Y30252D01*
X-16043Y30212D02*
X-15963Y30212D01*
X-16003Y30172D02*
X-16003Y30252D01*
X-16543Y30212D02*
X-16463Y30212D01*
X-16503Y30172D02*
X-16503Y30252D01*
X-17043Y30212D02*
X-16963Y30212D01*
X-17003Y30172D02*
X-17003Y30252D01*
X-17543Y30212D02*
X-17463Y30212D01*
X-17503Y30172D02*
X-17503Y30252D01*
X-17969Y30141D02*
X-17889Y30141D01*
X-17929Y30101D02*
X-17929Y30181D01*
X-18040Y29715D02*
X-17960Y29715D01*
X-18000Y29675D02*
X-18000Y29755D01*
X-18040Y29215D02*
X-17960Y29215D01*
X-18000Y29175D02*
X-18000Y29255D01*
X-18040Y28715D02*
X-17960Y28715D01*
X-18000Y28675D02*
X-18000Y28755D01*
X-18040Y28215D02*
X-17960Y28215D01*
X-18000Y28175D02*
X-18000Y28255D01*
X-18040Y27714D02*
X-17960Y27714D01*
X-18000Y27674D02*
X-18000Y27754D01*
X-18040Y27214D02*
X-17960Y27214D01*
X-18000Y27174D02*
X-18000Y27254D01*
X-18040Y26714D02*
X-17960Y26714D01*
X-18000Y26674D02*
X-18000Y26754D01*
X-17969Y26289D02*
X-17889Y26289D01*
X-17929Y26249D02*
X-17929Y26329D01*
X-17540Y26214D02*
X-17460Y26214D01*
X-17500Y26174D02*
X-17500Y26254D01*
X-17040Y26214D02*
X-16960Y26214D01*
X-17000Y26174D02*
X-17000Y26254D01*
X-16540Y26214D02*
X-16460Y26214D01*
X-16500Y26174D02*
X-16500Y26254D01*
X-16040Y26214D02*
X-15960Y26214D01*
X-16000Y26174D02*
X-16000Y26254D01*
X-15540Y26214D02*
X-15460Y26214D01*
X-15500Y26174D02*
X-15500Y26254D01*
X-15040Y26211D02*
X-14960Y26211D01*
X-15000Y26171D02*
X-15000Y26251D01*
X-14540Y26211D02*
X-14460Y26211D01*
X-14500Y26171D02*
X-14500Y26251D01*
X-14111Y26285D02*
X-14031Y26285D01*
X-14071Y26245D02*
X-14071Y26325D01*
X-14040Y26714D02*
X-13960Y26714D01*
X-14000Y26674D02*
X-14000Y26754D01*
X-18290Y23964D02*
X-18210Y23964D01*
X-18250Y23924D02*
X-18250Y24004D01*
X-17790Y23964D02*
X-17710Y23964D01*
X-17750Y23924D02*
X-17750Y24004D01*
X-21790Y27264D02*
X-21710Y27264D01*
X-21750Y27224D02*
X-21750Y27304D01*
X-21790Y29200D02*
X-21710Y29200D01*
X-21750Y29160D02*
X-21750Y29240D01*
X-20790Y31714D02*
X-20710Y31714D01*
X-20750Y31674D02*
X-20750Y31754D01*
X-20240Y31464D02*
X-20160Y31464D01*
X-20200Y31424D02*
X-20200Y31504D01*
X-19540Y31814D02*
X-19460Y31814D01*
X-19500Y31774D02*
X-19500Y31854D01*
X-18690Y31714D02*
X-18610Y31714D01*
X-18650Y31674D02*
X-18650Y31754D01*
X-20540Y30214D02*
X-20460Y30214D01*
X-20500Y30174D02*
X-20500Y30254D01*
X-20790Y29164D02*
X-20710Y29164D01*
X-20750Y29124D02*
X-20750Y29204D01*
X-20790Y28766D02*
X-20710Y28766D01*
X-20750Y28726D02*
X-20750Y28806D01*
X-20240Y29714D02*
X-20160Y29714D01*
X-20200Y29674D02*
X-20200Y29754D01*
X-19040Y29317D02*
X-18960Y29317D01*
X-19000Y29277D02*
X-19000Y29357D01*
X-19040Y28864D02*
X-18960Y28864D01*
X-19000Y28824D02*
X-19000Y28904D01*
X-18290Y22964D02*
X-18210Y22964D01*
X-18250Y22924D02*
X-18250Y23004D01*
X-17790Y22964D02*
X-17710Y22964D01*
X-17750Y22924D02*
X-17750Y23004D01*
X-17290Y23964D02*
X-17210Y23964D01*
X-17250Y23924D02*
X-17250Y24004D01*
X-16790Y23964D02*
X-16710Y23964D01*
X-16750Y23924D02*
X-16750Y24004D01*
X-19290Y32608D02*
X-19210Y32608D01*
X-19250Y32568D02*
X-19250Y32648D01*
X-12790Y32608D02*
X-12710Y32608D01*
X-12750Y32568D02*
X-12750Y32648D01*
X-13290Y31714D02*
X-13210Y31714D01*
X-13250Y31674D02*
X-13250Y31754D01*
X-11248Y17563D02*
X-11168Y17563D01*
X-11208Y17523D02*
X-11208Y17603D01*
X-11565Y13529D02*
X-11485Y13529D01*
X-11525Y13489D02*
X-11525Y13569D01*
X-11165Y13529D02*
X-11085Y13529D01*
X-11125Y13489D02*
X-11125Y13569D01*
X-9840Y7554D02*
X-9760Y7554D01*
X-9800Y7514D02*
X-9800Y7594D01*
X-8092Y16380D02*
X-8012Y16380D01*
X-8052Y16340D02*
X-8052Y16420D01*
X-8092Y15848D02*
X-8012Y15848D01*
X-8052Y15808D02*
X-8052Y15888D01*
X-8092Y17364D02*
X-8012Y17364D01*
X-8052Y17324D02*
X-8052Y17404D01*
X-8092Y16833D02*
X-8012Y16833D01*
X-8052Y16793D02*
X-8052Y16873D01*
X-10238Y17293D02*
X-10158Y17293D01*
X-10198Y17253D02*
X-10198Y17333D01*
X-10238Y16843D02*
X-10158Y16843D01*
X-10198Y16803D02*
X-10198Y16883D01*
X-10238Y16393D02*
X-10158Y16393D01*
X-10198Y16353D02*
X-10198Y16433D01*
X-10238Y15943D02*
X-10158Y15943D01*
X-10198Y15903D02*
X-10198Y15983D01*
X-12361Y9301D02*
X-12281Y9301D01*
X-12321Y9261D02*
X-12321Y9341D01*
X-10790Y13750D02*
X-10710Y13750D01*
X-10750Y13710D02*
X-10750Y13790D01*
X-8592Y10819D02*
X-8512Y10819D01*
X-8552Y10779D02*
X-8552Y10859D01*
X-8592Y11213D02*
X-8512Y11213D01*
X-8552Y11173D02*
X-8552Y11253D01*
X-8592Y11606D02*
X-8512Y11606D01*
X-8552Y11566D02*
X-8552Y11646D01*
X-10521Y13024D02*
X-10441Y13024D01*
X-10481Y12984D02*
X-10481Y13064D01*
X-10521Y13614D02*
X-10441Y13614D01*
X-10481Y13574D02*
X-10481Y13654D01*
X-9838Y12443D02*
X-9758Y12443D01*
X-9798Y12403D02*
X-9798Y12483D01*
X-6558Y14667D02*
X-6478Y14667D01*
X-6518Y14627D02*
X-6518Y14707D01*
X-6558Y14267D02*
X-6478Y14267D01*
X-6518Y14227D02*
X-6518Y14307D01*
X-12940Y18890D02*
X-12860Y18890D01*
X-12900Y18850D02*
X-12900Y18930D01*
X-14596Y15366D02*
X-14516Y15366D01*
X-14556Y15326D02*
X-14556Y15406D01*
X-14596Y16114D02*
X-14516Y16114D01*
X-14556Y16074D02*
X-14556Y16154D01*
X-14311Y16675D02*
X-14231Y16675D01*
X-14271Y16635D02*
X-14271Y16715D01*
X-13720Y16675D02*
X-13640Y16675D01*
X-13680Y16635D02*
X-13680Y16715D01*
X-17388Y8954D02*
X-17308Y8954D01*
X-17348Y8914D02*
X-17348Y8994D01*
X-16838Y8954D02*
X-16758Y8954D01*
X-16798Y8914D02*
X-16798Y8994D01*
X-16338Y8954D02*
X-16258Y8954D01*
X-16298Y8914D02*
X-16298Y8994D01*
X-15838Y8954D02*
X-15758Y8954D01*
X-15798Y8914D02*
X-15798Y8994D01*
X-15151Y14191D02*
X-15071Y14191D01*
X-15111Y14151D02*
X-15111Y14231D01*
X-15682Y14191D02*
X-15602Y14191D01*
X-15642Y14151D02*
X-15642Y14231D01*
X-12628Y13280D02*
X-12548Y13280D01*
X-12588Y13240D02*
X-12588Y13320D01*
X-13021Y13280D02*
X-12941Y13280D01*
X-12981Y13240D02*
X-12981Y13320D01*
X16460Y12747D02*
X16540Y12747D01*
X16500Y12707D02*
X16500Y12787D01*
X16460Y13747D02*
X16540Y13747D01*
X16500Y13707D02*
X16500Y13787D01*
X17460Y14247D02*
X17540Y14247D01*
X17500Y14207D02*
X17500Y14287D01*
X19957Y14250D02*
X20037Y14250D01*
X19997Y14210D02*
X19997Y14290D01*
X20457Y14250D02*
X20537Y14250D01*
X20497Y14210D02*
X20497Y14290D01*
X20957Y14250D02*
X21037Y14250D01*
X20997Y14210D02*
X20997Y14290D01*
X21457Y14250D02*
X21537Y14250D01*
X21497Y14210D02*
X21497Y14290D01*
X21960Y13753D02*
X22040Y13753D01*
X22000Y13713D02*
X22000Y13793D01*
X22457Y12747D02*
X22537Y12747D01*
X22497Y12707D02*
X22497Y12787D01*
X22457Y12250D02*
X22537Y12250D01*
X22497Y12210D02*
X22497Y12290D01*
X17459Y8751D02*
X17539Y8751D01*
X17499Y8711D02*
X17499Y8791D01*
X20960Y8250D02*
X21040Y8250D01*
X21000Y8210D02*
X21000Y8290D01*
X21460Y8750D02*
X21540Y8750D01*
X21500Y8710D02*
X21500Y8790D01*
X21460Y8250D02*
X21540Y8250D01*
X21500Y8210D02*
X21500Y8290D01*
X21960Y8750D02*
X22040Y8750D01*
X22000Y8710D02*
X22000Y8790D01*
X22460Y8750D02*
X22540Y8750D01*
X22500Y8710D02*
X22500Y8790D01*
X22460Y9744D02*
X22540Y9744D01*
X22500Y9704D02*
X22500Y9784D01*
X21960Y10250D02*
X22040Y10250D01*
X22000Y10210D02*
X22000Y10290D01*
X10015Y10494D02*
X10095Y10494D01*
X10055Y10454D02*
X10055Y10534D01*
X17960Y9250D02*
X18040Y9250D01*
X18000Y9210D02*
X18000Y9290D01*
X17460Y10250D02*
X17540Y10250D01*
X17500Y10210D02*
X17500Y10290D01*
X17460Y11250D02*
X17540Y11250D01*
X17500Y11210D02*
X17500Y11290D01*
X18460Y13250D02*
X18540Y13250D01*
X18500Y13210D02*
X18500Y13290D01*
X18960Y13250D02*
X19040Y13250D01*
X19000Y13210D02*
X19000Y13290D01*
X18960Y13750D02*
X19040Y13750D01*
X19000Y13710D02*
X19000Y13790D01*
X19960Y13750D02*
X20040Y13750D01*
X20000Y13710D02*
X20000Y13790D01*
X21460Y12750D02*
X21540Y12750D01*
X21500Y12710D02*
X21500Y12790D01*
X21460Y12250D02*
X21540Y12250D01*
X21500Y12210D02*
X21500Y12290D01*
X21460Y11750D02*
X21540Y11750D01*
X21500Y11710D02*
X21500Y11790D01*
X21960Y11250D02*
X22040Y11250D01*
X22000Y11210D02*
X22000Y11290D01*
X21460Y11250D02*
X21540Y11250D01*
X21500Y11210D02*
X21500Y11290D01*
X21460Y10750D02*
X21540Y10750D01*
X21500Y10710D02*
X21500Y10790D01*
X21460Y10250D02*
X21540Y10250D01*
X21500Y10210D02*
X21500Y10290D01*
X20960Y9750D02*
X21040Y9750D01*
X21000Y9710D02*
X21000Y9790D01*
X21460Y9250D02*
X21540Y9250D01*
X21500Y9210D02*
X21500Y9290D01*
X20960Y9250D02*
X21040Y9250D01*
X21000Y9210D02*
X21000Y9290D01*
X20460Y9250D02*
X20540Y9250D01*
X20500Y9210D02*
X20500Y9290D01*
X19460Y9250D02*
X19540Y9250D01*
X19500Y9210D02*
X19500Y9290D01*
X19960Y9250D02*
X20040Y9250D01*
X20000Y9210D02*
X20000Y9290D01*
X18960Y9250D02*
X19040Y9250D01*
X19000Y9210D02*
X19000Y9290D01*
X18460Y9250D02*
X18540Y9250D01*
X18500Y9210D02*
X18500Y9290D01*
X17460Y9250D02*
X17540Y9250D01*
X17500Y9210D02*
X17500Y9290D01*
X17460Y9750D02*
X17540Y9750D01*
X17500Y9710D02*
X17500Y9790D01*
X17460Y11750D02*
X17540Y11750D01*
X17500Y11710D02*
X17500Y11790D01*
X17460Y12250D02*
X17540Y12250D01*
X17500Y12210D02*
X17500Y12290D01*
X17960Y13250D02*
X18040Y13250D01*
X18000Y13210D02*
X18000Y13290D01*
X17460Y13250D02*
X17540Y13250D01*
X17500Y13210D02*
X17500Y13290D01*
X17460Y12750D02*
X17540Y12750D01*
X17500Y12710D02*
X17500Y12790D01*
X16960Y11750D02*
X17040Y11750D01*
X17000Y11710D02*
X17000Y11790D01*
X16960Y11250D02*
X17040Y11250D01*
X17000Y11210D02*
X17000Y11290D01*
X9742Y3170D02*
X9842Y3170D01*
X9792Y3120D02*
X9792Y3220D01*
X8817Y2708D02*
X8917Y2708D01*
X8867Y2658D02*
X8867Y2758D01*
X11937Y3014D02*
X12037Y3014D01*
X11987Y2964D02*
X11987Y3064D01*
X11937Y3892D02*
X12037Y3892D01*
X11987Y3842D02*
X11987Y3942D01*
X8817Y3511D02*
X8917Y3511D01*
X8867Y3461D02*
X8867Y3561D01*
X12507Y3892D02*
X12607Y3892D01*
X12557Y3842D02*
X12557Y3942D01*
X12507Y3014D02*
X12607Y3014D01*
X12557Y2964D02*
X12557Y3064D01*
X-3540Y17250D02*
X-3460Y17250D01*
X-3500Y17210D02*
X-3500Y17290D01*
X-3040Y17250D02*
X-2960Y17250D01*
X-3000Y17210D02*
X-3000Y17290D01*
X-4540Y12625D02*
X-4460Y12625D01*
X-4500Y12585D02*
X-4500Y12665D01*
X-3040Y7500D02*
X-2960Y7500D01*
X-3000Y7460D02*
X-3000Y7540D01*
X-2540Y7500D02*
X-2460Y7500D01*
X-2500Y7460D02*
X-2500Y7540D01*
X-2040Y7500D02*
X-1960Y7500D01*
X-2000Y7460D02*
X-2000Y7540D01*
X-2040Y8000D02*
X-1960Y8000D01*
X-2000Y7960D02*
X-2000Y8040D01*
X-2540Y8500D02*
X-2460Y8500D01*
X-2500Y8460D02*
X-2500Y8540D01*
X-2040Y8500D02*
X-1960Y8500D01*
X-2000Y8460D02*
X-2000Y8540D01*
X-2040Y9000D02*
X-1960Y9000D01*
X-2000Y8960D02*
X-2000Y9040D01*
X-2540Y9000D02*
X-2460Y9000D01*
X-2500Y8960D02*
X-2500Y9040D01*
X-2040Y9500D02*
X-1960Y9500D01*
X-2000Y9460D02*
X-2000Y9540D01*
X-2040Y10000D02*
X-1960Y10000D01*
X-2000Y9960D02*
X-2000Y10040D01*
X-2540Y9500D02*
X-2460Y9500D01*
X-2500Y9460D02*
X-2500Y9540D01*
X-2540Y10000D02*
X-2460Y10000D01*
X-2500Y9960D02*
X-2500Y10040D01*
X-3540Y9500D02*
X-3460Y9500D01*
X-3500Y9460D02*
X-3500Y9540D01*
X-3040Y9500D02*
X-2960Y9500D01*
X-3000Y9460D02*
X-3000Y9540D01*
X-3040Y10000D02*
X-2960Y10000D01*
X-3000Y9960D02*
X-3000Y10040D01*
X-5040Y8000D02*
X-4960Y8000D01*
X-5000Y7960D02*
X-5000Y8040D01*
X-2540Y14000D02*
X-2460Y14000D01*
X-2500Y13960D02*
X-2500Y14040D01*
X-2540Y14500D02*
X-2460Y14500D01*
X-2500Y14460D02*
X-2500Y14540D01*
X-5040Y13975D02*
X-4960Y13975D01*
X-5000Y13935D02*
X-5000Y14015D01*
X-5040Y14500D02*
X-4960Y14500D01*
X-5000Y14460D02*
X-5000Y14540D01*
M02*
