G04*
G04 #@! TF.GenerationSoftware,Altium Limited,Altium Designer,18.1.7 (191)*
G04*
G04 Layer_Color=128*
%FSLAX24Y24*%
%MOIN*%
G70*
G01*
G75*
%ADD23R,0.0236X0.0748*%
%ADD24R,0.0827X0.1102*%
%ADD91C,0.0394*%
%ADD116R,0.0571X0.0315*%
%ADD117R,0.0354X0.0500*%
%ADD265R,0.1102X0.0787*%
%ADD266R,0.1102X0.1102*%
%ADD267R,0.1102X0.0866*%
%ADD268R,0.1417X0.0602*%
%ADD269R,0.1417X0.0433*%
%ADD270R,0.0406X0.1362*%
%ADD271R,0.0535X0.1362*%
D23*
X984Y20463D02*
D03*
X591Y20463D02*
D03*
X197Y20463D02*
D03*
X-197Y20463D02*
D03*
X-591Y20463D02*
D03*
D24*
X2224Y19537D02*
D03*
X-1831Y19537D02*
D03*
D91*
X-30000Y2000D02*
D03*
X30000Y33000D02*
D03*
X-30000Y33000D02*
D03*
D116*
X-26919Y34409D02*
D03*
X-24262Y34409D02*
D03*
X26919Y34409D02*
D03*
X24262Y34409D02*
D03*
D117*
X-24764Y33520D02*
D03*
X-26417Y33520D02*
D03*
X24764Y33520D02*
D03*
X26417Y33520D02*
D03*
D265*
X-25293Y1713D02*
D03*
X-25293Y2815D02*
D03*
D266*
X-26455Y7382D02*
D03*
X-28226Y5768D02*
D03*
D267*
X-28226Y2067D02*
D03*
X-28226Y965D02*
D03*
D268*
X-18835Y12413D02*
D03*
X-18835Y9775D02*
D03*
X-18835Y16613D02*
D03*
X-18835Y13975D02*
D03*
D269*
X-21000Y11487D02*
D03*
X-21000Y10700D02*
D03*
X-21000Y15687D02*
D03*
X-21000Y14900D02*
D03*
D270*
X8562Y27300D02*
D03*
X7971Y27300D02*
D03*
X7381Y27300D02*
D03*
X6790Y27300D02*
D03*
X6200Y27300D02*
D03*
X5609Y27300D02*
D03*
X5019Y27300D02*
D03*
X4428Y27300D02*
D03*
X3838Y27300D02*
D03*
X3247Y27300D02*
D03*
X2657Y27300D02*
D03*
X2066Y27300D02*
D03*
X1475Y27300D02*
D03*
X885Y27300D02*
D03*
X294Y27300D02*
D03*
X-296Y27300D02*
D03*
X-887Y27300D02*
D03*
X-1477Y27300D02*
D03*
X-2068Y27300D02*
D03*
X-2659Y27300D02*
D03*
X-3249Y27300D02*
D03*
X-3840Y27300D02*
D03*
X-4430Y27300D02*
D03*
X-5021Y27300D02*
D03*
X-5611Y27300D02*
D03*
X-6202Y27300D02*
D03*
X-6792Y27300D02*
D03*
X-7383Y27300D02*
D03*
X-7973Y27300D02*
D03*
X-8564Y27300D02*
D03*
D271*
X9219Y27300D02*
D03*
X-9219Y27300D02*
D03*
M02*
