M48
;Layer_Color=9474304
;FILE_FORMAT=2:4
INCH,LZ
;TYPE=PLATED
T1F00S00C0.0080
T2F00S00C0.0100
T3F00S00C0.0157
T4F00S00C0.0315
T5F00S00C0.0354
T6F00S00C0.0400
T7F00S00C0.0630
%
T01
X02475Y00075
X025005Y0005
X0052Y000233
X00375Y00055
X-005496Y000649
X-006683Y00065
X-015Y001006
X-018
X-01875Y000256
X-01925Y000239
X-019917Y0002
X-021Y00055
X-02165Y000756
X-023002Y000982
X-027208Y000965
X-03278Y0035
X-03278Y00425
X-030407Y006167
X-030706Y016063
X-0235Y01625
X-023503Y013997
X-024Y013253
X-026
X-020508Y014
X-020058
Y0145
X-020508
X-020518Y01625
X-020068
Y01675
X-020518
X-0205Y0125
X-02005
Y012
X-0205
X-020477Y01025
X-020027
Y00975
X-020477
X-01845Y011114
X-018064Y011606
X-017348Y008954
X-016798
X-016298
X-015798
X-015497Y004967
X-016559Y003047
X-0175Y003744
X-018Y00325
X-01865Y002248
X-0191Y001615
X-020035Y002285
X-020468
Y002718
X-020035
X-020252Y004
X-020449Y00425
X-02075
X-0209Y004
X-020252Y0045
X-020753Y00525
X-02125Y00485
X-021919
X-0227Y003769
Y0031
X-0231Y0025
X-024Y0027
Y00125
X-022473Y001441
X-024Y0045
X-025293Y003496
X-026Y006167
X-02925Y00425
X-01825Y00525
X-016431Y013687
X-015642Y014191
X-015111
X-015235Y015435
X-014556Y015366
X-014556Y016114
X-014271Y016675
X-01368Y016675
X-012148Y016543
Y016143
X-010198Y015943
Y016393
Y016843
X-008052Y016833
X-008052Y01638
X-008052Y015848
X-006518Y014667
Y014267
X-005Y0145
Y013975
X-0045Y012625
X-002501Y0125
X-0025Y014
X-0025Y0145
X-001251Y015938
X-000751Y016
X-001Y013
X-001001Y012
X-000751Y011747
X00025
X000001Y012
X-000001Y010983
X000413Y009051
X0Y00785
Y00735
X-002Y0075
X-0025
X-003
X-002Y008
X-002Y0085
X-0025
Y009
Y0095
X-002Y0095
Y009
Y01
X-0025
X-003
X-003Y0095
X-0035
X-005Y008
X-005Y00765
X-0047
X-0047Y007375
X-004001Y00425
X-00375Y0045
Y003997
X-00425Y00275
X-0045Y00125
X-0065Y0045
X-00705Y004489
X-007667Y004485
X-008Y00425
X-008283Y004485
X-0089
X-00875Y003997
X-00825Y003537
X-0098Y003752
X-010245Y00425
X-0108Y003747
X-012839Y004168
X-013649Y003968
X-014151
X-014653
X-014402Y003717
X-0139
X-01465Y005717
X-012844
X-0125Y007749
X-01185Y00775
X-0111Y007751
Y009129
X-012321Y009301
X-013277Y011419
Y012
Y012581
X-012981Y01328
X-012588
X-01215Y01325
X-011525Y013529
X-011125
X-01075Y01375
X-010481Y013614
X-010481Y013024
X-009798Y012443
X-010121Y010882
X-008552Y010819
Y011213
Y011606
X-012696Y012
X-013857
X-014503Y01325
X-01125Y014446
X-0098Y007554
X-001647Y005542
X-001537Y005042
X-001544Y004611
X-000387Y004542
X-000104Y005
X000126
X00075Y00505
X000749Y004542
X000409
X001809
Y005042
X001413Y006048
Y00667
X001094Y00735
Y007852
X00115Y0085
X002754Y008501
X00295Y008107
X003Y007749
Y00745
X0026Y00702
X002206
X003693Y006107
X003855Y005944
X00517Y005401
Y005171
X004838Y004929
Y004699
X005917Y00505
X006153
X006389
X006153Y005286
Y004814
X006032Y003735
X005802Y003735
X006653Y00405
X007153
X00645Y00295
X00575Y002502
X00434Y003495
X003264Y004551
X00549Y006276
X005923
X00738Y006316
X007891Y006572
X008561Y006276
X008954Y006276
X009466Y006276
X00986Y006276
X009738Y004813
Y004329
X0087Y004314
Y004814
X007835Y005365
X006986Y007064
X006376Y008117
X005992
Y007733
X005539
Y008117
Y00857
Y009022
X005992
X006376
Y009475
X005992
Y009859
X005539
Y009475
X005086
Y009859
X004633
Y009475
X00425
Y009022
X004633
Y00857
X00425
Y008117
X004633
Y007733
X005086
Y008117
Y00857
Y009022
X005992Y00857
X006376
X00725Y009859
Y01015
X008757Y010125
Y009889
X008954Y009286
X009Y008835
X008937Y00835
X01125Y008
X0115Y00825
X012
X01225Y008001
X0125Y00825
X012996
X01275Y008001
X01325Y008501
X015Y0085
X0154Y008245
X015Y007751
X01475Y0065
Y0055
X015112Y004752
X016Y007
X01225Y0065
X012Y00675
X01175Y006
X0115Y00625
X011246Y00575
X01275
X01075Y006998
X01175Y008
X01275Y0105
X012Y0115
X01125Y012753
X011Y013
X008757Y012969
Y013363
Y012576
X008757Y011985
Y011591
Y011198
X00925Y011
Y0114
X010055Y010494
X015Y0105
X01475Y011487
X01525Y0115
X01425Y012
X016004Y012254
X0155Y01425
X01525Y015
X01475Y0145
X014255Y014497
X0145Y01525
X01425Y015504
X015Y015751
X01575Y016
X015999Y015751
X01625Y01675
X0125Y01675
Y016253
X012504Y015751
Y01525
X00675
X006Y015254
X0055
X0025Y01525
X00175Y015
X002902Y01625
X00295Y012233
X003Y0115
X002754Y0107
X00225
X00175
X002041Y0094
X003049Y009426
X003344Y009485
X003797Y010804
X001859Y012233
X01315Y00228
X01875Y003803
X019004Y005007
X0185Y00625
X0185Y00725
Y00775
X018Y007
X017Y007
X017Y00875
X017499Y008751
X0175Y00925
X018
X0185
X019Y00925
X0195Y00925
Y008751
X02Y00875
X02Y00825
X0205
X021
Y00875
Y00925
X0215
Y00875
X0215Y00825
X022Y00875
X0225
X0225Y009744
X022Y01025
X0215Y01025
X0215Y01075
X0215Y01125
X022
X022503Y01125
X023003
X023Y01225
X022497Y01225
X022497Y012747
X0215Y01275
X0215Y01325
Y01375
X021
X021Y01325
X0205Y01325
X0205Y01375
X02Y01375
X02Y01325
X019Y01325
X0185Y01325
X018Y01325
X0175
Y01275
X0175Y01225
X0175Y01175
X0175Y01125
X017Y01125
Y01175
X0165Y012747
X0165Y013247
X0165Y013747
X0165Y01425
X0175Y014247
X018Y014253
X018Y01375
X019Y01375
Y014247
X0195Y01425
X019997Y01425
X020497
X020997
X021497
X022Y013753
X0225Y01375
X023
X0246Y013497
X024247Y012747
X025999
X026Y013997
X027Y014248
X02675Y0145
X0265Y01475
X02625Y015004
X0255Y015267
X02425Y015259
X025749Y016497
X025999Y01625
X0265Y01625
X02675Y0165
Y016
X02625Y01675
X02225
X0215Y01675
X01975
X0195Y016497
X01775Y0155
X017499Y015251
X017248Y0155
X016752Y016
X016748Y01675
X017Y01325
X0185Y01225
X0195Y01125
X0205Y01225
X0215Y01225
X0215Y01175
X021Y01025
Y00975
X0205Y00975
Y00925
X02Y00925
X0205Y00875
X0205Y007
X02075Y00675
X021Y007
X0215Y007
X022
X02175Y00675
X021501Y005251
X021
X020501Y00575
X01975Y00625
X0195Y0065
X01925Y00675
X0185Y00975
X0175
X0175Y01025
X017Y01025
X0245Y01025
X024999Y01
X025749Y010503
X0267Y010005
X0275
X02725Y009185
X026776Y007751
X02565Y00775
X024999Y00775
Y00725
X025005Y00525
X02525Y005
X024393Y004492
X02425Y003001
X024Y00325
Y00275
X02375Y0025
X0245Y00275
X02475Y002901
X025437Y002392
X026179Y002507
X026429Y00275
X026179Y003002
X02825Y003251
X028497Y0035
X02825Y003751
X0285Y004
X02825Y00425
X028497Y0045
X02825Y00475
X028007Y005
X028497
X02775Y00475
X0275Y004996
X027756Y007
X02975Y007
X029749Y007495
X03Y00725
Y00775
Y00825
X03025Y008001
X0302Y009
X029749Y0094
Y01125
X0295Y0115
X02925Y01175
X028853Y012253
X02825Y01225
X028Y011997
X0265Y01165
X029007Y01075
X028997Y013
X0295Y013002
X029907Y01225
X028753Y01405
X030752Y007
X031Y00675
X03025Y0035
Y003001
X03Y00325
Y00275
X03025Y0025
X030253Y001996
X03Y002243
X02825Y00225
X0285Y0025
X02825Y00275
X0285Y003
X0225Y0035
X022249Y00375
X02225Y00425
X022501Y0045
X022029Y00185
X021679Y00135
X020112Y001851
X032736Y00825
X033068Y00925
Y01025
Y01125
Y01175
Y01225
Y01325
X03265Y01675
X027497Y016997
X027Y017
X02775Y01725
Y0185
X027497Y018248
X02775Y01925
X028007Y01975
X028758Y019948
X028997Y0185
X02925Y01875
X026Y02025
X025003Y020253
X02475Y0205
X02425Y02225
X024499Y0225
X02525Y023
X023997Y02325
X02375Y0235
X024Y023747
X02375Y024
X023997Y02525
X02375Y0255
Y026
X024Y02575
X02355Y02635
X02325Y02675
X024015Y027165
X024Y028
Y02873
X02276Y02874
X022501Y02775
X022247Y028002
X02225Y026
X021144
X0205
X019394
X019394Y0236
X020499Y0236
X021144Y0236
X02225
X02275Y0235
X02275Y022
X023Y02175
X022
X021497
X021994Y02075
X02225Y0205
X02175Y018248
X0215Y018003
X0215Y01751
X021247Y01776
X02025Y018248
X02Y0185
X01975Y019
X0195Y01925
X018Y019754
X01775Y020003
X0175Y0205
X017246Y020747
X017Y021003
X0165Y02125
X016748Y0215
X0165Y017005
X017Y017
X017246Y01725
X01775Y017248
X018Y0175
X0185Y017248
X02Y017005
X02025Y017248
X02225Y01725
X022Y01699
X02425Y017
X025Y016997
X025805Y016995
X02675Y023496
X02725Y024
Y0245
X0275Y02425
Y02475
X02725Y025
Y0255
X0275Y02575
X02725Y026
X0275Y02625
X02725Y0265
X0275Y02675
Y02725
X02725Y027002
X02975Y02345
X03Y02325
X03025Y023002
X021Y025
X019998Y028002
X019997Y0305
X02025Y03075
X02Y031
X02025Y03025
X0185Y02975
X017248Y028002
X01625Y02925
X0155
X015Y0295
X0145Y028252
X01425Y028002
X01375Y03025
X0135Y0305
X01325Y03075
X013Y031
X01275Y03
X0125Y02975
X012Y03025
X009Y03
X00925Y02975
X0095Y0295
X00975Y0278
Y02725
Y02675
X011Y024247
X0125Y02275
X012509Y02225
X012504Y021753
X0125Y02125
X012504Y020751
X0125Y02025
X012504Y019754
X0125Y01925
X012504Y01875
Y018248
Y01775
Y017253
X01625Y02175
X015998Y023496
Y024247
X007Y0285
X00725Y03175
X0075Y0315
X00775Y03125
X00675Y032249
X003247Y03115
X0027Y0308
X002066Y03115
X0017Y03105
X00125Y03225
X003247Y0302
X002708Y028342
X002066Y028252
X000885Y02625
X001499Y018095
X002247Y017
X000375Y018174
X-000501Y01825
X-0025Y017701
X-003Y01725
X-0035Y01725
X-0045Y01725
X-00455Y01925
X-003Y021251
X-002501Y021501
X-001251Y021746
X-001002Y022
X-000748Y02115
X0001
X000294Y02625
X-000887
X-0008Y028252
Y02885
X-001251Y0284
X-002068Y028352
X-00235Y02875
X-002659
X-003249
X-001248Y030212
X-000748Y032249
X-0075Y02985
X-00785
X-00825Y0296
X-00925Y02935
X-00945Y02895
X-009
X-009219Y028686
X-008563Y028656
X-00715Y02875
X-00675Y0289
X-0051Y025
X-005Y024247
X-005843Y022161
X-006325Y022193
Y021775
X-0066Y022
X-006875Y022193
Y021775
X-007811Y022161
X-008331Y022169
X-009474Y022193
Y021775
X-00975Y022
X-010025Y022193
Y021775
X-011122Y02225
X-0125
Y02375
X-01275Y024
X-014071Y026285
X-014Y026714
Y027214
Y027714
Y028214
Y028714
Y029214
Y029714
X-014071Y030143
X-014503Y030212
X-0145Y031
Y03135
Y0317
Y03205
Y0324
X-01375Y03205
X-0134
X-01325Y031714
X-01345Y03125
X-01375Y03135
Y031
X-01245Y03045
Y030157
Y02985
X-01475Y028214
X-0145Y026211
X-01475Y0205
X-0135Y0205
X-0129Y01889
X-01075Y0187
X-0103
Y01915
X-01075
Y01825
X-0103
Y0178
X-01075
X-011208Y017563
X-010547Y017161
X-010198Y017293
X-008052Y017364
X-015747Y01975
X-01525Y020751
X-01575Y02175
X-01725Y02075
X-018736Y0215
X-019257Y0205
X-0203Y0205
X-0205Y01975
X-020499Y019251
X-0216Y01935
X-0218Y019
X-0216Y018
X-023503Y018
X-024253Y02
X-02425Y0205
X-02425Y0215
Y022
X-0225Y02275
X-02225Y022997
Y024103
X-02175Y024106
X-021251
X-021051Y025214
X-02145
X-02045
X-020051
X-02Y02475
X-01975Y0245
X-0195Y0235
X-019
X-01825Y023964
X-01775
X-01725
X-01675
X-01775Y022964
X-01825
X-019003Y0255
X-01925Y025729
Y027464
X-0195Y027714
X-019542Y027232
X-019789Y026992
X-020028Y027239
X-020275Y027
X-020753
X-020514Y027247
X-021Y027239
X-02175Y027264
X-02275Y0275
X-02325
X-0225Y0265
X-02275Y024106
X-02375Y024103
X-02315Y0205
X-021967Y020283
X-021967Y020717
X-021533
X-021533Y020283
X-019752Y0185
X-028176Y018593
X-030055Y027953
Y029527
X-02175Y0292
X-02075Y029164
Y028766
X-0202Y029714
X-0205Y030214
X-0202Y031464
X-02075Y031714
X-0195Y031814
X-01865Y031714
X-0186Y03205
X-01825
Y03135
Y031
X-0175
X-01715
Y03135
X-0175
Y0317
X-01715
Y03205
X-0175
Y0324
X-01715
X-01485
Y03205
Y0317
Y03135
Y031
X-015003Y030212
X-015503
X-016003
X-016503
X-017003
X-017503
X-017929Y030141
X-018Y029715
Y029215
Y028715
Y028215
Y027714
Y027214
Y026714
X-017929Y026289
X-0175Y026214
X-017
X-0165
X-016
X-0155
X-015Y026211
X-016Y026964
X-015999Y027514
X-016Y028214
X-0167Y028213
X-01725Y028214
X-016001Y028914
X-016Y029464
X-0153Y028215
X-019Y028864
Y029317
X-03275Y029106
Y028
X-03274Y027165
X-030706Y021122
X-031638Y016995
X-026417Y03302
X-02325Y0335
X-022747
X-02225
X-01925Y032608
X-0186Y0331
X-018135Y03375
X-01775
Y034135
X-018135Y034135
X-0175Y03275
X-01715
Y0331
X-01485
Y03275
X-0145
X-01425Y03375
X-013865
Y034135
X-01425Y034135
X-0134Y0331
X-01275Y032608
X-00725Y0325
X-007249Y032998
X-0075Y03325
X-00775Y0335
X-008Y03375
X-00825Y034
X-0065Y032527
X-004502Y03275
X-004001
X-003501
X-003001Y032752
X-002501Y03275
X-002001Y032752
X-00175Y033
X-001501Y03275
X-001001Y0325
X-00025Y033
X0015Y0325
X0065
X01025Y03275
Y03325
X0105Y033
X019385
X020565
X02225Y03425
X02325
X025264Y03352
X027931Y0335
X02775Y034
X029Y0345
T02
X008867Y002708
Y003511
X009792Y00317
X01075Y002
X011112Y001996
X011987Y003014
X012557
Y003892
X011987
T03
X-000934Y003001
X-000619
X-000304
X-000461Y003276
X-000146
X000169
X000483
X000641Y003001
X000326
X-001091Y003276
X001113
X000956Y003001
T04
X0135Y00325
X014287
X015075
X015862
X01775
X018537
X019325
X020112
X03015Y004119
X03015Y004906
Y005694
Y006481
X0219Y03165
X021113
X020325
X019538
X01775
X016963
X016175
X015388
X0136
X012813
X012025
X011238
T05
X019095Y034252
X020275
T06
X-0128Y00105
X-0118
X-0108
X-0098
X-0088
X-0078
X-016Y00725
Y00825
X-017
X-017Y00725
X-018
X-019
X-019Y00825
X-018
X-02175Y006
X-02275
X-0128Y00205
X-0118
X-0108
X-0098
X013Y01125
X014
T07
X-0018Y0018
Y002981
X001822
Y0018
M30
