G04*
G04 #@! TF.GenerationSoftware,Altium Limited,Altium Designer,18.1.7 (191)*
G04*
G04 Layer_Color=8388736*
%FSLAX24Y24*%
%MOIN*%
G70*
G01*
G75*
%ADD13C,0.0236*%
%ADD14C,0.0060*%
%ADD100R,0.0460X0.0140*%
%ADD101R,0.0670X0.0940*%
%ADD118R,0.0316X0.0828*%
%ADD119R,0.0907X0.1182*%
G04:AMPARAMS|DCode=120|XSize=33.6mil|YSize=31.6mil|CornerRadius=9.9mil|HoleSize=0mil|Usage=FLASHONLY|Rotation=0.000|XOffset=0mil|YOffset=0mil|HoleType=Round|Shape=RoundedRectangle|*
%AMROUNDEDRECTD120*
21,1,0.0336,0.0118,0,0,0.0*
21,1,0.0138,0.0316,0,0,0.0*
1,1,0.0198,0.0069,-0.0059*
1,1,0.0198,-0.0069,-0.0059*
1,1,0.0198,-0.0069,0.0059*
1,1,0.0198,0.0069,0.0059*
%
%ADD120ROUNDEDRECTD120*%
G04:AMPARAMS|DCode=121|XSize=33.6mil|YSize=31.6mil|CornerRadius=9.9mil|HoleSize=0mil|Usage=FLASHONLY|Rotation=270.000|XOffset=0mil|YOffset=0mil|HoleType=Round|Shape=RoundedRectangle|*
%AMROUNDEDRECTD121*
21,1,0.0336,0.0118,0,0,270.0*
21,1,0.0138,0.0316,0,0,270.0*
1,1,0.0198,-0.0059,-0.0069*
1,1,0.0198,-0.0059,0.0069*
1,1,0.0198,0.0059,0.0069*
1,1,0.0198,0.0059,-0.0069*
%
%ADD121ROUNDEDRECTD121*%
G04:AMPARAMS|DCode=122|XSize=33.6mil|YSize=31.6mil|CornerRadius=9.9mil|HoleSize=0mil|Usage=FLASHONLY|Rotation=225.000|XOffset=0mil|YOffset=0mil|HoleType=Round|Shape=RoundedRectangle|*
%AMROUNDEDRECTD122*
21,1,0.0336,0.0118,0,0,225.0*
21,1,0.0138,0.0316,0,0,225.0*
1,1,0.0198,-0.0090,-0.0007*
1,1,0.0198,0.0007,0.0090*
1,1,0.0198,0.0090,0.0007*
1,1,0.0198,-0.0007,-0.0090*
%
%ADD122ROUNDEDRECTD122*%
%ADD123R,0.0400X0.0240*%
%ADD124R,0.0240X0.0400*%
%ADD125R,0.0513X0.0474*%
%ADD126R,0.0316X0.0277*%
G04:AMPARAMS|DCode=127|XSize=67.1mil|YSize=59.2mil|CornerRadius=16.8mil|HoleSize=0mil|Usage=FLASHONLY|Rotation=180.000|XOffset=0mil|YOffset=0mil|HoleType=Round|Shape=RoundedRectangle|*
%AMROUNDEDRECTD127*
21,1,0.0671,0.0256,0,0,180.0*
21,1,0.0335,0.0592,0,0,180.0*
1,1,0.0336,-0.0167,0.0128*
1,1,0.0336,0.0167,0.0128*
1,1,0.0336,0.0167,-0.0128*
1,1,0.0336,-0.0167,-0.0128*
%
%ADD127ROUNDEDRECTD127*%
%ADD128R,0.0513X0.1340*%
G04:AMPARAMS|DCode=129|XSize=67.1mil|YSize=59.2mil|CornerRadius=16.8mil|HoleSize=0mil|Usage=FLASHONLY|Rotation=90.000|XOffset=0mil|YOffset=0mil|HoleType=Round|Shape=RoundedRectangle|*
%AMROUNDEDRECTD129*
21,1,0.0671,0.0256,0,0,90.0*
21,1,0.0335,0.0592,0,0,90.0*
1,1,0.0336,0.0128,0.0167*
1,1,0.0336,0.0128,-0.0167*
1,1,0.0336,-0.0128,-0.0167*
1,1,0.0336,-0.0128,0.0167*
%
%ADD129ROUNDEDRECTD129*%
G04:AMPARAMS|DCode=130|XSize=47.4mil|YSize=51.3mil|CornerRadius=13.8mil|HoleSize=0mil|Usage=FLASHONLY|Rotation=270.000|XOffset=0mil|YOffset=0mil|HoleType=Round|Shape=RoundedRectangle|*
%AMROUNDEDRECTD130*
21,1,0.0474,0.0236,0,0,270.0*
21,1,0.0197,0.0513,0,0,270.0*
1,1,0.0277,-0.0118,-0.0098*
1,1,0.0277,-0.0118,0.0098*
1,1,0.0277,0.0118,0.0098*
1,1,0.0277,0.0118,-0.0098*
%
%ADD130ROUNDEDRECTD130*%
%ADD131R,0.0277X0.0316*%
%ADD132R,0.0493X0.0946*%
%ADD133R,0.0493X0.0474*%
%ADD134R,0.0324X0.0552*%
%ADD135R,0.0631X0.0907*%
%ADD136R,0.1330X0.0680*%
%ADD137R,0.0474X0.0415*%
%ADD138R,0.0474X0.0415*%
%ADD139R,0.1379X0.1025*%
%ADD140R,0.0474X0.1025*%
%ADD141R,0.0690X0.0297*%
%ADD142R,0.0474X0.0316*%
%ADD143R,0.0474X0.0474*%
G04:AMPARAMS|DCode=144|XSize=31.6mil|YSize=65.1mil|CornerRadius=6mil|HoleSize=0mil|Usage=FLASHONLY|Rotation=270.000|XOffset=0mil|YOffset=0mil|HoleType=Round|Shape=RoundedRectangle|*
%AMROUNDEDRECTD144*
21,1,0.0316,0.0531,0,0,270.0*
21,1,0.0196,0.0651,0,0,270.0*
1,1,0.0120,-0.0265,-0.0098*
1,1,0.0120,-0.0265,0.0098*
1,1,0.0120,0.0265,0.0098*
1,1,0.0120,0.0265,-0.0098*
%
%ADD144ROUNDEDRECTD144*%
G04:AMPARAMS|DCode=145|XSize=28.6mil|YSize=14.8mil|CornerRadius=4.5mil|HoleSize=0mil|Usage=FLASHONLY|Rotation=0.000|XOffset=0mil|YOffset=0mil|HoleType=Round|Shape=RoundedRectangle|*
%AMROUNDEDRECTD145*
21,1,0.0286,0.0059,0,0,0.0*
21,1,0.0197,0.0148,0,0,0.0*
1,1,0.0089,0.0098,-0.0030*
1,1,0.0089,-0.0098,-0.0030*
1,1,0.0089,-0.0098,0.0030*
1,1,0.0089,0.0098,0.0030*
%
%ADD145ROUNDEDRECTD145*%
G04:AMPARAMS|DCode=146|XSize=28.6mil|YSize=14.8mil|CornerRadius=4.5mil|HoleSize=0mil|Usage=FLASHONLY|Rotation=90.000|XOffset=0mil|YOffset=0mil|HoleType=Round|Shape=RoundedRectangle|*
%AMROUNDEDRECTD146*
21,1,0.0286,0.0059,0,0,90.0*
21,1,0.0197,0.0148,0,0,90.0*
1,1,0.0089,0.0030,0.0098*
1,1,0.0089,0.0030,-0.0098*
1,1,0.0089,-0.0030,-0.0098*
1,1,0.0089,-0.0030,0.0098*
%
%ADD146ROUNDEDRECTD146*%
G04:AMPARAMS|DCode=147|XSize=240.3mil|YSize=240.3mil|CornerRadius=6.3mil|HoleSize=0mil|Usage=FLASHONLY|Rotation=90.000|XOffset=0mil|YOffset=0mil|HoleType=Round|Shape=RoundedRectangle|*
%AMROUNDEDRECTD147*
21,1,0.2403,0.2276,0,0,90.0*
21,1,0.2276,0.2403,0,0,90.0*
1,1,0.0126,0.1138,0.1138*
1,1,0.0126,0.1138,-0.1138*
1,1,0.0126,-0.1138,-0.1138*
1,1,0.0126,-0.1138,0.1138*
%
%ADD147ROUNDEDRECTD147*%
G04:AMPARAMS|DCode=148|XSize=11.9mil|YSize=27.6mil|CornerRadius=4mil|HoleSize=0mil|Usage=FLASHONLY|Rotation=0.000|XOffset=0mil|YOffset=0mil|HoleType=Round|Shape=RoundedRectangle|*
%AMROUNDEDRECTD148*
21,1,0.0119,0.0197,0,0,0.0*
21,1,0.0039,0.0276,0,0,0.0*
1,1,0.0079,0.0020,-0.0098*
1,1,0.0079,-0.0020,-0.0098*
1,1,0.0079,-0.0020,0.0098*
1,1,0.0079,0.0020,0.0098*
%
%ADD148ROUNDEDRECTD148*%
G04:AMPARAMS|DCode=149|XSize=11.9mil|YSize=27.6mil|CornerRadius=4mil|HoleSize=0mil|Usage=FLASHONLY|Rotation=270.000|XOffset=0mil|YOffset=0mil|HoleType=Round|Shape=RoundedRectangle|*
%AMROUNDEDRECTD149*
21,1,0.0119,0.0197,0,0,270.0*
21,1,0.0039,0.0276,0,0,270.0*
1,1,0.0079,-0.0098,-0.0020*
1,1,0.0079,-0.0098,0.0020*
1,1,0.0079,0.0098,0.0020*
1,1,0.0079,0.0098,-0.0020*
%
%ADD149ROUNDEDRECTD149*%
G04:AMPARAMS|DCode=150|XSize=72.9mil|YSize=72.9mil|CornerRadius=5mil|HoleSize=0mil|Usage=FLASHONLY|Rotation=90.000|XOffset=0mil|YOffset=0mil|HoleType=Round|Shape=RoundedRectangle|*
%AMROUNDEDRECTD150*
21,1,0.0729,0.0629,0,0,90.0*
21,1,0.0629,0.0729,0,0,90.0*
1,1,0.0100,0.0315,0.0315*
1,1,0.0100,0.0315,-0.0315*
1,1,0.0100,-0.0315,-0.0315*
1,1,0.0100,-0.0315,0.0315*
%
%ADD150ROUNDEDRECTD150*%
%ADD151R,0.0100X0.0100*%
%ADD152R,0.0100X0.0100*%
%ADD153R,0.0395X0.0316*%
%ADD154R,0.1398X0.1398*%
%ADD155O,0.0134X0.0276*%
%ADD156O,0.0276X0.0134*%
%ADD157R,0.1379X0.0631*%
G04:AMPARAMS|DCode=158|XSize=78.9mil|YSize=71mil|CornerRadius=19.7mil|HoleSize=0mil|Usage=FLASHONLY|Rotation=0.000|XOffset=0mil|YOffset=0mil|HoleType=Round|Shape=RoundedRectangle|*
%AMROUNDEDRECTD158*
21,1,0.0789,0.0315,0,0,0.0*
21,1,0.0394,0.0710,0,0,0.0*
1,1,0.0395,0.0197,-0.0157*
1,1,0.0395,-0.0197,-0.0157*
1,1,0.0395,-0.0197,0.0157*
1,1,0.0395,0.0197,0.0157*
%
%ADD158ROUNDEDRECTD158*%
%ADD159R,0.0154X0.0370*%
%ADD160R,0.1039X0.0409*%
%ADD161R,0.0385X0.0169*%
%ADD162R,0.0169X0.0385*%
%ADD163R,0.1123X0.1123*%
%ADD164R,0.0435X0.0179*%
%ADD165R,0.0179X0.0435*%
%ADD166R,0.1050X0.1050*%
%ADD167R,0.0828X0.1045*%
%ADD168R,0.0328X0.0277*%
%ADD169R,0.0360X0.0670*%
%ADD170R,0.0470X0.0400*%
G04:AMPARAMS|DCode=171|XSize=27.7mil|YSize=27.7mil|CornerRadius=13.8mil|HoleSize=0mil|Usage=FLASHONLY|Rotation=180.000|XOffset=0mil|YOffset=0mil|HoleType=Round|Shape=RoundedRectangle|*
%AMROUNDEDRECTD171*
21,1,0.0277,0.0000,0,0,180.0*
21,1,0.0000,0.0277,0,0,180.0*
1,1,0.0277,0.0000,0.0000*
1,1,0.0277,0.0000,0.0000*
1,1,0.0277,0.0000,0.0000*
1,1,0.0277,0.0000,0.0000*
%
%ADD171ROUNDEDRECTD171*%
%ADD172R,0.0295X0.0295*%
%ADD173R,0.0295X0.0157*%
%ADD174R,0.0157X0.0295*%
%ADD175R,0.0393X0.0393*%
%ADD176R,0.0533X0.0671*%
%ADD177R,0.0671X0.0533*%
%ADD178R,0.0354X0.0630*%
%ADD179R,0.0631X0.0749*%
%ADD180R,0.0336X0.0513*%
G04:AMPARAMS|DCode=181|XSize=78.9mil|YSize=59.2mil|CornerRadius=16.8mil|HoleSize=0mil|Usage=FLASHONLY|Rotation=180.000|XOffset=0mil|YOffset=0mil|HoleType=Round|Shape=RoundedRectangle|*
%AMROUNDEDRECTD181*
21,1,0.0789,0.0256,0,0,180.0*
21,1,0.0453,0.0592,0,0,180.0*
1,1,0.0336,-0.0226,0.0128*
1,1,0.0336,0.0226,0.0128*
1,1,0.0336,0.0226,-0.0128*
1,1,0.0336,-0.0226,-0.0128*
%
%ADD181ROUNDEDRECTD181*%
%ADD182R,0.0454X0.0493*%
%ADD183R,0.1851X0.0670*%
%ADD184R,0.1178X0.0834*%
%ADD185R,0.0218X0.0789*%
%ADD186R,0.0206X0.0789*%
%ADD187C,0.1260*%
%ADD188R,0.0789X0.0474*%
%ADD189R,0.0210X0.0525*%
%ADD190R,0.0493X0.0356*%
%ADD191R,0.0285X0.0356*%
%ADD192R,0.1064X0.0749*%
%ADD193R,0.0277X0.0356*%
%ADD194O,0.0316X0.0867*%
%ADD195R,0.1300X0.1025*%
%ADD196R,0.0950X0.0750*%
%ADD197R,0.0611X0.0808*%
%ADD198R,0.0671X0.0592*%
%ADD199R,0.0474X0.0513*%
%ADD200R,0.0710X0.1143*%
%ADD201R,0.0887X0.0379*%
%ADD202R,0.0297X0.0690*%
%ADD203R,0.0415X0.0474*%
%ADD204R,0.0415X0.0474*%
%ADD205R,0.0592X0.0671*%
%ADD206R,0.0808X0.0611*%
%ADD207R,0.1045X0.0828*%
%ADD208R,0.0277X0.0328*%
G04:AMPARAMS|DCode=209|XSize=78.9mil|YSize=71mil|CornerRadius=19.7mil|HoleSize=0mil|Usage=FLASHONLY|Rotation=90.000|XOffset=0mil|YOffset=0mil|HoleType=Round|Shape=RoundedRectangle|*
%AMROUNDEDRECTD209*
21,1,0.0789,0.0315,0,0,90.0*
21,1,0.0394,0.0710,0,0,90.0*
1,1,0.0395,0.0157,0.0197*
1,1,0.0395,0.0157,-0.0197*
1,1,0.0395,-0.0157,-0.0197*
1,1,0.0395,-0.0157,0.0197*
%
%ADD209ROUNDEDRECTD209*%
%ADD210R,0.0651X0.0395*%
%ADD211R,0.0434X0.0580*%
%ADD212C,0.0240*%
%ADD213C,0.0210*%
%ADD214C,0.0671*%
%ADD215C,0.0580*%
%ADD216R,0.0564X0.0564*%
%ADD217C,0.0680*%
%ADD218C,0.0237*%
%ADD219C,0.0039*%
%ADD220C,0.0030*%
%ADD221C,0.0080*%
%ADD222C,0.0474*%
%ADD223C,0.0336*%
%ADD224C,0.0907*%
%ADD225R,0.0564X0.0564*%
%ADD226C,0.0277*%
%ADD227C,0.0260*%
D13*
X-15987Y2248D02*
G03*
X-15987Y2248I-261J0D01*
G01*
D14*
X-31500Y35000D02*
G03*
X-33500Y33000I0J-2000D01*
G01*
X33500Y33000D02*
G03*
X31500Y35000I-2000J-0D01*
G01*
X31500Y0D02*
G03*
X33500Y2000I-0J2000D01*
G01*
X-33500Y2000D02*
G03*
X-31500Y-0I2000J0D01*
G01*
X-33500Y2000D02*
X-33500Y33000D01*
X-31500Y35000D02*
X31500Y35000D01*
X33500Y33000D02*
X33500Y2000D01*
X-31500Y-0D02*
X31500Y0D01*
D100*
X11750Y9500D02*
D03*
X11750Y10012D02*
D03*
X12510Y10012D02*
D03*
X12510Y9756D02*
D03*
X12510Y9500D02*
D03*
D101*
X16270Y4500D02*
D03*
X17730Y4500D02*
D03*
D118*
X-501Y28415D02*
D03*
X-107Y28415D02*
D03*
X287Y28415D02*
D03*
X680Y28415D02*
D03*
X1074Y28415D02*
D03*
X1468Y28415D02*
D03*
D119*
X-1741Y27490D02*
D03*
X2708Y27490D02*
D03*
D120*
X13997Y5106D02*
D03*
X13997Y5500D02*
D03*
X13247Y5500D02*
D03*
X13247Y5106D02*
D03*
X13247Y4528D02*
D03*
X13247Y4135D02*
D03*
X-22250Y23353D02*
D03*
X-22250Y23747D02*
D03*
X-22750Y23750D02*
D03*
X-22750Y23356D02*
D03*
X18750Y4500D02*
D03*
X18750Y4106D02*
D03*
X-12900Y17020D02*
D03*
X-12900Y17413D02*
D03*
X-17841Y16600D02*
D03*
X-17841Y16206D02*
D03*
X-14527Y14747D02*
D03*
X-14527Y14353D02*
D03*
X-13572Y14362D02*
D03*
X-13572Y14756D02*
D03*
X-14027Y14750D02*
D03*
X-14027Y14356D02*
D03*
X-12577Y16232D02*
D03*
X-12577Y15839D02*
D03*
X-13178Y14362D02*
D03*
X-13178Y14756D02*
D03*
X-11532Y9684D02*
D03*
X-11532Y10078D02*
D03*
X-17348Y9349D02*
D03*
X-17348Y9743D02*
D03*
X-16798Y9743D02*
D03*
X-16798Y9349D02*
D03*
X-16298Y9349D02*
D03*
X-16298Y9743D02*
D03*
X-15798Y9743D02*
D03*
X-15798Y9349D02*
D03*
X-6750Y1356D02*
D03*
X-6750Y1750D02*
D03*
X2206Y7700D02*
D03*
X2206Y7306D02*
D03*
X5200Y1589D02*
D03*
X5200Y1983D02*
D03*
X24500Y11500D02*
D03*
X24500Y11894D02*
D03*
X24746Y12557D02*
D03*
X24746Y12950D02*
D03*
X24504Y10605D02*
D03*
X24504Y10999D02*
D03*
X-12320Y9684D02*
D03*
X-12320Y10078D02*
D03*
X-21750Y23750D02*
D03*
X-21750Y23356D02*
D03*
X-19752Y19250D02*
D03*
X-19752Y18856D02*
D03*
X-16750Y24321D02*
D03*
X-16750Y24714D02*
D03*
X-17250Y24714D02*
D03*
X-17250Y24321D02*
D03*
X-18250Y24321D02*
D03*
X-18250Y24714D02*
D03*
X-17750Y24714D02*
D03*
X-17750Y24321D02*
D03*
X-20750Y31358D02*
D03*
X-20750Y30964D02*
D03*
X-21750Y27606D02*
D03*
X-21750Y28000D02*
D03*
X-21750Y28500D02*
D03*
X-21750Y28894D02*
D03*
X-18250Y23714D02*
D03*
X-18250Y23321D02*
D03*
X-17750Y23321D02*
D03*
X-17750Y23714D02*
D03*
X16250Y30000D02*
D03*
X16250Y29606D02*
D03*
X15500Y29606D02*
D03*
X15500Y30000D02*
D03*
X26776Y7000D02*
D03*
X26776Y7394D02*
D03*
X-15747Y20106D02*
D03*
X-15747Y20500D02*
D03*
X-15750Y21394D02*
D03*
X-15750Y21000D02*
D03*
X-23750Y33000D02*
D03*
X-23750Y32606D02*
D03*
X27431Y32606D02*
D03*
X27431Y33000D02*
D03*
X-23003Y18750D02*
D03*
X-23003Y18356D02*
D03*
X-23000Y16606D02*
D03*
X-23000Y17000D02*
D03*
X-23000Y14353D02*
D03*
X-23000Y14747D02*
D03*
X-23250Y23353D02*
D03*
X-23250Y23747D02*
D03*
X-19986Y21894D02*
D03*
X-19986Y21500D02*
D03*
X7380Y7713D02*
D03*
X7380Y7320D02*
D03*
X-20751Y23750D02*
D03*
X-20751Y23356D02*
D03*
X-18500Y20750D02*
D03*
X-18500Y21144D02*
D03*
X-11516Y25000D02*
D03*
X-11516Y25394D02*
D03*
X19997Y28750D02*
D03*
X19997Y28356D02*
D03*
X-24000Y2000D02*
D03*
X-24000Y1606D02*
D03*
X-17500Y2642D02*
D03*
X-17500Y2248D02*
D03*
X-17500Y1750D02*
D03*
X-17500Y1356D02*
D03*
X-4000Y16500D02*
D03*
X-4000Y16894D02*
D03*
X-8250Y2750D02*
D03*
X-8250Y3144D02*
D03*
X1750Y10002D02*
D03*
X1750Y10396D02*
D03*
X2250Y10002D02*
D03*
X2250Y10396D02*
D03*
X3250Y10944D02*
D03*
X3250Y10550D02*
D03*
X3450Y2050D02*
D03*
X3450Y1656D02*
D03*
X2754Y10396D02*
D03*
X2754Y10002D02*
D03*
X-2501Y17394D02*
D03*
X-2501Y17000D02*
D03*
X-3000Y16894D02*
D03*
X-3000Y16500D02*
D03*
X19250Y29644D02*
D03*
X19250Y29250D02*
D03*
X6952Y2050D02*
D03*
X6952Y1656D02*
D03*
X21500Y29697D02*
D03*
X21500Y29303D02*
D03*
X-10800Y2997D02*
D03*
X-10800Y3391D02*
D03*
X-9800Y3396D02*
D03*
X-9800Y3002D02*
D03*
X-6750Y24247D02*
D03*
X-6750Y24640D02*
D03*
X-7000Y25394D02*
D03*
X-7000Y25000D02*
D03*
X-7250Y24250D02*
D03*
X-7250Y24644D02*
D03*
X-7500Y25394D02*
D03*
X-7500Y25000D02*
D03*
X-7750Y24250D02*
D03*
X-7750Y24644D02*
D03*
X-8002Y25394D02*
D03*
X-8002Y25000D02*
D03*
X-8250Y24250D02*
D03*
X-8250Y24644D02*
D03*
X-8500Y25394D02*
D03*
X-8500Y25000D02*
D03*
X-8750Y24250D02*
D03*
X-8750Y24644D02*
D03*
X-8991Y25394D02*
D03*
X-8991Y25000D02*
D03*
X-9250Y24250D02*
D03*
X-9250Y24644D02*
D03*
X-9750Y25397D02*
D03*
X-9750Y25003D02*
D03*
X-10000Y24253D02*
D03*
X-10000Y24647D02*
D03*
X-10250Y25397D02*
D03*
X-10250Y25003D02*
D03*
X-10500Y24253D02*
D03*
X-10500Y24647D02*
D03*
X-10750Y25397D02*
D03*
X-10750Y25003D02*
D03*
X-12250Y24247D02*
D03*
X-12250Y24640D02*
D03*
X-12000Y25394D02*
D03*
X-12000Y25000D02*
D03*
X-11750Y24250D02*
D03*
X-11750Y24644D02*
D03*
X-11000Y24644D02*
D03*
X-11000Y24250D02*
D03*
X20112Y2600D02*
D03*
X20112Y2206D02*
D03*
X32421Y14503D02*
D03*
X32421Y14897D02*
D03*
X-22747Y32606D02*
D03*
X-22747Y33000D02*
D03*
X28497Y34000D02*
D03*
X28497Y33606D02*
D03*
X-9900Y8253D02*
D03*
X-9900Y8647D02*
D03*
X-16950Y10802D02*
D03*
X-16950Y11196D02*
D03*
X-10698Y14446D02*
D03*
X-10698Y14839D02*
D03*
X26500Y12956D02*
D03*
X26500Y13350D02*
D03*
X26500Y12494D02*
D03*
X26500Y12100D02*
D03*
X17730Y5914D02*
D03*
X17730Y5520D02*
D03*
X16270Y5914D02*
D03*
X16270Y5520D02*
D03*
X-17929Y32608D02*
D03*
X-17929Y32214D02*
D03*
X29000Y33606D02*
D03*
X29000Y34000D02*
D03*
X25500Y11393D02*
D03*
X25500Y10999D02*
D03*
X24999Y11394D02*
D03*
X24999Y11000D02*
D03*
X26000Y11393D02*
D03*
X26000Y10999D02*
D03*
X-21600Y18750D02*
D03*
X-21600Y18356D02*
D03*
X-19250Y26464D02*
D03*
X-19250Y26071D02*
D03*
X-17668Y14362D02*
D03*
X-17668Y13968D02*
D03*
X-17668Y13575D02*
D03*
X-17668Y13181D02*
D03*
X-17668Y12787D02*
D03*
X-17668Y12394D02*
D03*
X-17668Y12000D02*
D03*
X-17668Y11606D02*
D03*
X7891Y6926D02*
D03*
X7891Y7320D02*
D03*
X-16377Y10803D02*
D03*
X-16377Y11197D02*
D03*
X-23250Y33000D02*
D03*
X-23250Y32606D02*
D03*
X27931Y32606D02*
D03*
X27931Y33000D02*
D03*
X-23503Y18750D02*
D03*
X-23503Y18356D02*
D03*
X-23503Y14747D02*
D03*
X-23503Y14353D02*
D03*
X-23750Y23353D02*
D03*
X-23750Y23747D02*
D03*
X-21251Y23356D02*
D03*
X-21251Y23750D02*
D03*
X-17500Y3394D02*
D03*
X-17500Y3000D02*
D03*
X-22473Y1791D02*
D03*
X-22473Y2184D02*
D03*
X-21750Y3394D02*
D03*
X-21750Y3000D02*
D03*
X-32750Y28750D02*
D03*
X-32750Y28356D02*
D03*
X2600Y7306D02*
D03*
X2600Y7700D02*
D03*
X10094Y2410D02*
D03*
X10094Y2016D02*
D03*
X-2501Y11750D02*
D03*
X-2501Y12144D02*
D03*
X-2500Y16106D02*
D03*
X-2500Y16500D02*
D03*
X-3500Y16500D02*
D03*
X-3500Y16894D02*
D03*
X6450Y3700D02*
D03*
X6450Y3306D02*
D03*
X-12844Y4918D02*
D03*
X-12844Y5312D02*
D03*
X-23500Y16606D02*
D03*
X-23500Y17000D02*
D03*
X19004Y5356D02*
D03*
X19004Y5750D02*
D03*
X-22250Y32606D02*
D03*
X-22250Y33000D02*
D03*
D121*
X11000Y10500D02*
D03*
X10606Y10500D02*
D03*
X11150Y8400D02*
D03*
X10756Y8400D02*
D03*
X11153Y8850D02*
D03*
X10759Y8850D02*
D03*
X-18323Y31714D02*
D03*
X-17929Y31714D02*
D03*
X-18400Y32608D02*
D03*
X-18794Y32608D02*
D03*
X-13677Y31714D02*
D03*
X-14071Y31714D02*
D03*
X-13600Y32608D02*
D03*
X-13206Y32608D02*
D03*
X12861Y22250D02*
D03*
X13255Y22250D02*
D03*
X13250Y17253D02*
D03*
X12856Y17253D02*
D03*
X12852Y16253D02*
D03*
X13246Y16253D02*
D03*
X13250Y15751D02*
D03*
X12856Y15751D02*
D03*
X12856Y15250D02*
D03*
X13250Y15250D02*
D03*
X12852Y22750D02*
D03*
X13246Y22750D02*
D03*
X13250Y21753D02*
D03*
X12856Y21753D02*
D03*
X12852Y21250D02*
D03*
X13246Y21250D02*
D03*
X13250Y20751D02*
D03*
X12856Y20751D02*
D03*
X12852Y20250D02*
D03*
X13246Y20250D02*
D03*
X13250Y19754D02*
D03*
X12856Y19754D02*
D03*
X12852Y19250D02*
D03*
X13246Y19250D02*
D03*
X13250Y18750D02*
D03*
X12856Y18750D02*
D03*
X12856Y18248D02*
D03*
X13250Y18248D02*
D03*
X13250Y17750D02*
D03*
X12856Y17750D02*
D03*
X12852Y16750D02*
D03*
X13246Y16750D02*
D03*
X-15245Y16250D02*
D03*
X-14852Y16250D02*
D03*
X-18062Y14362D02*
D03*
X-18456Y14362D02*
D03*
X-18062Y13575D02*
D03*
X-18456Y13575D02*
D03*
X-11604Y17563D02*
D03*
X-11997Y17563D02*
D03*
X-11997Y17150D02*
D03*
X-11604Y17150D02*
D03*
X-18062Y12787D02*
D03*
X-18456Y12787D02*
D03*
X-18062Y12000D02*
D03*
X-18456Y12000D02*
D03*
X-18054Y10720D02*
D03*
X-17661Y10720D02*
D03*
X-17661Y11114D02*
D03*
X-18054Y11114D02*
D03*
X-4706Y649D02*
D03*
X-5100Y649D02*
D03*
X306Y7350D02*
D03*
X700Y7350D02*
D03*
X306Y7852D02*
D03*
X700Y7852D02*
D03*
X16803Y6053D02*
D03*
X17197Y6053D02*
D03*
X-5250Y31250D02*
D03*
X-4856Y31250D02*
D03*
X-4856Y30750D02*
D03*
X-5250Y30750D02*
D03*
X-5250Y30250D02*
D03*
X-4856Y30250D02*
D03*
X-4856Y29750D02*
D03*
X-5250Y29750D02*
D03*
X-5250Y28750D02*
D03*
X-4856Y28750D02*
D03*
X-4856Y29250D02*
D03*
X-5250Y29250D02*
D03*
X-5250Y31750D02*
D03*
X-4856Y31750D02*
D03*
X-5856Y29250D02*
D03*
X-6250Y29250D02*
D03*
X-6250Y28750D02*
D03*
X-5856Y28750D02*
D03*
X-5856Y29750D02*
D03*
X-6250Y29750D02*
D03*
X-6250Y30250D02*
D03*
X-5856Y30250D02*
D03*
X-5856Y30750D02*
D03*
X-6250Y30750D02*
D03*
X-6250Y31250D02*
D03*
X-5856Y31250D02*
D03*
X-5856Y31750D02*
D03*
X-6250Y31750D02*
D03*
X24250Y7250D02*
D03*
X24644Y7250D02*
D03*
X25647Y8100D02*
D03*
X25253Y8100D02*
D03*
X20257Y5250D02*
D03*
X20651Y5250D02*
D03*
X20856Y5750D02*
D03*
X21250Y5750D02*
D03*
X22250Y5251D02*
D03*
X21856Y5251D02*
D03*
X24644Y7750D02*
D03*
X24250Y7750D02*
D03*
X-1Y16000D02*
D03*
X-394Y16000D02*
D03*
X-23894Y21000D02*
D03*
X-23500Y21000D02*
D03*
X-23894Y22500D02*
D03*
X-23500Y22500D02*
D03*
X-23500Y19500D02*
D03*
X-23894Y19500D02*
D03*
X6198Y6828D02*
D03*
X6592Y6828D02*
D03*
X-5856Y32249D02*
D03*
X-6250Y32249D02*
D03*
X-31750Y3500D02*
D03*
X-32144Y3500D02*
D03*
X-32144Y4250D02*
D03*
X-31750Y4250D02*
D03*
X3700Y12233D02*
D03*
X3306Y12233D02*
D03*
X2253Y12233D02*
D03*
X2646Y12233D02*
D03*
X-358Y7350D02*
D03*
X-752Y7350D02*
D03*
X806Y9051D02*
D03*
X1200Y9051D02*
D03*
X8167Y9286D02*
D03*
X8561Y9286D02*
D03*
X8544Y8835D02*
D03*
X8150Y8835D02*
D03*
X8344Y4314D02*
D03*
X7950Y4314D02*
D03*
X7950Y4814D02*
D03*
X8344Y4814D02*
D03*
X4853Y4204D02*
D03*
X5247Y4204D02*
D03*
X3647Y4204D02*
D03*
X3253Y4204D02*
D03*
X9450Y4314D02*
D03*
X9056Y4314D02*
D03*
X9056Y4814D02*
D03*
X9450Y4814D02*
D03*
X8544Y8350D02*
D03*
X8150Y8350D02*
D03*
X12017Y946D02*
D03*
X11623Y946D02*
D03*
X10841Y946D02*
D03*
X11234Y946D02*
D03*
X18144Y29750D02*
D03*
X17750Y29750D02*
D03*
X25144Y15267D02*
D03*
X24750Y15267D02*
D03*
X-19250Y5250D02*
D03*
X-18856Y5250D02*
D03*
X-20252Y5250D02*
D03*
X-19858Y5250D02*
D03*
X29356Y10750D02*
D03*
X29750Y10750D02*
D03*
X31994Y8250D02*
D03*
X32387Y8250D02*
D03*
X-8957Y29350D02*
D03*
X-8563Y29350D02*
D03*
X-10421Y7751D02*
D03*
X-10815Y7751D02*
D03*
X-10421Y9129D02*
D03*
X-10815Y9129D02*
D03*
X-13631Y18890D02*
D03*
X-14025Y18890D02*
D03*
X-14989Y18890D02*
D03*
X-15383Y18890D02*
D03*
X7547Y5365D02*
D03*
X7153Y5365D02*
D03*
X-19894Y29714D02*
D03*
X-19500Y29714D02*
D03*
X-23894Y20500D02*
D03*
X-23500Y20500D02*
D03*
X-20007Y20500D02*
D03*
X-19614Y20500D02*
D03*
X-19500Y31464D02*
D03*
X-19894Y31464D02*
D03*
X22385Y1850D02*
D03*
X22779Y1850D02*
D03*
X1499Y17000D02*
D03*
X1893Y17000D02*
D03*
X-23500Y21500D02*
D03*
X-23894Y21500D02*
D03*
X-23500Y22000D02*
D03*
X-23894Y22000D02*
D03*
X-23503Y20000D02*
D03*
X-23897Y20000D02*
D03*
X-19486Y21500D02*
D03*
X-19092Y21500D02*
D03*
X-18000Y20750D02*
D03*
X-17606Y20750D02*
D03*
X-20055Y1000D02*
D03*
X-20449Y1000D02*
D03*
X-21644Y4000D02*
D03*
X-21250Y4000D02*
D03*
X23510Y28740D02*
D03*
X23116Y28740D02*
D03*
X-5896Y650D02*
D03*
X-6289Y650D02*
D03*
X7380Y6670D02*
D03*
X6986Y6670D02*
D03*
X700Y8350D02*
D03*
X306Y8350D02*
D03*
X700Y6851D02*
D03*
X306Y6851D02*
D03*
X2356Y9400D02*
D03*
X2750Y9400D02*
D03*
X20144Y26000D02*
D03*
X19750Y26000D02*
D03*
X21500Y23600D02*
D03*
X21894Y23600D02*
D03*
X21894Y26000D02*
D03*
X21500Y26000D02*
D03*
X19750Y23600D02*
D03*
X20144Y23600D02*
D03*
X29106Y12253D02*
D03*
X29500Y12253D02*
D03*
D122*
X5278Y30722D02*
D03*
X5000Y31000D02*
D03*
X4000Y31500D02*
D03*
X4278Y31222D02*
D03*
X4776Y30222D02*
D03*
X4498Y30500D02*
D03*
D123*
X28758Y22745D02*
D03*
X28758Y20345D02*
D03*
X25805Y17393D02*
D03*
X25805Y19793D02*
D03*
X28758Y16840D02*
D03*
X28758Y14440D02*
D03*
X-31638Y17393D02*
D03*
X-31638Y19793D02*
D03*
D124*
X-30308Y16063D02*
D03*
X-27908Y16063D02*
D03*
X30511Y18593D02*
D03*
X32911Y18593D02*
D03*
X-25379Y18593D02*
D03*
X-27779Y18593D02*
D03*
X-30308Y21122D02*
D03*
X-27908Y21122D02*
D03*
D125*
X-5492Y24247D02*
D03*
X-6161Y24247D02*
D03*
X2208Y16250D02*
D03*
X1539Y16250D02*
D03*
X22109Y1350D02*
D03*
X22779Y1350D02*
D03*
X-21250Y4489D02*
D03*
X-21919Y4489D02*
D03*
X-20586Y550D02*
D03*
X-19917Y550D02*
D03*
X2200Y8501D02*
D03*
X1531Y8501D02*
D03*
D126*
X-16431Y13333D02*
D03*
X-16431Y12939D02*
D03*
X-11926Y9684D02*
D03*
X-11926Y10078D02*
D03*
X-14071Y32214D02*
D03*
X-14071Y32608D02*
D03*
X-501Y19000D02*
D03*
X-501Y18606D02*
D03*
X-18000Y1750D02*
D03*
X-18000Y1356D02*
D03*
X-21250Y903D02*
D03*
X-21250Y1297D02*
D03*
X-19250Y589D02*
D03*
X-19250Y983D02*
D03*
X-21650Y1106D02*
D03*
X-21650Y1500D02*
D03*
X-18750Y606D02*
D03*
X-18750Y1000D02*
D03*
X-4500Y16500D02*
D03*
X-4500Y16894D02*
D03*
D127*
X12144Y2569D02*
D03*
X12144Y1781D02*
D03*
D128*
X11510Y3563D02*
D03*
X10565Y3563D02*
D03*
D129*
X-3482Y7513D02*
D03*
X-4270Y7513D02*
D03*
X-4156Y12009D02*
D03*
X-4944Y12009D02*
D03*
D130*
X7665Y10000D02*
D03*
X8335Y10000D02*
D03*
X-6201Y25000D02*
D03*
X-5531Y25000D02*
D03*
D131*
X2200Y6670D02*
D03*
X1806Y6670D02*
D03*
X3750Y11500D02*
D03*
X3356Y11500D02*
D03*
X-11247Y17161D02*
D03*
X-10853Y17161D02*
D03*
X2200Y6048D02*
D03*
X1806Y6048D02*
D03*
X-31144Y3500D02*
D03*
X-30750Y3500D02*
D03*
X-31144Y4250D02*
D03*
X-30750Y4250D02*
D03*
X-18744Y1750D02*
D03*
X-18350Y1750D02*
D03*
X-18394Y2750D02*
D03*
X-18000Y2750D02*
D03*
X-18000Y2248D02*
D03*
X-18394Y2248D02*
D03*
X1553Y5042D02*
D03*
X1159Y5042D02*
D03*
X-1281Y5042D02*
D03*
X-887Y5042D02*
D03*
X1553Y4542D02*
D03*
X1159Y4542D02*
D03*
X-1288Y4611D02*
D03*
X-894Y4611D02*
D03*
D132*
X-13490Y33815D02*
D03*
X-14652Y33815D02*
D03*
X-17348Y33815D02*
D03*
X-18510Y33815D02*
D03*
D133*
X-14071Y33214D02*
D03*
X-17929Y33214D02*
D03*
D134*
X22248Y25250D02*
D03*
X21874Y25250D02*
D03*
X21500Y25250D02*
D03*
X22248Y24226D02*
D03*
X21874Y24226D02*
D03*
X21500Y24226D02*
D03*
X20497Y25250D02*
D03*
X20123Y25250D02*
D03*
X19749Y25250D02*
D03*
X20497Y24226D02*
D03*
X20123Y24226D02*
D03*
X19749Y24226D02*
D03*
D135*
X-24864Y6167D02*
D03*
X-26636Y6167D02*
D03*
X-26636Y9750D02*
D03*
X-24864Y9750D02*
D03*
X-28000Y6167D02*
D03*
X-29772Y6167D02*
D03*
X-29772Y9750D02*
D03*
X-28000Y9750D02*
D03*
D136*
X14000Y2280D02*
D03*
X16400Y2280D02*
D03*
X14000Y780D02*
D03*
X16400Y780D02*
D03*
D137*
X18695Y28376D02*
D03*
X17750Y28750D02*
D03*
X-14123Y16114D02*
D03*
X-13178Y15740D02*
D03*
X21445Y28376D02*
D03*
X20500Y28750D02*
D03*
D138*
X17750Y28002D02*
D03*
X-14123Y15366D02*
D03*
X20500Y28002D02*
D03*
D139*
X-13750Y8750D02*
D03*
D140*
X-12844Y6467D02*
D03*
X-13750Y6467D02*
D03*
X-14656Y6467D02*
D03*
D141*
X-8684Y14465D02*
D03*
X-8684Y15213D02*
D03*
X-9412Y14839D02*
D03*
X-17841Y15524D02*
D03*
X-17841Y14776D02*
D03*
X-17113Y15150D02*
D03*
D142*
X11000Y10004D02*
D03*
X11000Y9256D02*
D03*
X10055Y9256D02*
D03*
D143*
X10055Y9925D02*
D03*
D144*
X-3750Y1250D02*
D03*
X-3750Y1750D02*
D03*
X-3750Y2250D02*
D03*
X-3750Y2750D02*
D03*
X-5896Y1250D02*
D03*
X-5896Y1750D02*
D03*
X-5896Y2250D02*
D03*
X-5896Y2750D02*
D03*
D145*
X3777Y7713D02*
D03*
X3777Y7910D02*
D03*
X3777Y7517D02*
D03*
X3777Y8107D02*
D03*
X3777Y8304D02*
D03*
X3777Y8501D02*
D03*
X3777Y8698D02*
D03*
X3777Y8894D02*
D03*
X3777Y9091D02*
D03*
X3777Y9288D02*
D03*
X3777Y9485D02*
D03*
X3777Y9682D02*
D03*
X3777Y9879D02*
D03*
X3777Y10076D02*
D03*
X6848Y10076D02*
D03*
X6848Y9879D02*
D03*
X6848Y9682D02*
D03*
X6848Y9485D02*
D03*
X6848Y9288D02*
D03*
X6848Y9091D02*
D03*
X6848Y8894D02*
D03*
X6848Y8698D02*
D03*
X6848Y8501D02*
D03*
X6848Y8304D02*
D03*
X6848Y8107D02*
D03*
X6848Y7910D02*
D03*
X6848Y7713D02*
D03*
X6848Y7517D02*
D03*
D146*
X5608Y7261D02*
D03*
X5411Y7261D02*
D03*
X5214Y7261D02*
D03*
X5017Y7261D02*
D03*
X5805Y7261D02*
D03*
X6002Y7261D02*
D03*
X4033Y10331D02*
D03*
X4230Y10331D02*
D03*
X4427Y10331D02*
D03*
X4624Y10331D02*
D03*
X4820Y10331D02*
D03*
X5017Y10331D02*
D03*
X5214Y10331D02*
D03*
X5411Y10331D02*
D03*
X5608Y10331D02*
D03*
X5805Y10331D02*
D03*
X6002Y10331D02*
D03*
X6198Y10331D02*
D03*
X6395Y10331D02*
D03*
X6592Y10331D02*
D03*
X6592Y7261D02*
D03*
X6395Y7261D02*
D03*
X6198Y7261D02*
D03*
X4820Y7261D02*
D03*
X4624Y7261D02*
D03*
X4427Y7261D02*
D03*
X4230Y7261D02*
D03*
X4033Y7261D02*
D03*
D147*
X5313Y8796D02*
D03*
D148*
X5838Y4499D02*
D03*
X5996Y4499D02*
D03*
X6153Y4499D02*
D03*
X6311Y4499D02*
D03*
X6468Y4499D02*
D03*
X6468Y5601D02*
D03*
X6311Y5601D02*
D03*
X6153Y5601D02*
D03*
X5996Y5601D02*
D03*
X5838Y5601D02*
D03*
D149*
X6704Y4735D02*
D03*
X6704Y4893D02*
D03*
X6704Y5050D02*
D03*
X6704Y5207D02*
D03*
X6704Y5365D02*
D03*
X5602Y5365D02*
D03*
X5602Y5207D02*
D03*
X5602Y5050D02*
D03*
X5602Y4893D02*
D03*
X5602Y4735D02*
D03*
D150*
X6153Y5050D02*
D03*
D151*
X-16041Y2409D02*
D03*
X-16455Y2091D02*
D03*
D152*
X-16089Y2043D02*
D03*
X-16407Y2457D02*
D03*
D153*
X-16916Y1938D02*
D03*
X-16916Y2558D02*
D03*
X-16916Y2248D02*
D03*
D154*
X-13277Y12000D02*
D03*
D155*
X-13966Y12945D02*
D03*
X-13769Y12945D02*
D03*
X-13572Y12945D02*
D03*
X-13375Y12945D02*
D03*
X-13178Y12945D02*
D03*
X-12981Y12945D02*
D03*
X-12785Y12945D02*
D03*
X-12588Y12945D02*
D03*
X-12588Y11055D02*
D03*
X-12785Y11055D02*
D03*
X-12981Y11055D02*
D03*
X-13178Y11055D02*
D03*
X-13375Y11055D02*
D03*
X-13572Y11055D02*
D03*
X-13769Y11055D02*
D03*
X-13966Y11055D02*
D03*
D156*
X-12332Y12689D02*
D03*
X-12332Y12492D02*
D03*
X-12332Y12295D02*
D03*
X-12332Y12098D02*
D03*
X-12332Y11902D02*
D03*
X-12332Y11705D02*
D03*
X-12332Y11508D02*
D03*
X-12332Y11311D02*
D03*
X-14222Y11311D02*
D03*
X-14222Y11508D02*
D03*
X-14222Y11705D02*
D03*
X-14222Y11902D02*
D03*
X-14222Y12098D02*
D03*
X-14222Y12295D02*
D03*
X-14222Y12492D02*
D03*
X-14222Y12689D02*
D03*
D157*
X-7015Y7783D02*
D03*
X-7015Y9200D02*
D03*
X-8707Y9200D02*
D03*
X-8707Y7783D02*
D03*
D158*
X-1251Y16593D02*
D03*
X-1251Y17695D02*
D03*
X-20252Y7898D02*
D03*
X-20252Y9000D02*
D03*
D159*
X10644Y1563D02*
D03*
X10841Y1563D02*
D03*
X11037Y1563D02*
D03*
X11234Y1563D02*
D03*
X11234Y2429D02*
D03*
X11037Y2429D02*
D03*
X10841Y2429D02*
D03*
X10644Y2429D02*
D03*
D160*
X10939Y1996D02*
D03*
D161*
X-19425Y1950D02*
D03*
X-19425Y2108D02*
D03*
X-19425Y2265D02*
D03*
X-19425Y2423D02*
D03*
X-19425Y2580D02*
D03*
X-19425Y2738D02*
D03*
X-19425Y2895D02*
D03*
X-19425Y3053D02*
D03*
X-21079Y3053D02*
D03*
X-21079Y2895D02*
D03*
X-21079Y2738D02*
D03*
X-21079Y2580D02*
D03*
X-21079Y2423D02*
D03*
X-21079Y2265D02*
D03*
X-21079Y2108D02*
D03*
X-21079Y1950D02*
D03*
D162*
X-19701Y3328D02*
D03*
X-19858Y3328D02*
D03*
X-20016Y3328D02*
D03*
X-20173Y3328D02*
D03*
X-20331Y3328D02*
D03*
X-20488Y3328D02*
D03*
X-20645Y3328D02*
D03*
X-20803Y3328D02*
D03*
X-20803Y1675D02*
D03*
X-20645Y1675D02*
D03*
X-20488Y1675D02*
D03*
X-20331Y1675D02*
D03*
X-20173Y1675D02*
D03*
X-20016Y1675D02*
D03*
X-19858Y1675D02*
D03*
X-19701Y1675D02*
D03*
D163*
X-20252Y2502D02*
D03*
D164*
X-22528Y20972D02*
D03*
X-22528Y20815D02*
D03*
X-22528Y20657D02*
D03*
X-22528Y20500D02*
D03*
X-22528Y20343D02*
D03*
X-22528Y20185D02*
D03*
X-22528Y20028D02*
D03*
X-20972Y20028D02*
D03*
X-20972Y20185D02*
D03*
X-20972Y20343D02*
D03*
X-20972Y20500D02*
D03*
X-20972Y20657D02*
D03*
X-20972Y20815D02*
D03*
X-20972Y20972D02*
D03*
D165*
X-22222Y19722D02*
D03*
X-22065Y19722D02*
D03*
X-21907Y19722D02*
D03*
X-21750Y19722D02*
D03*
X-21593Y19722D02*
D03*
X-21435Y19722D02*
D03*
X-21278Y19722D02*
D03*
X-21278Y21278D02*
D03*
X-21435Y21278D02*
D03*
X-21593Y21278D02*
D03*
X-21750Y21278D02*
D03*
X-21907Y21278D02*
D03*
X-22065Y21278D02*
D03*
X-22222Y21278D02*
D03*
D166*
X-21750Y20500D02*
D03*
D167*
X-9419Y13181D02*
D03*
X-10980Y16222D02*
D03*
X-9403Y11665D02*
D03*
D168*
X-9007Y13565D02*
D03*
X-9007Y13309D02*
D03*
X-9007Y13053D02*
D03*
X-9007Y12797D02*
D03*
X-10137Y13565D02*
D03*
X-10137Y13309D02*
D03*
X-10137Y13053D02*
D03*
X-10137Y12797D02*
D03*
X-10568Y16606D02*
D03*
X-10568Y16350D02*
D03*
X-10568Y16094D02*
D03*
X-10568Y15839D02*
D03*
X-11698Y16606D02*
D03*
X-11698Y16350D02*
D03*
X-11698Y16094D02*
D03*
X-11698Y15839D02*
D03*
X-8991Y12049D02*
D03*
X-8991Y11793D02*
D03*
X-8991Y11537D02*
D03*
X-8991Y11281D02*
D03*
X-10121Y12049D02*
D03*
X-10121Y11793D02*
D03*
X-10121Y11537D02*
D03*
X-10121Y11281D02*
D03*
D169*
X19385Y33567D02*
D03*
X18795Y33567D02*
D03*
X20565Y33567D02*
D03*
D170*
X21120Y33867D02*
D03*
X21120Y34637D02*
D03*
X18250Y33867D02*
D03*
X18250Y34637D02*
D03*
D171*
X15750Y7500D02*
D03*
X15750Y8000D02*
D03*
X15750Y8500D02*
D03*
X15750Y9000D02*
D03*
X15750Y9500D02*
D03*
X15750Y10000D02*
D03*
X15750Y10500D02*
D03*
X15750Y11000D02*
D03*
X15750Y11500D02*
D03*
X15750Y12000D02*
D03*
X15750Y12500D02*
D03*
X15750Y13000D02*
D03*
X15750Y13500D02*
D03*
X15750Y14000D02*
D03*
X15750Y14500D02*
D03*
X15750Y15000D02*
D03*
X16250Y7500D02*
D03*
X16250Y8000D02*
D03*
X16250Y8500D02*
D03*
X16250Y9000D02*
D03*
X16250Y9500D02*
D03*
X16250Y10000D02*
D03*
X16250Y10500D02*
D03*
X16250Y11000D02*
D03*
X16250Y11500D02*
D03*
X16250Y12000D02*
D03*
X16250Y12500D02*
D03*
X16250Y13000D02*
D03*
X16250Y13500D02*
D03*
X16250Y14000D02*
D03*
X16250Y14500D02*
D03*
X16250Y15000D02*
D03*
X16750Y7500D02*
D03*
X16750Y8000D02*
D03*
X16750Y8500D02*
D03*
X16750Y9000D02*
D03*
X16750Y9500D02*
D03*
X16750Y10000D02*
D03*
X16750Y10500D02*
D03*
X16750Y11000D02*
D03*
X16750Y11500D02*
D03*
X16750Y12000D02*
D03*
X16750Y12500D02*
D03*
X16750Y13000D02*
D03*
X16750Y13500D02*
D03*
X16750Y14000D02*
D03*
X16750Y14500D02*
D03*
X16750Y15000D02*
D03*
X17250Y7500D02*
D03*
X17250Y8000D02*
D03*
X17250Y8500D02*
D03*
X17250Y9000D02*
D03*
X17250Y9500D02*
D03*
X17250Y10000D02*
D03*
X17250Y10500D02*
D03*
X17250Y11000D02*
D03*
X17250Y11500D02*
D03*
X17250Y12000D02*
D03*
X17250Y12500D02*
D03*
X17250Y13000D02*
D03*
X17250Y13500D02*
D03*
X17250Y14000D02*
D03*
X17250Y14500D02*
D03*
X17250Y15000D02*
D03*
X17750Y7500D02*
D03*
X17750Y8000D02*
D03*
X17750Y8500D02*
D03*
X17750Y9000D02*
D03*
X17750Y9500D02*
D03*
X17750Y10000D02*
D03*
X17750Y10500D02*
D03*
X17750Y11000D02*
D03*
X17750Y11500D02*
D03*
X17750Y12000D02*
D03*
X17750Y12500D02*
D03*
X17750Y13000D02*
D03*
X17750Y13500D02*
D03*
X17750Y14000D02*
D03*
X17750Y14500D02*
D03*
X17750Y15000D02*
D03*
X18250Y7500D02*
D03*
X18250Y8000D02*
D03*
X18250Y8500D02*
D03*
X18250Y9000D02*
D03*
X18250Y9500D02*
D03*
X18250Y10000D02*
D03*
X18250Y10500D02*
D03*
X18250Y11000D02*
D03*
X18250Y11500D02*
D03*
X18250Y12000D02*
D03*
X18250Y12500D02*
D03*
X18250Y13000D02*
D03*
X18250Y13500D02*
D03*
X18250Y14000D02*
D03*
X18250Y14500D02*
D03*
X18250Y15000D02*
D03*
X18750Y7500D02*
D03*
X18750Y8000D02*
D03*
X18750Y8500D02*
D03*
X18750Y9000D02*
D03*
X18750Y9500D02*
D03*
X18750Y10000D02*
D03*
X18750Y10500D02*
D03*
X18750Y11000D02*
D03*
X18750Y11500D02*
D03*
X18750Y12000D02*
D03*
X18750Y12500D02*
D03*
X18750Y13000D02*
D03*
X18750Y13500D02*
D03*
X18750Y14000D02*
D03*
X18750Y14500D02*
D03*
X18750Y15000D02*
D03*
X19250Y7500D02*
D03*
X19250Y8000D02*
D03*
X19250Y8500D02*
D03*
X19250Y9000D02*
D03*
X19250Y9500D02*
D03*
X19250Y10000D02*
D03*
X19250Y10500D02*
D03*
X19250Y11000D02*
D03*
X19250Y11500D02*
D03*
X19250Y12000D02*
D03*
X19250Y12500D02*
D03*
X19250Y13000D02*
D03*
X19250Y13500D02*
D03*
X19250Y14000D02*
D03*
X19250Y14500D02*
D03*
X19250Y15000D02*
D03*
X19750Y7500D02*
D03*
X19750Y8000D02*
D03*
X19750Y8500D02*
D03*
X19750Y9000D02*
D03*
X19750Y9500D02*
D03*
X19750Y10000D02*
D03*
X19750Y10500D02*
D03*
X19750Y11000D02*
D03*
X19750Y11500D02*
D03*
X19750Y12000D02*
D03*
X19750Y12500D02*
D03*
X19750Y13000D02*
D03*
X19750Y13500D02*
D03*
X19750Y14000D02*
D03*
X19750Y14500D02*
D03*
X19750Y15000D02*
D03*
X20250Y7500D02*
D03*
X20250Y8000D02*
D03*
X20250Y8500D02*
D03*
X20250Y9000D02*
D03*
X20250Y9500D02*
D03*
X20250Y10000D02*
D03*
X20250Y10500D02*
D03*
X20250Y11000D02*
D03*
X20250Y11500D02*
D03*
X20250Y12000D02*
D03*
X20250Y12500D02*
D03*
X20250Y13000D02*
D03*
X20250Y13500D02*
D03*
X20250Y14000D02*
D03*
X20250Y14500D02*
D03*
X20250Y15000D02*
D03*
X20750Y7500D02*
D03*
X20750Y8000D02*
D03*
X20750Y8500D02*
D03*
X20750Y9000D02*
D03*
X20750Y9500D02*
D03*
X20750Y10000D02*
D03*
X20750Y10500D02*
D03*
X20750Y11000D02*
D03*
X20750Y11500D02*
D03*
X20750Y12000D02*
D03*
X20750Y12500D02*
D03*
X20750Y13000D02*
D03*
X20750Y13500D02*
D03*
X20750Y14000D02*
D03*
X20750Y14500D02*
D03*
X20750Y15000D02*
D03*
X21250Y7500D02*
D03*
X21250Y8000D02*
D03*
X21250Y8500D02*
D03*
X21250Y9000D02*
D03*
X21250Y9500D02*
D03*
X21250Y10000D02*
D03*
X21250Y10500D02*
D03*
X21250Y11000D02*
D03*
X21250Y11500D02*
D03*
X21250Y12000D02*
D03*
X21250Y12500D02*
D03*
X21250Y13000D02*
D03*
X21250Y13500D02*
D03*
X21250Y14000D02*
D03*
X21250Y14500D02*
D03*
X21250Y15000D02*
D03*
X21750Y7500D02*
D03*
X21750Y8000D02*
D03*
X21750Y8500D02*
D03*
X21750Y9000D02*
D03*
X21750Y9500D02*
D03*
X21750Y10000D02*
D03*
X21750Y10500D02*
D03*
X21750Y11000D02*
D03*
X21750Y11500D02*
D03*
X21750Y12000D02*
D03*
X21750Y12500D02*
D03*
X21750Y13000D02*
D03*
X21750Y13500D02*
D03*
X21750Y14000D02*
D03*
X21750Y14500D02*
D03*
X21750Y15000D02*
D03*
X22250Y7500D02*
D03*
X22250Y8000D02*
D03*
X22250Y8500D02*
D03*
X22250Y9000D02*
D03*
X22250Y9500D02*
D03*
X22250Y10000D02*
D03*
X22250Y10500D02*
D03*
X22250Y11000D02*
D03*
X22250Y11500D02*
D03*
X22250Y12000D02*
D03*
X22250Y12500D02*
D03*
X22250Y13000D02*
D03*
X22250Y13500D02*
D03*
X22250Y14000D02*
D03*
X22250Y14500D02*
D03*
X22250Y15000D02*
D03*
X22750Y7500D02*
D03*
X22750Y8000D02*
D03*
X22750Y8500D02*
D03*
X22750Y9000D02*
D03*
X22750Y9500D02*
D03*
X22750Y10000D02*
D03*
X22750Y10500D02*
D03*
X22750Y11000D02*
D03*
X22750Y11500D02*
D03*
X22750Y12000D02*
D03*
X22750Y12500D02*
D03*
X22750Y13000D02*
D03*
X22750Y13500D02*
D03*
X22750Y14000D02*
D03*
X22750Y14500D02*
D03*
X22750Y15000D02*
D03*
X23250Y7500D02*
D03*
X23250Y8000D02*
D03*
X23250Y8500D02*
D03*
X23250Y9000D02*
D03*
X23250Y9500D02*
D03*
X23250Y10000D02*
D03*
X23250Y10500D02*
D03*
X23250Y11000D02*
D03*
X23250Y11500D02*
D03*
X23250Y12000D02*
D03*
X23250Y12500D02*
D03*
X23250Y13000D02*
D03*
X23250Y13500D02*
D03*
X23250Y14000D02*
D03*
X23250Y14500D02*
D03*
X23250Y15000D02*
D03*
D172*
X-13648Y25842D02*
D03*
X-13648Y30586D02*
D03*
X-18352Y30586D02*
D03*
X-18352Y25842D02*
D03*
D173*
X-13648Y26285D02*
D03*
X-13648Y26561D02*
D03*
X-13648Y26836D02*
D03*
X-13648Y27112D02*
D03*
X-13648Y27388D02*
D03*
X-13648Y27663D02*
D03*
X-13648Y27939D02*
D03*
X-13648Y28214D02*
D03*
X-13648Y28490D02*
D03*
X-13648Y28766D02*
D03*
X-13648Y29041D02*
D03*
X-13648Y29317D02*
D03*
X-13648Y29592D02*
D03*
X-13648Y29868D02*
D03*
X-13648Y30144D02*
D03*
X-18352Y30144D02*
D03*
X-18352Y29868D02*
D03*
X-18352Y29592D02*
D03*
X-18352Y29317D02*
D03*
X-18352Y29041D02*
D03*
X-18352Y28766D02*
D03*
X-18352Y28490D02*
D03*
X-18352Y28214D02*
D03*
X-18352Y27939D02*
D03*
X-18352Y27663D02*
D03*
X-18352Y27388D02*
D03*
X-18352Y27112D02*
D03*
X-18352Y26836D02*
D03*
X-18352Y26561D02*
D03*
X-18352Y26285D02*
D03*
D174*
X-14071Y30586D02*
D03*
X-14346Y30586D02*
D03*
X-14622Y30586D02*
D03*
X-14898Y30586D02*
D03*
X-15173Y30586D02*
D03*
X-15449Y30586D02*
D03*
X-15724Y30586D02*
D03*
X-16000Y30586D02*
D03*
X-16276Y30586D02*
D03*
X-16551Y30586D02*
D03*
X-16827Y30586D02*
D03*
X-17102Y30586D02*
D03*
X-17378Y30586D02*
D03*
X-17654Y30586D02*
D03*
X-17929Y30586D02*
D03*
X-17929Y25842D02*
D03*
X-17654Y25842D02*
D03*
X-17378Y25842D02*
D03*
X-17102Y25842D02*
D03*
X-16827Y25842D02*
D03*
X-16551Y25842D02*
D03*
X-16276Y25842D02*
D03*
X-16000Y25842D02*
D03*
X-15724Y25842D02*
D03*
X-15449Y25842D02*
D03*
X-15173Y25842D02*
D03*
X-14898Y25842D02*
D03*
X-14622Y25842D02*
D03*
X-14346Y25842D02*
D03*
X-14071Y25842D02*
D03*
D175*
X-14484Y26699D02*
D03*
X-14484Y27250D02*
D03*
X-14484Y27801D02*
D03*
X-14484Y28628D02*
D03*
X-14484Y29179D02*
D03*
X-14484Y29730D02*
D03*
X-15035Y26699D02*
D03*
X-15035Y27250D02*
D03*
X-15035Y27801D02*
D03*
X-15035Y28628D02*
D03*
X-15035Y29179D02*
D03*
X-15035Y29730D02*
D03*
X-15587Y26699D02*
D03*
X-15587Y27250D02*
D03*
X-15587Y27801D02*
D03*
X-15587Y28628D02*
D03*
X-15587Y29179D02*
D03*
X-15587Y29730D02*
D03*
X-16413Y26699D02*
D03*
X-16413Y27250D02*
D03*
X-16413Y27801D02*
D03*
X-16413Y28628D02*
D03*
X-16413Y29179D02*
D03*
X-16413Y29730D02*
D03*
X-16965Y26699D02*
D03*
X-16965Y27250D02*
D03*
X-16965Y27801D02*
D03*
X-16965Y28628D02*
D03*
X-16965Y29179D02*
D03*
X-16965Y29730D02*
D03*
X-17516Y26699D02*
D03*
X-17516Y27250D02*
D03*
X-17516Y27801D02*
D03*
X-17516Y28628D02*
D03*
X-17516Y29179D02*
D03*
X-17516Y29730D02*
D03*
D176*
X23950Y4492D02*
D03*
D177*
X27682Y6352D02*
D03*
X26777Y6352D02*
D03*
X24178Y6352D02*
D03*
D178*
X27170Y1795D02*
D03*
X26737Y1795D02*
D03*
X26304Y1795D02*
D03*
X25871Y1795D02*
D03*
X25438Y1795D02*
D03*
X25005Y1795D02*
D03*
X24572Y1795D02*
D03*
X27604Y1795D02*
D03*
D179*
X24001Y654D02*
D03*
X29080Y654D02*
D03*
D180*
X749Y17695D02*
D03*
X375Y17695D02*
D03*
X1Y17695D02*
D03*
X1Y16750D02*
D03*
X749Y16750D02*
D03*
D181*
X1499Y18750D02*
D03*
X1499Y19537D02*
D03*
D182*
X-19500Y30943D02*
D03*
X-20071Y30943D02*
D03*
X-20071Y30214D02*
D03*
X-19500Y30214D02*
D03*
D183*
X25295Y27165D02*
D03*
X25295Y27953D02*
D03*
X25295Y28740D02*
D03*
X25295Y29527D02*
D03*
X-31397Y27165D02*
D03*
X-31397Y27953D02*
D03*
X-31397Y28740D02*
D03*
X-31397Y29527D02*
D03*
D184*
X-6985Y10220D02*
D03*
X-6985Y11824D02*
D03*
D185*
X-13287Y23091D02*
D03*
X-13091Y23091D02*
D03*
X-12894Y23091D02*
D03*
X-12697Y23091D02*
D03*
X-12500Y23091D02*
D03*
X-12303Y23091D02*
D03*
X-12106Y23091D02*
D03*
X-11909Y23091D02*
D03*
X-11713Y23091D02*
D03*
X-11516Y23091D02*
D03*
X-11319Y23091D02*
D03*
X-11122Y23091D02*
D03*
X-10925Y23091D02*
D03*
X-10728Y23091D02*
D03*
X-10532Y23091D02*
D03*
X-10335Y23091D02*
D03*
X-10138Y23091D02*
D03*
X-9941Y23091D02*
D03*
X-9744Y23091D02*
D03*
X-9547Y23091D02*
D03*
X-9350Y23091D02*
D03*
X-9154Y23091D02*
D03*
X-8957Y23091D02*
D03*
X-8760Y23091D02*
D03*
X-8563Y23091D02*
D03*
X-8366Y23091D02*
D03*
X-8169Y23091D02*
D03*
X-7972Y23091D02*
D03*
X-7776Y23091D02*
D03*
X-7579Y23091D02*
D03*
X-7382Y23091D02*
D03*
X-7185Y23091D02*
D03*
X-6988Y23091D02*
D03*
X-6791Y23091D02*
D03*
X-5610Y23091D02*
D03*
D186*
X-6594Y23091D02*
D03*
X-6398Y23091D02*
D03*
X-6201Y23091D02*
D03*
X-6004Y23091D02*
D03*
X-5807Y23091D02*
D03*
D187*
X-30000Y2000D02*
D03*
X30000Y33000D02*
D03*
X-30000Y33000D02*
D03*
D188*
X25750Y12258D02*
D03*
X25750Y13242D02*
D03*
D189*
X-87Y3792D02*
D03*
X109Y3792D02*
D03*
X-1072Y3792D02*
D03*
X-875Y3792D02*
D03*
X-678Y3792D02*
D03*
X-481Y3792D02*
D03*
X-284Y3792D02*
D03*
X306Y3792D02*
D03*
X503Y3792D02*
D03*
X700Y3792D02*
D03*
X897Y3792D02*
D03*
X1094Y3792D02*
D03*
D190*
X-1248Y5542D02*
D03*
D191*
X-887Y5542D02*
D03*
D192*
X-1251Y19997D02*
D03*
X324Y19997D02*
D03*
D193*
X5200Y983D02*
D03*
X5200Y550D02*
D03*
X6950Y617D02*
D03*
X6950Y1050D02*
D03*
X22250Y33500D02*
D03*
X22250Y33933D02*
D03*
X3448Y1050D02*
D03*
X3448Y617D02*
D03*
X23250Y33500D02*
D03*
X23250Y33933D02*
D03*
D194*
X-4500Y13291D02*
D03*
X-4000Y13291D02*
D03*
X-3500Y13291D02*
D03*
X-3000Y13291D02*
D03*
X-3000Y15259D02*
D03*
X-3500Y15259D02*
D03*
X-4000Y15259D02*
D03*
X-4500Y15259D02*
D03*
D195*
X-3750Y14275D02*
D03*
D196*
X-3250Y11009D02*
D03*
X-3250Y8609D02*
D03*
D197*
X-14872Y4967D02*
D03*
X-13750Y4967D02*
D03*
X-8552Y16127D02*
D03*
X-9674Y16127D02*
D03*
X-8572Y17098D02*
D03*
X-9694Y17098D02*
D03*
D198*
X8757Y7388D02*
D03*
X8757Y6640D02*
D03*
X-20250Y26464D02*
D03*
X-20250Y25716D02*
D03*
X-21250Y26464D02*
D03*
X-21250Y25716D02*
D03*
X-15376Y12939D02*
D03*
X-15376Y13687D02*
D03*
X-11307Y12353D02*
D03*
X-11307Y13101D02*
D03*
X9663Y6640D02*
D03*
X9663Y7388D02*
D03*
D199*
X9394Y2548D02*
D03*
X9394Y1878D02*
D03*
X-23002Y2107D02*
D03*
X-23002Y1438D02*
D03*
X-22300Y3100D02*
D03*
X-22300Y3769D02*
D03*
D200*
X8251Y11591D02*
D03*
X7149Y11591D02*
D03*
X8251Y12969D02*
D03*
X7149Y12969D02*
D03*
D201*
X32429Y9250D02*
D03*
X32429Y9750D02*
D03*
X32429Y10250D02*
D03*
X32429Y10750D02*
D03*
X32429Y11250D02*
D03*
X32429Y11750D02*
D03*
X32429Y12250D02*
D03*
X32429Y12750D02*
D03*
X32429Y13250D02*
D03*
X32429Y13750D02*
D03*
X31071Y9250D02*
D03*
X31071Y9750D02*
D03*
X31071Y10250D02*
D03*
X31071Y10750D02*
D03*
X31071Y11250D02*
D03*
X31071Y11750D02*
D03*
X31071Y12250D02*
D03*
X31071Y12750D02*
D03*
X31071Y13250D02*
D03*
X31071Y13750D02*
D03*
D202*
X14738Y4863D02*
D03*
X15112Y4135D02*
D03*
X14364Y4135D02*
D03*
D203*
X13249Y6053D02*
D03*
X13623Y6998D02*
D03*
X3450Y2550D02*
D03*
X3824Y3495D02*
D03*
X5050Y2550D02*
D03*
X5424Y3495D02*
D03*
D204*
X13997Y6053D02*
D03*
X3076Y3495D02*
D03*
X4676Y3495D02*
D03*
D205*
X-19500Y28964D02*
D03*
X-20248Y28964D02*
D03*
X-7772Y14465D02*
D03*
X-7024Y14465D02*
D03*
D206*
X-7250Y6016D02*
D03*
X-7250Y4894D02*
D03*
X-8549Y6016D02*
D03*
X-8549Y4894D02*
D03*
D207*
X-15235Y17738D02*
D03*
X-13838Y17738D02*
D03*
D208*
X-15619Y18150D02*
D03*
X-15363Y18150D02*
D03*
X-15107Y18150D02*
D03*
X-14852Y18150D02*
D03*
X-15619Y17020D02*
D03*
X-15363Y17020D02*
D03*
X-15107Y17020D02*
D03*
X-14852Y17020D02*
D03*
X-14222Y18150D02*
D03*
X-13966Y18150D02*
D03*
X-13710Y18150D02*
D03*
X-13454Y18150D02*
D03*
X-14222Y17020D02*
D03*
X-13966Y17020D02*
D03*
X-13710Y17020D02*
D03*
X-13454Y17020D02*
D03*
D209*
X-10151Y10300D02*
D03*
X-9049Y10300D02*
D03*
D210*
X24262Y34409D02*
D03*
X26919Y34409D02*
D03*
X-26919Y34409D02*
D03*
X-24262Y34409D02*
D03*
D211*
X26417Y33520D02*
D03*
X24764Y33520D02*
D03*
X-24764Y33520D02*
D03*
X-26417Y33520D02*
D03*
D212*
X28508Y22745D02*
X28758Y22745D01*
X28158Y22745D02*
X28508Y22745D01*
X31650Y19793D02*
X32011Y19793D01*
X31111Y19793D02*
X31650Y19793D01*
X32911Y18584D02*
X32911Y18593D01*
X32911Y18293D02*
X32911Y18584D01*
X32911Y18593D02*
X32911Y18893D01*
X28758Y20345D02*
X29058Y20345D01*
X28458Y20345D02*
X28758Y20345D01*
X28758Y14440D02*
X29058Y14440D01*
X28458Y14440D02*
X28758Y14440D01*
X25805Y17393D02*
X26105Y17393D01*
X25505Y17393D02*
X25805Y17393D01*
X-30308Y21122D02*
X-30308Y21422D01*
X-30308Y20822D02*
X-30308Y21122D01*
X-27779Y18593D02*
X-27779Y18893D01*
X-27779Y18293D02*
X-27779Y18593D01*
X-31638Y17393D02*
X-31338Y17393D01*
X-31938Y17393D02*
X-31638Y17393D01*
X-30308Y16063D02*
X-30308Y16363D01*
X-30308Y15763D02*
X-30308Y16063D01*
X28758Y22745D02*
X29358Y22745D01*
X29058Y20345D02*
X29058Y22445D01*
X29058Y20345D02*
X29358Y20345D01*
X29658Y20645D01*
X29358Y20795D02*
X29358Y22745D01*
X29958Y22145D01*
X29658Y20645D02*
X29658Y21995D01*
X29658Y20645D02*
X29958Y20945D01*
X29958Y21245D02*
X29958Y22145D01*
X28758Y20645D02*
X28758Y22745D01*
X28158Y20345D02*
X28458Y20345D01*
X27858Y20645D02*
X28158Y20345D01*
X28158Y20795D02*
X28158Y22745D01*
X27858Y20645D02*
X27858Y21995D01*
X27558Y20945D02*
X27858Y20645D01*
X27558Y21245D02*
X27558Y22145D01*
X28158Y22745D01*
X28458Y20345D02*
X28458Y22445D01*
X25505Y17393D02*
X25505Y19493D01*
X24605Y19193D02*
X25205Y19793D01*
X24605Y18293D02*
X24605Y19193D01*
X24605Y17993D02*
X24905Y17693D01*
X24905Y19043D01*
X25205Y17843D02*
X25205Y19793D01*
X24905Y17693D02*
X25205Y17393D01*
X25505Y17393D01*
X25805Y17693D02*
X25805Y19793D01*
X27005Y18293D02*
X27005Y19193D01*
X26705Y17693D02*
X27005Y17993D01*
X26705Y17693D02*
X26705Y19043D01*
X26405Y19793D02*
X27005Y19193D01*
X26405Y17843D02*
X26405Y19793D01*
X26405Y17393D02*
X26705Y17693D01*
X26105Y17393D02*
X26405Y17393D01*
X26105Y17393D02*
X26105Y19493D01*
X25805Y19793D02*
X26405Y19793D01*
X25205Y19793D02*
X25805Y19793D01*
X28158Y16840D02*
X28758Y16840D01*
X29358Y16840D01*
X29058Y14440D02*
X29058Y16540D01*
X29058Y14440D02*
X29358Y14440D01*
X29658Y14740D01*
X29358Y14890D02*
X29358Y16840D01*
X29958Y16240D01*
X29658Y14740D02*
X29658Y16090D01*
X29658Y14740D02*
X29958Y15040D01*
X29958Y15340D02*
X29958Y16240D01*
X28758Y14740D02*
X28758Y16840D01*
X28158Y14440D02*
X28458Y14440D01*
X27858Y14740D02*
X28158Y14440D01*
X28158Y14890D02*
X28158Y16840D01*
X27858Y14740D02*
X27858Y16090D01*
X27558Y15040D02*
X27858Y14740D01*
X27558Y15340D02*
X27558Y16240D01*
X28158Y16840D01*
X28458Y14440D02*
X28458Y16540D01*
X-30308Y16363D02*
X-28208Y16363D01*
X-28508Y17263D02*
X-27908Y16663D01*
X-29408Y17263D02*
X-28508Y17263D01*
X-30008Y16963D02*
X-29708Y17263D01*
X-30008Y16963D02*
X-28658Y16963D01*
X-29858Y16663D02*
X-27908Y16663D01*
X-30308Y16663D02*
X-30008Y16963D01*
X-30308Y16363D02*
X-30308Y16663D01*
X-30008Y16063D02*
X-27908Y16063D01*
X-29408Y14863D02*
X-28508Y14863D01*
X-30008Y15163D02*
X-29708Y14863D01*
X-30008Y15163D02*
X-28658Y15163D01*
X-28508Y14863D02*
X-27908Y15463D01*
X-29858Y15463D02*
X-27908Y15463D01*
X-30308Y15463D02*
X-30008Y15163D01*
X-30308Y15463D02*
X-30308Y15763D01*
X-28208Y15763D01*
X-27908Y15463D02*
X-27908Y16063D01*
X-27908Y16663D01*
X30511Y17993D02*
X30511Y18593D01*
X30511Y19193D01*
X30811Y18893D02*
X32911Y18893D01*
X32911Y19193D01*
X32611Y19493D02*
X32911Y19193D01*
X30511Y19193D02*
X32461Y19193D01*
X30511Y19193D02*
X31111Y19793D01*
X31261Y19493D02*
X32611Y19493D01*
X32311Y19793D02*
X32611Y19493D01*
X30511Y18593D02*
X32611Y18593D01*
X32911Y17993D02*
X32911Y18293D01*
X32611Y17693D02*
X32911Y17993D01*
X30511Y17993D02*
X32461Y17993D01*
X31261Y17693D02*
X32611Y17693D01*
X32311Y17393D02*
X32611Y17693D01*
X31111Y17393D02*
X32011Y17393D01*
X30511Y17993D02*
X31111Y17393D01*
X30811Y18293D02*
X32911Y18293D01*
X-31938Y17393D02*
X-31938Y19493D01*
X-32838Y19193D02*
X-32238Y19793D01*
X-32838Y18293D02*
X-32838Y19193D01*
X-32838Y17993D02*
X-32538Y17693D01*
X-32538Y19043D01*
X-32238Y17843D02*
X-32238Y19793D01*
X-32538Y17693D02*
X-32238Y17393D01*
X-31938Y17393D01*
X-31638Y17693D02*
X-31638Y19793D01*
X-30438Y18293D02*
X-30438Y19193D01*
X-30738Y17693D02*
X-30438Y17993D01*
X-30738Y17693D02*
X-30738Y19043D01*
X-31038Y19793D02*
X-30438Y19193D01*
X-31038Y17843D02*
X-31038Y19793D01*
X-31038Y17393D02*
X-30738Y17693D01*
X-31338Y17393D02*
X-31038Y17393D01*
X-31338Y17393D02*
X-31338Y19493D01*
X-31638Y19793D02*
X-31038Y19793D01*
X-32238Y19793D02*
X-31638Y19793D01*
X-25379Y18593D02*
X-25379Y19193D01*
X-25379Y17993D02*
X-25379Y18593D01*
X-27779Y18293D02*
X-25679Y18293D01*
X-27779Y17993D02*
X-27779Y18293D01*
X-27779Y17993D02*
X-27479Y17693D01*
X-27329Y17993D02*
X-25379Y17993D01*
X-25979Y17393D02*
X-25379Y17993D01*
X-27479Y17693D02*
X-26129Y17693D01*
X-27479Y17693D02*
X-27179Y17393D01*
X-26879Y17393D02*
X-25979Y17393D01*
X-27479Y18593D02*
X-25379Y18593D01*
X-27779Y18893D02*
X-27779Y19193D01*
X-27479Y19493D01*
X-27329Y19193D02*
X-25379Y19193D01*
X-27479Y19493D02*
X-26129Y19493D01*
X-27479Y19493D02*
X-27179Y19793D01*
X-26879Y19793D02*
X-25979Y19793D01*
X-25379Y19193D01*
X-27779Y18893D02*
X-25679Y18893D01*
X-30308Y21422D02*
X-28208Y21422D01*
X-28508Y22322D02*
X-27908Y21722D01*
X-29408Y22322D02*
X-28508Y22322D01*
X-30008Y22022D02*
X-29708Y22322D01*
X-30008Y22022D02*
X-28658Y22022D01*
X-29858Y21722D02*
X-27908Y21722D01*
X-30308Y21722D02*
X-30008Y22022D01*
X-30308Y21422D02*
X-30308Y21722D01*
X-30008Y21122D02*
X-27908Y21122D01*
X-29408Y19922D02*
X-28508Y19922D01*
X-30008Y20222D02*
X-29708Y19922D01*
X-30008Y20222D02*
X-28658Y20222D01*
X-28508Y19922D02*
X-27908Y20522D01*
X-29858Y20522D02*
X-27908Y20522D01*
X-30308Y20522D02*
X-30008Y20222D01*
X-30308Y20522D02*
X-30308Y20822D01*
X-28208Y20822D01*
X-27908Y20522D02*
X-27908Y21122D01*
X-27908Y21722D01*
D213*
X15000Y10500D02*
D03*
X-19500Y27714D02*
D03*
X-19250Y27464D02*
D03*
D214*
X14000Y11250D02*
D03*
X13000Y11250D02*
D03*
X-12800Y2050D02*
D03*
X-9800Y2050D02*
D03*
X-10800Y2050D02*
D03*
X-11800Y2050D02*
D03*
X-19000Y7250D02*
D03*
X-16000Y7250D02*
D03*
X-17000Y7250D02*
D03*
X-18000Y7250D02*
D03*
X-19000Y8250D02*
D03*
X-16000Y8250D02*
D03*
X-17000Y8250D02*
D03*
X-18000Y8250D02*
D03*
D215*
X15862Y3250D02*
D03*
X15075Y3250D02*
D03*
X14287Y3250D02*
D03*
X20112Y3250D02*
D03*
X19325Y3250D02*
D03*
X18537Y3250D02*
D03*
X30150Y4906D02*
D03*
X30150Y5694D02*
D03*
X30150Y6481D02*
D03*
X16963Y31650D02*
D03*
X16175Y31650D02*
D03*
X15388Y31650D02*
D03*
X12813Y31650D02*
D03*
X12025Y31650D02*
D03*
X11238Y31650D02*
D03*
X21113Y31650D02*
D03*
X20325Y31650D02*
D03*
X19538Y31650D02*
D03*
D216*
X13500Y3250D02*
D03*
X17750Y3250D02*
D03*
X17750Y31650D02*
D03*
X13600Y31650D02*
D03*
X21900Y31650D02*
D03*
D217*
X-22750Y6000D02*
D03*
X-21750Y6000D02*
D03*
X-12800Y1050D02*
D03*
X-11800Y1050D02*
D03*
X-10800Y1050D02*
D03*
X-9800Y1050D02*
D03*
X-8800Y1050D02*
D03*
X-7800Y1050D02*
D03*
D218*
X-13277Y11419D02*
D03*
X-12696Y12000D02*
D03*
X-13277Y12000D02*
D03*
X-13857Y12000D02*
D03*
X-13277Y12581D02*
D03*
D219*
X20275Y34252D02*
D03*
X19095Y34252D02*
D03*
D220*
X31500Y2000D02*
D03*
X31500Y33000D02*
D03*
X-31500Y2000D02*
D03*
X-31500Y33000D02*
D03*
D221*
X24809Y24846D02*
D03*
X32283Y25443D02*
D03*
X-1406Y3532D02*
D03*
X1428Y3532D02*
D03*
X-31883Y24846D02*
D03*
X-24409Y25443D02*
D03*
D222*
X-26750Y5256D02*
D03*
X-26750Y2500D02*
D03*
D223*
X-1091Y3276D02*
D03*
X-934Y3001D02*
D03*
X-619Y3001D02*
D03*
X-461Y3276D02*
D03*
X-304Y3001D02*
D03*
X-146Y3276D02*
D03*
X169Y3276D02*
D03*
X326Y3001D02*
D03*
X483Y3276D02*
D03*
X641Y3001D02*
D03*
X956Y3001D02*
D03*
X1113Y3276D02*
D03*
D224*
X-1800Y2981D02*
D03*
X-1800Y1800D02*
D03*
X1822Y2981D02*
D03*
X1822Y1800D02*
D03*
D225*
X30150Y4119D02*
D03*
D226*
X5539Y9022D02*
D03*
X5992Y9022D02*
D03*
X6376Y9022D02*
D03*
X5992Y9859D02*
D03*
X5539Y9859D02*
D03*
X5992Y9475D02*
D03*
X5539Y9475D02*
D03*
X6376Y9475D02*
D03*
X6376Y8117D02*
D03*
X5539Y8117D02*
D03*
X5992Y8117D02*
D03*
X5539Y7733D02*
D03*
X5992Y7733D02*
D03*
X6376Y8570D02*
D03*
X5992Y8570D02*
D03*
X5539Y8570D02*
D03*
X5086Y8570D02*
D03*
X4633Y8570D02*
D03*
X4250Y8570D02*
D03*
X4633Y7733D02*
D03*
X5086Y7733D02*
D03*
X4633Y8117D02*
D03*
X5086Y8117D02*
D03*
X4250Y8117D02*
D03*
X4250Y9475D02*
D03*
X5086Y9475D02*
D03*
X4633Y9475D02*
D03*
X5086Y9859D02*
D03*
X4633Y9859D02*
D03*
X4250Y9022D02*
D03*
X4633Y9022D02*
D03*
X5086Y9022D02*
D03*
D227*
X3693Y6107D02*
D03*
X3855Y5944D02*
D03*
X126Y5000D02*
D03*
X-104Y5000D02*
D03*
X5170Y5171D02*
D03*
X5170Y5401D02*
D03*
M02*
