G04*
G04 #@! TF.GenerationSoftware,Altium Limited,Altium Designer,18.1.7 (191)*
G04*
G04 Layer_Physical_Order=2*
G04 Layer_Color=32768*
%FSLAX24Y24*%
%MOIN*%
G70*
G01*
G75*
%ADD247C,0.0600*%
%ADD253C,0.0400*%
%ADD254C,0.0280*%
%ADD255C,0.0515*%
%ADD256C,0.0554*%
%ADD257C,0.1450*%
%ADD258C,0.0791*%
%ADD259C,0.0869*%
%ADD260C,0.0515*%
%ADD261C,0.0594*%
%ADD262C,0.0357*%
%ADD263C,0.0300*%
D247*
X14000Y11250D02*
D03*
X-22750Y6000D02*
D03*
X-21750Y6000D02*
D03*
X-9800Y2050D02*
D03*
X-10800Y2050D02*
D03*
X-11800Y2050D02*
D03*
X-11800Y1050D02*
D03*
X-10800Y1050D02*
D03*
X-9800Y1050D02*
D03*
X-8800Y1050D02*
D03*
X-7800Y1050D02*
D03*
X-19000Y7250D02*
D03*
X-16000Y7250D02*
D03*
X-17000Y7250D02*
D03*
X-18000Y7250D02*
D03*
X-19000Y8250D02*
D03*
X-16000Y8250D02*
D03*
X-17000Y8250D02*
D03*
X-18000Y8250D02*
D03*
D253*
X-33500Y2000D02*
G03*
X-31500Y0I2000J0D01*
G01*
X31500Y0D02*
G03*
X33500Y2000I-0J2000D01*
G01*
X33500Y33000D02*
G03*
X31500Y35000I-2000J-0D01*
G01*
X-31500Y35000D02*
G03*
X-33500Y33000I0J-2000D01*
G01*
X-33500Y33000D02*
X-33500Y33000D01*
X-31500Y35000D02*
X31500Y35000D01*
X31500Y35000D02*
X31500Y35000D01*
X33500Y33000D02*
X33500Y2000D01*
X33500Y2000D02*
X33500Y2000D01*
X-31500Y-0D02*
X31500Y0D01*
X-31500Y-0D02*
X-31500Y0D01*
X-33500Y2000D02*
X-33500Y33000D01*
D254*
X15000Y10500D02*
D03*
X-19500Y27714D02*
D03*
X-13277Y11419D02*
D03*
X-12696Y12000D02*
D03*
X-13277Y12000D02*
D03*
X-13857Y12000D02*
D03*
X-13277Y12581D02*
D03*
X21000Y13750D02*
D03*
X20500Y13750D02*
D03*
X21000Y8750D02*
D03*
X20500Y8750D02*
D03*
X18500Y12250D02*
D03*
X20500Y12250D02*
D03*
X20500Y9750D02*
D03*
X18500Y9750D02*
D03*
X19500Y11250D02*
D03*
X17000Y10250D02*
D03*
X17000Y13250D02*
D03*
X18000Y13750D02*
D03*
X21500Y13750D02*
D03*
X21000Y10250D02*
D03*
X-19250Y27464D02*
D03*
X-24000Y4500D02*
D03*
X-800Y28850D02*
D03*
X-2350Y28750D02*
D03*
X6750Y32249D02*
D03*
X6500Y32500D02*
D03*
X7250Y31750D02*
D03*
X2066Y31150D02*
D03*
X28007Y19750D02*
D03*
X30000Y23250D02*
D03*
X30250Y23002D02*
D03*
X29750Y23450D02*
D03*
X14750Y5500D02*
D03*
X14750Y6500D02*
D03*
X-12500Y7749D02*
D03*
X-11850Y7750D02*
D03*
X-20027Y9750D02*
D03*
X-20477Y9750D02*
D03*
X-20477Y10250D02*
D03*
X-20027Y10250D02*
D03*
X-10300Y19150D02*
D03*
X-10300Y18700D02*
D03*
X-10300Y18250D02*
D03*
X-10300Y17800D02*
D03*
X-10750Y17800D02*
D03*
X-10750Y18250D02*
D03*
X-10750Y18700D02*
D03*
X-10750Y19150D02*
D03*
X-11100Y7751D02*
D03*
X-11100Y9129D02*
D03*
X-10121Y10882D02*
D03*
X-4550Y19250D02*
D03*
X-13500Y20500D02*
D03*
X1750Y15000D02*
D03*
X2500Y15250D02*
D03*
X-16431Y13687D02*
D03*
X-18064Y11606D02*
D03*
X1700Y31050D02*
D03*
X1500Y32500D02*
D03*
X-7500Y29850D02*
D03*
X-22250Y22997D02*
D03*
X22000Y21750D02*
D03*
X21497Y21750D02*
D03*
X6750Y15250D02*
D03*
X26750Y23496D02*
D03*
X11000Y24247D02*
D03*
X6000Y15254D02*
D03*
X5500Y15254D02*
D03*
X24600Y13497D02*
D03*
X100Y21150D02*
D03*
X-748Y21150D02*
D03*
X-3000Y21251D02*
D03*
X-1251Y21746D02*
D03*
X-1002Y22000D02*
D03*
X6032Y3735D02*
D03*
X5802Y3735D02*
D03*
X-19003Y25500D02*
D03*
X25999Y12747D02*
D03*
X24247Y12747D02*
D03*
X3693Y6107D02*
D03*
X18500Y7750D02*
D03*
X3855Y5944D02*
D03*
X18500Y7250D02*
D03*
X6986Y7064D02*
D03*
X126Y5000D02*
D03*
X-104Y5000D02*
D03*
X4838Y4929D02*
D03*
X4838Y4699D02*
D03*
X5170Y5171D02*
D03*
X5170Y5401D02*
D03*
X1094Y7852D02*
D03*
X1094Y7350D02*
D03*
X3000Y7450D02*
D03*
X3000Y7749D02*
D03*
X16500Y13247D02*
D03*
X-887Y26250D02*
D03*
X3247Y30200D02*
D03*
X294Y26250D02*
D03*
X13250Y8501D02*
D03*
X-29250Y4250D02*
D03*
X-25293Y3496D02*
D03*
X15998Y23496D02*
D03*
X15998Y24247D02*
D03*
X16250Y29250D02*
D03*
X15500Y29250D02*
D03*
X23000Y12250D02*
D03*
X23000Y13750D02*
D03*
X26500Y11650D02*
D03*
X25749Y10503D02*
D03*
X22500Y13750D02*
D03*
X24500Y10250D02*
D03*
X24999Y10000D02*
D03*
X27750Y34000D02*
D03*
X-22747Y33500D02*
D03*
X-23250Y27500D02*
D03*
X-15250Y20751D02*
D03*
X-2501Y21501D02*
D03*
X16004Y12254D02*
D03*
X14750Y14500D02*
D03*
X-21800Y19000D02*
D03*
X-20499Y19251D02*
D03*
X-15747Y19750D02*
D03*
X11000Y13000D02*
D03*
X12000Y11500D02*
D03*
X11250Y12753D02*
D03*
X15000Y8500D02*
D03*
X12996Y8250D02*
D03*
X-12148Y16543D02*
D03*
X-12148Y16143D02*
D03*
X-11250Y14446D02*
D03*
X2950Y12233D02*
D03*
X-1Y10983D02*
D03*
X-10245Y4250D02*
D03*
X9000Y8835D02*
D03*
X10750Y6998D02*
D03*
X-3750Y4500D02*
D03*
X-6500Y4500D02*
D03*
X-4001Y4250D02*
D03*
X-8000Y4250D02*
D03*
X-8750Y3997D02*
D03*
X-3750Y3997D02*
D03*
X-4500Y1250D02*
D03*
X-13450Y31250D02*
D03*
X-9250Y29350D02*
D03*
X-7249Y32998D02*
D03*
X-6500Y32527D02*
D03*
X-12450Y30450D02*
D03*
X-12450Y30157D02*
D03*
X-12450Y29850D02*
D03*
X-250Y33000D02*
D03*
X-748Y32249D02*
D03*
X12000Y30250D02*
D03*
X9750Y26750D02*
D03*
X9750Y27250D02*
D03*
X9750Y27800D02*
D03*
X24000Y28000D02*
D03*
X22247Y28002D02*
D03*
X25250Y23000D02*
D03*
X15000Y29500D02*
D03*
X-21600Y19350D02*
D03*
X-20300Y20500D02*
D03*
X-23150Y20500D02*
D03*
X-19789Y26992D02*
D03*
X-19542Y27232D02*
D03*
X-20275Y27000D02*
D03*
X-20028Y27239D02*
D03*
X-20514Y27247D02*
D03*
X-21000Y27239D02*
D03*
X-20753Y27000D02*
D03*
X7250Y10150D02*
D03*
X5750Y2502D02*
D03*
X3750Y550D02*
D03*
X750Y5050D02*
D03*
X749Y4542D02*
D03*
X8561Y6276D02*
D03*
X8954Y6276D02*
D03*
X2754Y8501D02*
D03*
X1750Y10700D02*
D03*
X16000Y7000D02*
D03*
X15112Y4752D02*
D03*
X12750Y5750D02*
D03*
X15400Y8245D02*
D03*
X22503Y11250D02*
D03*
X23003Y11250D02*
D03*
X27250Y9185D02*
D03*
X26700Y10005D02*
D03*
X27500Y10005D02*
D03*
X29749Y9400D02*
D03*
X30250Y8001D02*
D03*
X30000Y8250D02*
D03*
X29250Y11750D02*
D03*
X30200Y9000D02*
D03*
X-2501Y12500D02*
D03*
X14750Y11487D02*
D03*
X15250Y11500D02*
D03*
X-23100Y2500D02*
D03*
X-1000Y13000D02*
D03*
X-1001Y12000D02*
D03*
X1Y12000D02*
D03*
X-751Y11747D02*
D03*
X-2500Y17701D02*
D03*
X25000Y16997D02*
D03*
X21000Y5251D02*
D03*
X26776Y7751D02*
D03*
X25650Y7750D02*
D03*
X27756Y7000D02*
D03*
X25005Y5250D02*
D03*
X25250Y5000D02*
D03*
X19250Y6750D02*
D03*
X26179Y3002D02*
D03*
X26429Y2750D02*
D03*
X26179Y2507D02*
D03*
X22250Y4250D02*
D03*
X12504Y15250D02*
D03*
X12504Y15751D02*
D03*
X12500Y16253D02*
D03*
X12504Y17253D02*
D03*
X12509Y22250D02*
D03*
X16748Y21500D02*
D03*
X15750Y16000D02*
D03*
X15000Y15751D02*
D03*
X20250Y17248D02*
D03*
X20250Y18248D02*
D03*
X20000Y18500D02*
D03*
X21750Y18248D02*
D03*
X20000Y17005D02*
D03*
X19750Y16750D02*
D03*
X19750Y19000D02*
D03*
X19500Y19250D02*
D03*
X19500Y16497D02*
D03*
X18000Y19754D02*
D03*
X18500Y17248D02*
D03*
X18000Y17500D02*
D03*
X17750Y20003D02*
D03*
X17750Y17248D02*
D03*
X17500Y20500D02*
D03*
X17246Y20747D02*
D03*
X17000Y21003D02*
D03*
X16752Y16000D02*
D03*
X16500Y21250D02*
D03*
X16250Y21750D02*
D03*
X17246Y17250D02*
D03*
X17000Y17000D02*
D03*
X16748Y16750D02*
D03*
X16500Y17005D02*
D03*
X16250Y16750D02*
D03*
X17248Y15500D02*
D03*
X17499Y15251D02*
D03*
X21500Y16750D02*
D03*
X21247Y17760D02*
D03*
X21500Y18003D02*
D03*
X21500Y17510D02*
D03*
X22250Y17250D02*
D03*
X22000Y16990D02*
D03*
X22250Y20500D02*
D03*
X21994Y20750D02*
D03*
X-32750Y29106D02*
D03*
X15999Y15751D02*
D03*
X15500Y14250D02*
D03*
X15250Y15000D02*
D03*
X14500Y15250D02*
D03*
X14250Y15504D02*
D03*
X14255Y14497D02*
D03*
X-7250Y32500D02*
D03*
X-4001Y32750D02*
D03*
X-1750Y33000D02*
D03*
X-4502Y32750D02*
D03*
X-3001Y32752D02*
D03*
X-2001Y32752D02*
D03*
X-5100Y25000D02*
D03*
X-1001Y32500D02*
D03*
X-2659Y28750D02*
D03*
X1250Y32250D02*
D03*
X-1248Y30212D02*
D03*
X3247Y31150D02*
D03*
X2700Y30800D02*
D03*
X-3249Y28750D02*
D03*
X23000Y21750D02*
D03*
X-2068Y28352D02*
D03*
X-7850Y29850D02*
D03*
X-8250Y29600D02*
D03*
X-7150Y28750D02*
D03*
X7750Y31250D02*
D03*
X7500Y31500D02*
D03*
X885Y26250D02*
D03*
X7000Y28500D02*
D03*
X2066Y28252D02*
D03*
X-12500Y23750D02*
D03*
X-12750Y24000D02*
D03*
X15000Y7751D02*
D03*
X17000Y8750D02*
D03*
X12500Y8250D02*
D03*
X12250Y8001D02*
D03*
X12250Y6500D02*
D03*
X12000Y8250D02*
D03*
X12000Y6750D02*
D03*
X11750Y8000D02*
D03*
X11750Y6000D02*
D03*
X11500Y6250D02*
D03*
X11500Y8250D02*
D03*
X11246Y5750D02*
D03*
X11250Y8000D02*
D03*
X27750Y17250D02*
D03*
X27497Y16997D02*
D03*
X27497Y18248D02*
D03*
X27750Y18500D02*
D03*
X28997Y18500D02*
D03*
X29250Y18750D02*
D03*
X26000Y20250D02*
D03*
X24750Y20500D02*
D03*
X25003Y20253D02*
D03*
X24250Y22250D02*
D03*
X24499Y22500D02*
D03*
X22750Y22000D02*
D03*
X27750Y19250D02*
D03*
X27000Y17000D02*
D03*
X26000Y13997D02*
D03*
X26250Y15004D02*
D03*
X26500Y14750D02*
D03*
X26750Y14500D02*
D03*
X27000Y14248D02*
D03*
X26250Y16750D02*
D03*
X17750Y15500D02*
D03*
X16500Y14250D02*
D03*
X18500Y6250D02*
D03*
X-6750Y28900D02*
D03*
X-8563Y28656D02*
D03*
X-22500Y22750D02*
D03*
X9000Y30000D02*
D03*
X12750Y30000D02*
D03*
X14500Y28252D02*
D03*
X9250Y29750D02*
D03*
X14250Y28002D02*
D03*
X12500Y29750D02*
D03*
X10250Y33250D02*
D03*
X10250Y32750D02*
D03*
X10500Y33000D02*
D03*
X29749Y7495D02*
D03*
X30000Y7750D02*
D03*
X27500Y4996D02*
D03*
X27750Y4750D02*
D03*
X28250Y4750D02*
D03*
X28497Y5000D02*
D03*
X23997Y23250D02*
D03*
X24000Y23747D02*
D03*
X23750Y24000D02*
D03*
X22750Y23500D02*
D03*
X23750Y23500D02*
D03*
X23997Y25250D02*
D03*
X23750Y26000D02*
D03*
X23550Y26350D02*
D03*
X23250Y26750D02*
D03*
X24000Y25750D02*
D03*
X23750Y25500D02*
D03*
X22501Y27750D02*
D03*
X27250Y24500D02*
D03*
X21000Y25000D02*
D03*
X27250Y24000D02*
D03*
X27500Y24250D02*
D03*
X27500Y24750D02*
D03*
X27250Y25000D02*
D03*
X27250Y25500D02*
D03*
X27500Y25750D02*
D03*
X27250Y26000D02*
D03*
X27500Y26250D02*
D03*
X27250Y26500D02*
D03*
X27500Y26750D02*
D03*
X27250Y27002D02*
D03*
X27500Y27250D02*
D03*
X-14750Y20500D02*
D03*
X29500Y13002D02*
D03*
X28997Y13000D02*
D03*
X31000Y6750D02*
D03*
X30752Y7000D02*
D03*
X30253Y1996D02*
D03*
X30000Y2243D02*
D03*
X30250Y2500D02*
D03*
X30000Y2750D02*
D03*
X30250Y3001D02*
D03*
X30000Y3250D02*
D03*
X30250Y3500D02*
D03*
X28250Y2250D02*
D03*
X28500Y2500D02*
D03*
X28250Y2750D02*
D03*
X28500Y3000D02*
D03*
X28250Y3251D02*
D03*
X28497Y3500D02*
D03*
X28250Y3751D02*
D03*
X28500Y4000D02*
D03*
X28250Y4250D02*
D03*
X29750Y7000D02*
D03*
X30000Y7250D02*
D03*
X28007Y5000D02*
D03*
X28497Y4500D02*
D03*
X19500Y6500D02*
D03*
X19750Y6250D02*
D03*
X20500Y7000D02*
D03*
X20750Y6750D02*
D03*
X21000Y7000D02*
D03*
X21500Y7000D02*
D03*
X21750Y6750D02*
D03*
X22000Y7000D02*
D03*
X29500Y11500D02*
D03*
X28000Y11997D02*
D03*
X29907Y12250D02*
D03*
X20000Y8250D02*
D03*
X20500Y8250D02*
D03*
X23750Y2500D02*
D03*
X24000Y3250D02*
D03*
X24250Y17000D02*
D03*
X-19752Y18500D02*
D03*
X24000Y2750D02*
D03*
X24250Y3001D02*
D03*
X24500Y2750D02*
D03*
X12750Y8001D02*
D03*
X9250Y11400D02*
D03*
X14250Y12000D02*
D03*
X9250Y11000D02*
D03*
X17000Y7000D02*
D03*
X18000Y7000D02*
D03*
X22501Y4500D02*
D03*
X250Y11747D02*
D03*
X-19000Y23500D02*
D03*
X-19750Y24500D02*
D03*
X-21750Y24106D02*
D03*
X-20000Y24750D02*
D03*
X-22250Y24103D02*
D03*
X-22750Y24106D02*
D03*
X-19500Y23500D02*
D03*
X20565Y33000D02*
D03*
X-7500Y33250D02*
D03*
X-7750Y33500D02*
D03*
X-8000Y33750D02*
D03*
X-8250Y34000D02*
D03*
X-3501Y32750D02*
D03*
X-2501Y32750D02*
D03*
X-1501Y32750D02*
D03*
X9500Y29500D02*
D03*
X20250Y30250D02*
D03*
X20000Y31000D02*
D03*
X28250Y12250D02*
D03*
X13000Y31000D02*
D03*
X13250Y30750D02*
D03*
X13500Y30500D02*
D03*
X13750Y30250D02*
D03*
X20250Y30750D02*
D03*
X19997Y30500D02*
D03*
X25005Y500D02*
D03*
X24750Y750D02*
D03*
X23250Y34250D02*
D03*
X22250Y34250D02*
D03*
X-30055Y27953D02*
D03*
X-30055Y29527D02*
D03*
X-26000Y13253D02*
D03*
X-24000Y13253D02*
D03*
X29749Y11250D02*
D03*
X32736Y8250D02*
D03*
X29007Y10750D02*
D03*
X25999Y16250D02*
D03*
X25749Y16497D02*
D03*
X26750Y16000D02*
D03*
X26500Y16250D02*
D03*
X26750Y16500D02*
D03*
X22250Y16750D02*
D03*
X24250Y15259D02*
D03*
X25500Y15267D02*
D03*
X19500Y8751D02*
D03*
X1499Y18095D02*
D03*
X20112Y1851D02*
D03*
X22500Y3500D02*
D03*
X24750Y2901D02*
D03*
X22249Y3750D02*
D03*
X19394Y26000D02*
D03*
X21144Y26000D02*
D03*
X19394Y23600D02*
D03*
X21144Y23600D02*
D03*
X-21000Y550D02*
D03*
X-22500Y26500D02*
D03*
X-22750Y27500D02*
D03*
X-20500Y19750D02*
D03*
X-14653Y3968D02*
D03*
X-14402Y3717D02*
D03*
X-14151Y3968D02*
D03*
X-15000Y1006D02*
D03*
X-10800Y3747D02*
D03*
X-9800Y3752D02*
D03*
X-20449Y4250D02*
D03*
X-20900Y4000D02*
D03*
X-20252Y4500D02*
D03*
X-20252Y4000D02*
D03*
X-20750Y4250D02*
D03*
X-21250Y4850D02*
D03*
X-22700Y3100D02*
D03*
X-24000Y2700D02*
D03*
X-19100Y1615D02*
D03*
X-18000Y3250D02*
D03*
X-18250Y5250D02*
D03*
X-20753Y5250D02*
D03*
X-12844Y5717D02*
D03*
X-13900Y3717D02*
D03*
X-13649Y3968D02*
D03*
X0Y7350D02*
D03*
X-24000Y1250D02*
D03*
X18000Y14253D02*
D03*
X19000Y14247D02*
D03*
X19500Y14250D02*
D03*
X-20068Y16750D02*
D03*
X-20518Y16750D02*
D03*
X-20518Y16250D02*
D03*
X-20068Y16250D02*
D03*
X-20058Y14500D02*
D03*
X-20508Y14500D02*
D03*
X-20508Y14000D02*
D03*
X-20058Y14000D02*
D03*
X-20050Y12500D02*
D03*
X-20500Y12500D02*
D03*
X-20500Y12000D02*
D03*
X-20050Y12000D02*
D03*
X24000Y28730D02*
D03*
X24999Y7250D02*
D03*
X24999Y7750D02*
D03*
X21501Y5251D02*
D03*
X20501Y5750D02*
D03*
X8700Y4814D02*
D03*
X8700Y4314D02*
D03*
X5200Y233D02*
D03*
X-8250Y3537D02*
D03*
X-5496Y649D02*
D03*
X7250Y9859D02*
D03*
X2950Y8107D02*
D03*
X-387Y4542D02*
D03*
X409Y4542D02*
D03*
X6653Y4050D02*
D03*
X7153Y4050D02*
D03*
X3797Y10804D02*
D03*
X3344Y9485D02*
D03*
X3049Y9426D02*
D03*
X5490Y6276D02*
D03*
X5923Y6276D02*
D03*
X-18250Y23964D02*
D03*
X-17750Y23964D02*
D03*
X-20750Y31714D02*
D03*
X-19500Y31814D02*
D03*
X-19000Y29317D02*
D03*
X-19000Y28864D02*
D03*
X-17250Y23964D02*
D03*
X-16750Y23964D02*
D03*
X-11525Y13529D02*
D03*
X-11125Y13529D02*
D03*
X-9800Y7554D02*
D03*
X-8052Y16380D02*
D03*
X-8052Y15848D02*
D03*
X-8052Y17364D02*
D03*
X-8052Y16833D02*
D03*
X-10198Y17293D02*
D03*
X-10198Y16843D02*
D03*
X-10198Y16393D02*
D03*
X-10198Y15943D02*
D03*
X-12321Y9301D02*
D03*
X-10750Y13750D02*
D03*
X-8552Y10819D02*
D03*
X-8552Y11213D02*
D03*
X-8552Y11606D02*
D03*
X-9798Y12443D02*
D03*
X-6518Y14667D02*
D03*
X-6518Y14267D02*
D03*
X-12900Y18890D02*
D03*
X-14556Y15366D02*
D03*
X-14271Y16675D02*
D03*
X-13680Y16675D02*
D03*
X-17348Y8954D02*
D03*
X-16798Y8954D02*
D03*
X-16298Y8954D02*
D03*
X-15798Y8954D02*
D03*
X-15111Y14191D02*
D03*
X-15642Y14191D02*
D03*
X-12588Y13280D02*
D03*
X-12981Y13280D02*
D03*
X16500Y12747D02*
D03*
X16500Y13747D02*
D03*
X17500Y14247D02*
D03*
X19997Y14250D02*
D03*
X20497Y14250D02*
D03*
X20997Y14250D02*
D03*
X21497Y14250D02*
D03*
X22000Y13753D02*
D03*
X22497Y12747D02*
D03*
X22497Y12250D02*
D03*
X21000Y8250D02*
D03*
X21500Y8750D02*
D03*
X21500Y8250D02*
D03*
X22000Y8750D02*
D03*
X22500Y8750D02*
D03*
X22500Y9744D02*
D03*
X22000Y10250D02*
D03*
X-4500Y12625D02*
D03*
X-3000Y7500D02*
D03*
X-2500Y7500D02*
D03*
X-2000Y7500D02*
D03*
X-2000Y8000D02*
D03*
X-2500Y8500D02*
D03*
X-2000Y8500D02*
D03*
X-2000Y9000D02*
D03*
X-2500Y9000D02*
D03*
X-2000Y9500D02*
D03*
X-2000Y10000D02*
D03*
X-2500Y9500D02*
D03*
X-2500Y10000D02*
D03*
X-3500Y9500D02*
D03*
X-3000Y9500D02*
D03*
X-3000Y10000D02*
D03*
D255*
X15075Y3250D02*
D03*
X14287Y3250D02*
D03*
X13500Y3250D02*
D03*
X20112Y3250D02*
D03*
X19325Y3250D02*
D03*
X18537Y3250D02*
D03*
X17750Y3250D02*
D03*
X30150Y4119D02*
D03*
X30150Y4906D02*
D03*
X30150Y5694D02*
D03*
X17750Y31650D02*
D03*
X16963Y31650D02*
D03*
X16175Y31650D02*
D03*
X13600Y31650D02*
D03*
X12813Y31650D02*
D03*
X12025Y31650D02*
D03*
X21900Y31650D02*
D03*
X21113Y31650D02*
D03*
X20325Y31650D02*
D03*
D256*
X20275Y34252D02*
D03*
X19095Y34252D02*
D03*
D257*
X31500Y2000D02*
D03*
X31500Y33000D02*
D03*
X-31500Y2000D02*
D03*
X-31500Y33000D02*
D03*
D258*
X24809Y24846D02*
D03*
X32283Y25443D02*
D03*
X-31883Y24846D02*
D03*
X-24409Y25443D02*
D03*
D259*
X-26750Y5256D02*
D03*
X-26750Y2500D02*
D03*
D260*
X-1406Y3532D02*
D03*
D261*
X1428Y3532D02*
D03*
D262*
X-934Y3001D02*
D03*
X-619Y3001D02*
D03*
X-461Y3276D02*
D03*
X-304Y3001D02*
D03*
X-146Y3276D02*
D03*
X169Y3276D02*
D03*
X326Y3001D02*
D03*
X483Y3276D02*
D03*
X641Y3001D02*
D03*
X956Y3001D02*
D03*
D263*
X9792Y3170D02*
D03*
X8867Y2708D02*
D03*
X11987Y3014D02*
D03*
X11987Y3892D02*
D03*
X8867Y3511D02*
D03*
X12557Y3892D02*
D03*
X12557Y3014D02*
D03*
M02*
